<?xml version="1.0" encoding="UTF-8" standalone="no"?><svg xmlns="http://www.w3.org/2000/svg" xmlns:xlink="http://www.w3.org/1999/xlink" contentStyleType="text/css" height="491px" preserveAspectRatio="none" style="width:969px;height:491px;background:#FFFFFF;" version="1.1" viewBox="0 0 969 491" width="969px" zoomAndPan="magnify"><defs/><g><text fill="#000000" font-family="sans-serif" font-size="14" font-weight="bold" lengthAdjust="spacing" textLength="188" x="389.5" y="27.9951">Level 1 - Run Test Suite</text><rect fill="#FFFFFF" height="250.25" style="stroke:#181818;stroke-width:1.0;" width="10" x="53.5" y="135.5781"/><rect fill="#FFFFFF" height="220.9688" style="stroke:#181818;stroke-width:1.0;" width="10" x="408.5" y="164.8594"/><rect fill="#FFFFFF" height="37.2813" style="stroke:#181818;stroke-width:1.0;" width="10" x="897.5" y="311.2656"/><rect fill="#EBF5FB" height="95.125" style="stroke:#000000;stroke-width:1.5;" width="345" x="359.5" y="179.8594"/><line style="stroke:#181818;stroke-width:0.5;stroke-dasharray:5.0,5.0;" x1="58" x2="58" y1="125.5781" y2="403.8281"/><line style="stroke:#181818;stroke-width:0.5;stroke-dasharray:5.0,5.0;" x1="413.5" x2="413.5" y1="125.5781" y2="403.8281"/><line style="stroke:#181818;stroke-width:0.5;stroke-dasharray:5.0,5.0;" x1="902" x2="902" y1="125.5781" y2="403.8281"/><text fill="#000000" font-family="sans-serif" font-size="20" lengthAdjust="spacing" textLength="101" x="5" y="120.8613">Developer</text><ellipse cx="58.5" cy="50.7969" fill="#E2E2F0" rx="8" ry="8" style="stroke:#181818;stroke-width:0.5;"/><path d="M58.5,58.7969 L58.5,85.7969 M45.5,66.7969 L71.5,66.7969 M58.5,85.7969 L45.5,100.7969 M58.5,85.7969 L71.5,100.7969 " fill="none" style="stroke:#181818;stroke-width:0.5;"/><text fill="#000000" font-family="sans-serif" font-size="20" lengthAdjust="spacing" textLength="101" x="5" y="421.3926">Developer</text><ellipse cx="58.5" cy="434.6094" fill="#E2E2F0" rx="8" ry="8" style="stroke:#181818;stroke-width:0.5;"/><path d="M58.5,442.6094 L58.5,469.6094 M45.5,450.6094 L71.5,450.6094 M58.5,469.6094 L45.5,484.6094 M58.5,469.6094 L71.5,484.6094 " fill="none" style="stroke:#181818;stroke-width:0.5;"/><rect fill="#E2E2F0" height="37.2813" rx="2.5" ry="2.5" style="stroke:#181818;stroke-width:0.5;" width="88" x="369.5" y="87.2969"/><text fill="#000000" font-family="sans-serif" font-size="20" lengthAdjust="spacing" textLength="74" x="376.5" y="112.8613">System</text><rect fill="#E2E2F0" height="37.2813" rx="2.5" ry="2.5" style="stroke:#181818;stroke-width:0.5;" width="88" x="369.5" y="402.8281"/><text fill="#000000" font-family="sans-serif" font-size="20" lengthAdjust="spacing" textLength="74" x="376.5" y="428.3926">System</text><rect fill="#E2E2F0" height="60.5625" rx="2.5" ry="2.5" style="stroke:#181818;stroke-width:0.5;" width="121" x="842" y="64.0156"/><text fill="#000000" font-family="sans-serif" font-size="20" lengthAdjust="spacing" textLength="107" x="849" y="89.5801">«External»</text><text fill="#000000" font-family="sans-serif" font-size="20" lengthAdjust="spacing" textLength="94" x="855.5" y="112.8613">Database</text><rect fill="#E2E2F0" height="60.5625" rx="2.5" ry="2.5" style="stroke:#181818;stroke-width:0.5;" width="121" x="842" y="402.8281"/><text fill="#000000" font-family="sans-serif" font-size="20" lengthAdjust="spacing" textLength="107" x="849" y="428.3926">«External»</text><text fill="#000000" font-family="sans-serif" font-size="20" lengthAdjust="spacing" textLength="94" x="855.5" y="451.6738">Database</text><rect fill="#FFFFFF" height="250.25" style="stroke:#181818;stroke-width:1.0;" width="10" x="53.5" y="135.5781"/><rect fill="#FFFFFF" height="220.9688" style="stroke:#181818;stroke-width:1.0;" width="10" x="408.5" y="164.8594"/><rect fill="#FFFFFF" height="37.2813" style="stroke:#181818;stroke-width:1.0;" width="10" x="897.5" y="311.2656"/><polygon fill="#000000" points="396.5,160.8594,406.5,164.8594,396.5,168.8594,400.5,164.8594" style="stroke:#000000;stroke-width:1.0;"/><line style="stroke:#000000;stroke-width:1.0;" x1="63.5" x2="402.5" y1="164.8594" y2="164.8594"/><text fill="#000000" font-family="sans-serif" font-size="20" lengthAdjust="spacing" textLength="254" x="70.5" y="158.1426">Request to run Test Suite</text><path d="M359.5,179.8594 L453.5,179.8594 L453.5,195.1406 L443.5,205.1406 L359.5,205.1406 L359.5,179.8594 " fill="#EEEEEE" style="stroke:#000000;stroke-width:1.5;"/><rect fill="none" height="95.125" style="stroke:#000000;stroke-width:1.5;" width="345" x="359.5" y="179.8594"/><text fill="#000000" font-family="sans-serif" font-size="20" font-weight="bold" lengthAdjust="spacing" textLength="49" x="374.5" y="199.4238">loop</text><text fill="#000000" font-family="sans-serif" font-size="20" font-weight="bold" lengthAdjust="spacing" textLength="231" x="468.5" y="200.4238">[For each Test Plan]</text><rect fill="none" height="56.5625" style="stroke:#000000;stroke-width:1.5;" width="573" x="366.5" y="213.4219"/><path d="M366.5,213.4219 L444.5,213.4219 L444.5,228.4219 L434.5,238.4219 L366.5,238.4219 L366.5,213.4219 " fill="#EEEEEE" style="stroke:#000000;stroke-width:2.0;"/><text fill="#000000" font-family="sans-serif" font-size="20" font-weight="bold" lengthAdjust="spacing" textLength="33" x="379.5" y="233.9863">ref</text><text fill="#000000" font-family="sans-serif" font-size="20" lengthAdjust="spacing" textLength="565" x="370.5" y="260.9863">"See Test Plan Execution" at [../UC04/L1-PV-UC04.puml]</text><polygon fill="#000000" points="885.5,307.2656,895.5,311.2656,885.5,315.2656,889.5,311.2656" style="stroke:#000000;stroke-width:1.0;"/><line style="stroke:#000000;stroke-width:1.0;" x1="418.5" x2="891.5" y1="311.2656" y2="311.2656"/><text fill="#000000" font-family="sans-serif" font-size="20" lengthAdjust="spacing" textLength="338" x="425.5" y="304.5488">Save Test Suite Execution Results</text><polygon fill="#000000" points="429.5,344.5469,419.5,348.5469,429.5,352.5469,425.5,348.5469" style="stroke:#000000;stroke-width:1.0;"/><line style="stroke:#000000;stroke-width:1.0;stroke-dasharray:2.0,2.0;" x1="423.5" x2="901.5" y1="348.5469" y2="348.5469"/><text fill="#000000" font-family="sans-serif" font-size="20" lengthAdjust="spacing" textLength="351" x="435.5" y="341.8301">Test Suite Execution Results Saved</text><polygon fill="#000000" points="69.5,381.8281,59.5,385.8281,69.5,389.8281,65.5,385.8281" style="stroke:#000000;stroke-width:1.0;"/><line style="stroke:#000000;stroke-width:1.0;" x1="63.5" x2="412.5" y1="385.8281" y2="385.8281"/><text fill="#000000" font-family="sans-serif" font-size="20" lengthAdjust="spacing" textLength="321" x="75.5" y="379.1113">Test Suite Execution Completed</text><!--SRC=[VP91RzGm48Nl_XMZxJdRtOfIg5QHwdLogaJL01VWC9jCMxEEdTgJj0Nntx6p2yrA2xx46h_tpHixOQjjXnvRu-ejDT3G7VQ6IsUvqZy8pXP2i6P3S4q36LX21hUzXOyK6AfUCmdne1i2QZj-WPRQ3VaWHFZ3XTfW2F1JG5mIw-szTxrjriuulreDQ7hwiFbEDUSvdAYtnLNvxhZKEpTgIbL8jJYk2UG7NTE8MfPdXJmcYuYYV5zSZ6TNthkdNLcQg1E_fjcxMC5xEfuUJWfPdfSoMR3cM53fYbn77Z204Y92MDUwGyimgru2KpjBHxljuV5gLJmpUOicpxzQXOmR33JAbHmRw06P8bP1bkyHbt1BZtrw2dRW3v_bhsFVpJZNGHbJ4jOFE-6DGJjEvkaEt11pxxKmMREAw5KEnJFLFMjdOpI6B_FvwQVruitfzJAx-PobxRphM_DjH91j4bgaRselTlYKNybBg72WIU9NT9mgn9ymJAQMGad89eF_ppUI6z7Gr3_f_G_tshMT8JvqxczaoXA_0G00]--></g></svg>