<?xml version="1.0" encoding="UTF-8" standalone="no"?><svg xmlns="http://www.w3.org/2000/svg" xmlns:xlink="http://www.w3.org/1999/xlink" contentStyleType="text/css" height="502px" preserveAspectRatio="none" style="width:915px;height:502px;background:#FFFFFF;" version="1.1" viewBox="0 0 915 502" width="915px" zoomAndPan="magnify"><defs/><g><text fill="#000000" font-family="sans-serif" font-size="14" font-weight="bold" lengthAdjust="spacing" textLength="188" x="360.5" y="27.9951">Level 2 - Run Test Suite</text><rect fill="#DDDDDD" height="453.375" style="stroke:#181818;stroke-width:0.5;" width="592" x="317" y="43.2969"/><text fill="#000000" font-family="sans-serif" font-size="20" font-weight="bold" lengthAdjust="spacing" textLength="586" x="320" y="61.8613">«System» Melmac Performance Testing Framework</text><rect fill="#FFFFFF" height="250.25" style="stroke:#181818;stroke-width:1.0;" width="10" x="53.5" y="142.1406"/><rect fill="#FFFFFF" height="220.9688" style="stroke:#181818;stroke-width:1.0;" width="10" x="412" y="171.4219"/><rect fill="#FFFFFF" height="37.2813" style="stroke:#181818;stroke-width:1.0;" width="10" x="804" y="317.8281"/><rect fill="#EBF5FB" height="95.125" style="stroke:#000000;stroke-width:1.5;" width="345" x="314.5" y="186.4219"/><line style="stroke:#181818;stroke-width:0.5;stroke-dasharray:5.0,5.0;" x1="58" x2="58" y1="132.1406" y2="410.3906"/><line style="stroke:#181818;stroke-width:0.5;stroke-dasharray:5.0,5.0;" x1="416.5" x2="416.5" y1="132.1406" y2="410.3906"/><line style="stroke:#181818;stroke-width:0.5;stroke-dasharray:5.0,5.0;" x1="808.5" x2="808.5" y1="132.1406" y2="410.3906"/><text fill="#000000" font-family="sans-serif" font-size="20" lengthAdjust="spacing" textLength="101" x="5" y="127.4238">Developer</text><ellipse cx="58.5" cy="57.3594" fill="#E2E2F0" rx="8" ry="8" style="stroke:#181818;stroke-width:0.5;"/><path d="M58.5,65.3594 L58.5,92.3594 M45.5,73.3594 L71.5,73.3594 M58.5,92.3594 L45.5,107.3594 M58.5,92.3594 L71.5,107.3594 " fill="none" style="stroke:#181818;stroke-width:0.5;"/><text fill="#000000" font-family="sans-serif" font-size="20" lengthAdjust="spacing" textLength="101" x="5" y="427.9551">Developer</text><ellipse cx="58.5" cy="441.1719" fill="#E2E2F0" rx="8" ry="8" style="stroke:#181818;stroke-width:0.5;"/><path d="M58.5,449.1719 L58.5,476.1719 M45.5,457.1719 L71.5,457.1719 M58.5,476.1719 L45.5,491.1719 M58.5,476.1719 L71.5,491.1719 " fill="none" style="stroke:#181818;stroke-width:0.5;"/><rect fill="#E2E2F0" height="60.5625" rx="2.5" ry="2.5" style="stroke:#181818;stroke-width:0.5;" width="185" x="324.5" y="70.5781"/><text fill="#000000" font-family="sans-serif" font-size="20" lengthAdjust="spacing" textLength="171" x="331.5" y="96.1426">«Container (C4)»</text><text fill="#000000" font-family="sans-serif" font-size="20" lengthAdjust="spacing" textLength="105" x="364.5" y="119.4238">MelmacBE</text><rect fill="#E2E2F0" height="60.5625" rx="2.5" ry="2.5" style="stroke:#181818;stroke-width:0.5;" width="185" x="324.5" y="409.3906"/><text fill="#000000" font-family="sans-serif" font-size="20" lengthAdjust="spacing" textLength="171" x="331.5" y="434.9551">«Container (C4)»</text><text fill="#000000" font-family="sans-serif" font-size="20" lengthAdjust="spacing" textLength="105" x="364.5" y="458.2363">MelmacBE</text><rect fill="#E2E2F0" height="60.5625" rx="2.5" ry="2.5" style="stroke:#181818;stroke-width:0.5;" width="185" x="716.5" y="70.5781"/><text fill="#000000" font-family="sans-serif" font-size="20" lengthAdjust="spacing" textLength="171" x="723.5" y="96.1426">«Container (C4)»</text><text fill="#000000" font-family="sans-serif" font-size="20" lengthAdjust="spacing" textLength="94" x="762" y="119.4238">Database</text><rect fill="#E2E2F0" height="60.5625" rx="2.5" ry="2.5" style="stroke:#181818;stroke-width:0.5;" width="185" x="716.5" y="409.3906"/><text fill="#000000" font-family="sans-serif" font-size="20" lengthAdjust="spacing" textLength="171" x="723.5" y="434.9551">«Container (C4)»</text><text fill="#000000" font-family="sans-serif" font-size="20" lengthAdjust="spacing" textLength="94" x="762" y="458.2363">Database</text><rect fill="#FFFFFF" height="250.25" style="stroke:#181818;stroke-width:1.0;" width="10" x="53.5" y="142.1406"/><rect fill="#FFFFFF" height="220.9688" style="stroke:#181818;stroke-width:1.0;" width="10" x="412" y="171.4219"/><rect fill="#FFFFFF" height="37.2813" style="stroke:#181818;stroke-width:1.0;" width="10" x="804" y="317.8281"/><polygon fill="#000000" points="400,167.4219,410,171.4219,400,175.4219,404,171.4219" style="stroke:#000000;stroke-width:1.0;"/><line style="stroke:#000000;stroke-width:1.0;" x1="63.5" x2="406" y1="171.4219" y2="171.4219"/><text fill="#000000" font-family="sans-serif" font-size="20" lengthAdjust="spacing" textLength="254" x="70.5" y="164.7051">Request to run Test Suite</text><path d="M314.5,186.4219 L408.5,186.4219 L408.5,201.7031 L398.5,211.7031 L314.5,211.7031 L314.5,186.4219 " fill="#EEEEEE" style="stroke:#000000;stroke-width:1.5;"/><rect fill="none" height="95.125" style="stroke:#000000;stroke-width:1.5;" width="345" x="314.5" y="186.4219"/><text fill="#000000" font-family="sans-serif" font-size="20" font-weight="bold" lengthAdjust="spacing" textLength="49" x="329.5" y="205.9863">loop</text><text fill="#000000" font-family="sans-serif" font-size="20" font-weight="bold" lengthAdjust="spacing" textLength="231" x="423.5" y="206.9863">[For each Test Plan]</text><rect fill="none" height="56.5625" style="stroke:#000000;stroke-width:1.5;" width="573" x="321.5" y="219.9844"/><path d="M321.5,219.9844 L399.5,219.9844 L399.5,234.9844 L389.5,244.9844 L321.5,244.9844 L321.5,219.9844 " fill="#EEEEEE" style="stroke:#000000;stroke-width:2.0;"/><text fill="#000000" font-family="sans-serif" font-size="20" font-weight="bold" lengthAdjust="spacing" textLength="33" x="334.5" y="240.5488">ref</text><text fill="#000000" font-family="sans-serif" font-size="20" lengthAdjust="spacing" textLength="565" x="325.5" y="267.5488">"See Test Plan Execution" at [../UC04/L2-PV-UC04.puml]</text><polygon fill="#000000" points="792,313.8281,802,317.8281,792,321.8281,796,317.8281" style="stroke:#000000;stroke-width:1.0;"/><line style="stroke:#000000;stroke-width:1.0;" x1="422" x2="798" y1="317.8281" y2="317.8281"/><text fill="#000000" font-family="sans-serif" font-size="20" lengthAdjust="spacing" textLength="338" x="429" y="311.1113">Save Test Suite Execution Results</text><polygon fill="#000000" points="433,351.1094,423,355.1094,433,359.1094,429,355.1094" style="stroke:#000000;stroke-width:1.0;"/><line style="stroke:#000000;stroke-width:1.0;stroke-dasharray:2.0,2.0;" x1="427" x2="808" y1="355.1094" y2="355.1094"/><text fill="#000000" font-family="sans-serif" font-size="20" lengthAdjust="spacing" textLength="351" x="439" y="348.3926">Test Suite Execution Results Saved</text><polygon fill="#000000" points="69.5,388.3906,59.5,392.3906,69.5,396.3906,65.5,392.3906" style="stroke:#000000;stroke-width:1.0;"/><line style="stroke:#000000;stroke-width:1.0;" x1="63.5" x2="416" y1="392.3906" y2="392.3906"/><text fill="#000000" font-family="sans-serif" font-size="20" lengthAdjust="spacing" textLength="321" x="75.5" y="385.6738">Test Suite Execution Completed</text><!--SRC=[ZP9DRzCm6CVl_XIFkWiSsfLgl4rLf3bEJaDKo-0275pdQMVgsC5siWt4TzyJjsEPL10-HVR_vVVO2JjjM-bbOvpQOGqrRcHdOkbihFHFXCMSiQYZGRZ47WqiO0fNdOLh316gJaTax4RN2DYqyHuQRDRe0sFXCHUKaI70BmQqk5IxhNUThNDdd5ykUsaw_BZ-ZYfc6Po8DyL5-Uwur3kNDAKek9WVrmJqlLQOebwLYu8Var54KRultgQp2-_TxNwR6zAntsFsbdRa5e_Jmqd1ozSb7onIHTeGmnMv5Zt808AnjRk3oN9PtOU83K5zGDD81Ilq6-SRQHMcUzHs2oNLuQtpkmcaBkgFMkbMsZX4vFGUKbjAVf6VlSoohtQVnOl9qCMB_pC96ULQ1amcmHdQ6WWoyUjUHYHg0TEC0i_X2dzqmoj71_xvY_zHKwznheMIXaUfRlQYbP4syNZSWEkf_y3tk2OLufCKYZjKNTJE4bQ4BxFPwQTyVdPwkPYkFa-7prdRDUPRYXY8AJQH3zMC5mEluETGoHv7b4-nD4cWVpgCfkHCS9WU1lsN9wNMhCQnzz3v5sVkcjPWVEwY6nXdi0S0]--></g></svg>