<?xml version="1.0" encoding="UTF-8" standalone="no"?><svg xmlns="http://www.w3.org/2000/svg" xmlns:xlink="http://www.w3.org/1999/xlink" contentStyleType="text/css" height="502px" preserveAspectRatio="none" style="width:1271px;height:502px;background:#FFFFFF;" version="1.1" viewBox="0 0 1271 502" width="1271px" zoomAndPan="magnify"><defs/><g><text fill="#000000" font-family="sans-serif" font-size="14" font-weight="bold" lengthAdjust="spacing" textLength="188" x="540.5" y="27.9951">Level 2 - Run Test Suite</text><rect fill="#DDDDDD" height="453.375" style="stroke:#181818;stroke-width:0.5;" width="592" x="317" y="43.2969"/><text fill="#000000" font-family="sans-serif" font-size="20" font-weight="bold" lengthAdjust="spacing" textLength="586" x="320" y="61.8613">«System» Melmac Performance Testing Framework</text><rect fill="#FFFFFF" height="250.25" style="stroke:#181818;stroke-width:1.0;" width="10" x="53.5" y="142.1406"/><rect fill="#FFFFFF" height="220.9688" style="stroke:#181818;stroke-width:1.0;" width="10" x="608" y="171.4219"/><rect fill="#FFFFFF" height="37.2813" style="stroke:#181818;stroke-width:1.0;" width="10" x="1199.5" y="317.8281"/><rect fill="#EBF5FB" height="95.125" style="stroke:#000000;stroke-width:1.5;" width="345" x="510.5" y="186.4219"/><line style="stroke:#181818;stroke-width:0.5;stroke-dasharray:5.0,5.0;" x1="58" x2="58" y1="132.1406" y2="410.3906"/><line style="stroke:#181818;stroke-width:0.5;stroke-dasharray:5.0,5.0;" x1="612.5" x2="612.5" y1="132.1406" y2="410.3906"/><line style="stroke:#181818;stroke-width:0.5;stroke-dasharray:5.0,5.0;" x1="1204" x2="1204" y1="132.1406" y2="410.3906"/><text fill="#000000" font-family="sans-serif" font-size="20" lengthAdjust="spacing" textLength="101" x="5" y="127.4238">Developer</text><ellipse cx="58.5" cy="57.3594" fill="#E2E2F0" rx="8" ry="8" style="stroke:#181818;stroke-width:0.5;"/><path d="M58.5,65.3594 L58.5,92.3594 M45.5,73.3594 L71.5,73.3594 M58.5,92.3594 L45.5,107.3594 M58.5,92.3594 L71.5,107.3594 " fill="none" style="stroke:#181818;stroke-width:0.5;"/><text fill="#000000" font-family="sans-serif" font-size="20" lengthAdjust="spacing" textLength="101" x="5" y="427.9551">Developer</text><ellipse cx="58.5" cy="441.1719" fill="#E2E2F0" rx="8" ry="8" style="stroke:#181818;stroke-width:0.5;"/><path d="M58.5,449.1719 L58.5,476.1719 M45.5,457.1719 L71.5,457.1719 M58.5,476.1719 L45.5,491.1719 M58.5,476.1719 L71.5,491.1719 " fill="none" style="stroke:#181818;stroke-width:0.5;"/><rect fill="#E2E2F0" height="60.5625" rx="2.5" ry="2.5" style="stroke:#181818;stroke-width:0.5;" width="185" x="520.5" y="70.5781"/><text fill="#000000" font-family="sans-serif" font-size="20" lengthAdjust="spacing" textLength="171" x="527.5" y="96.1426">«Container (C4)»</text><text fill="#000000" font-family="sans-serif" font-size="20" lengthAdjust="spacing" textLength="105" x="560.5" y="119.4238">MelmacBE</text><rect fill="#E2E2F0" height="60.5625" rx="2.5" ry="2.5" style="stroke:#181818;stroke-width:0.5;" width="185" x="520.5" y="409.3906"/><text fill="#000000" font-family="sans-serif" font-size="20" lengthAdjust="spacing" textLength="171" x="527.5" y="434.9551">«Container (C4)»</text><text fill="#000000" font-family="sans-serif" font-size="20" lengthAdjust="spacing" textLength="105" x="560.5" y="458.2363">MelmacBE</text><rect fill="#E2E2F0" height="60.5625" rx="2.5" ry="2.5" style="stroke:#181818;stroke-width:0.5;" width="121" x="1144" y="70.5781"/><text fill="#000000" font-family="sans-serif" font-size="20" lengthAdjust="spacing" textLength="107" x="1151" y="96.1426">«External»</text><text fill="#000000" font-family="sans-serif" font-size="20" lengthAdjust="spacing" textLength="94" x="1157.5" y="119.4238">Database</text><rect fill="#E2E2F0" height="60.5625" rx="2.5" ry="2.5" style="stroke:#181818;stroke-width:0.5;" width="121" x="1144" y="409.3906"/><text fill="#000000" font-family="sans-serif" font-size="20" lengthAdjust="spacing" textLength="107" x="1151" y="434.9551">«External»</text><text fill="#000000" font-family="sans-serif" font-size="20" lengthAdjust="spacing" textLength="94" x="1157.5" y="458.2363">Database</text><rect fill="#FFFFFF" height="250.25" style="stroke:#181818;stroke-width:1.0;" width="10" x="53.5" y="142.1406"/><rect fill="#FFFFFF" height="220.9688" style="stroke:#181818;stroke-width:1.0;" width="10" x="608" y="171.4219"/><rect fill="#FFFFFF" height="37.2813" style="stroke:#181818;stroke-width:1.0;" width="10" x="1199.5" y="317.8281"/><polygon fill="#000000" points="596,167.4219,606,171.4219,596,175.4219,600,171.4219" style="stroke:#000000;stroke-width:1.0;"/><line style="stroke:#000000;stroke-width:1.0;" x1="63.5" x2="602" y1="171.4219" y2="171.4219"/><text fill="#000000" font-family="sans-serif" font-size="20" lengthAdjust="spacing" textLength="254" x="70.5" y="164.7051">Request to run Test Suite</text><path d="M510.5,186.4219 L604.5,186.4219 L604.5,201.7031 L594.5,211.7031 L510.5,211.7031 L510.5,186.4219 " fill="#EEEEEE" style="stroke:#000000;stroke-width:1.5;"/><rect fill="none" height="95.125" style="stroke:#000000;stroke-width:1.5;" width="345" x="510.5" y="186.4219"/><text fill="#000000" font-family="sans-serif" font-size="20" font-weight="bold" lengthAdjust="spacing" textLength="49" x="525.5" y="205.9863">loop</text><text fill="#000000" font-family="sans-serif" font-size="20" font-weight="bold" lengthAdjust="spacing" textLength="231" x="619.5" y="206.9863">[For each Test Plan]</text><rect fill="none" height="56.5625" style="stroke:#000000;stroke-width:1.5;" width="573" x="517.5" y="219.9844"/><path d="M517.5,219.9844 L595.5,219.9844 L595.5,234.9844 L585.5,244.9844 L517.5,244.9844 L517.5,219.9844 " fill="#EEEEEE" style="stroke:#000000;stroke-width:2.0;"/><text fill="#000000" font-family="sans-serif" font-size="20" font-weight="bold" lengthAdjust="spacing" textLength="33" x="530.5" y="240.5488">ref</text><text fill="#000000" font-family="sans-serif" font-size="20" lengthAdjust="spacing" textLength="565" x="521.5" y="267.5488">"See Test Plan Execution" at [../UC04/L2-PV-UC04.puml]</text><polygon fill="#000000" points="1187.5,313.8281,1197.5,317.8281,1187.5,321.8281,1191.5,317.8281" style="stroke:#000000;stroke-width:1.0;"/><line style="stroke:#000000;stroke-width:1.0;" x1="618" x2="1193.5" y1="317.8281" y2="317.8281"/><text fill="#000000" font-family="sans-serif" font-size="20" lengthAdjust="spacing" textLength="338" x="625" y="311.1113">Save Test Suite Execution Results</text><polygon fill="#000000" points="629,351.1094,619,355.1094,629,359.1094,625,355.1094" style="stroke:#000000;stroke-width:1.0;"/><line style="stroke:#000000;stroke-width:1.0;stroke-dasharray:2.0,2.0;" x1="623" x2="1203.5" y1="355.1094" y2="355.1094"/><text fill="#000000" font-family="sans-serif" font-size="20" lengthAdjust="spacing" textLength="351" x="635" y="348.3926">Test Suite Execution Results Saved</text><polygon fill="#000000" points="69.5,388.3906,59.5,392.3906,69.5,396.3906,65.5,392.3906" style="stroke:#000000;stroke-width:1.0;"/><line style="stroke:#000000;stroke-width:1.0;" x1="63.5" x2="612" y1="392.3906" y2="392.3906"/><text fill="#000000" font-family="sans-serif" font-size="20" lengthAdjust="spacing" textLength="321" x="75.5" y="385.6738">Test Suite Execution Completed</text><!--SRC=[VL9BSzCm4BxhL-oa5pWa3PdowcGoKyNogGoP1hW0XusyIKLaoKYo-s3uxwoLGbqce9DdzJrNZdlZ6WnOMw_tL455MsnjAhrBQtDFC9iAaKoo19VKaOKPZE6gTV21Oe9rQn89SMqg0ggRT0SrrHiAKOZuMnUqnHZXXm0-4lL-5tphggMtFipd7TgMtc- -aKwB1PmKhzH5-UOuD7YVCMMXP34zZeaKEgCfIxqePqeUWx64Aj-gr_dk8WH_SnXBopZnSvYzuGdkw7XwE56oV5dAde8wyQ3eL-GR2e0H2Y4s_XP6y_dwBYQgETGxiZLgM57O-b2ZqvJtQDmEIhQZ6n_s8yXUx9-CDWswr4ii-JtGE5P-jZnxlbXySGSjgKQzbrI2N0Ni9_uYgjj4mQ7jAGKct62aJ2baJcqwJCHP2nWlMEOShkXxsxzjyX2UllCVDBjPxniekJAXlZw0LXPTZXve2xxZg8o3mHcjYHwXe6v9jybunt4IV9vCJZykfsUdbxFnwjEu_vmqRMs_Pec-7ClcahsraAhFMyXpM6D7WvIFijmayfyS1osbA2IC7uh-ZvDLAr7HaFlW-G_cqjUDfVIKnHiOQeXV]--></g></svg>