<?xml version="1.0" encoding="UTF-8" standalone="no"?><svg xmlns="http://www.w3.org/2000/svg" xmlns:xlink="http://www.w3.org/1999/xlink" contentStyleType="text/css" height="1421px" preserveAspectRatio="none" style="width:4266px;height:1421px;background:#FFFFFF;" version="1.1" viewBox="0 0 4266 1421" width="4266px" zoomAndPan="magnify"><defs/><g><text fill="#000000" font-family="sans-serif" font-size="14" font-weight="bold" lengthAdjust="spacing" textLength="188" x="2041.25" y="27.9951">Level 3 - Run Test Suite</text><rect fill="#DDDDDD" height="1372.125" style="stroke:#181818;stroke-width:0.5;" width="3228.5" x="306" y="43.2969"/><text fill="#000000" font-family="sans-serif" font-size="20" font-weight="bold" lengthAdjust="spacing" textLength="316" x="1762.25" y="61.8613">«Container (C4)» MelmacBE</text><rect fill="#FFFFFF" height="1169" style="stroke:#181818;stroke-width:1.0;" width="10" x="53.5" y="142.1406"/><rect fill="#FFFFFF" height="1139.7188" style="stroke:#181818;stroke-width:1.0;" width="10" x="408.5" y="171.4219"/><rect fill="#FFFFFF" height="1065.1563" style="stroke:#181818;stroke-width:1.0;" width="10" x="810.5" y="208.7031"/><rect fill="#FFFFFF" height="162.125" style="stroke:#181818;stroke-width:1.0;" width="10" x="1281.5" y="245.9844"/><rect fill="#FFFFFF" height="162.125" style="stroke:#181818;stroke-width:1.0;" width="10" x="1602" y="445.3906"/><rect fill="#FFFFFF" height="145.4063" style="stroke:#181818;stroke-width:1.0;" width="10" x="1892" y="685.3594"/><rect fill="#FFFFFF" height="162.125" style="stroke:#181818;stroke-width:1.0;" width="10" x="2706" y="875.0469"/><rect fill="#FFFFFF" height="162.125" style="stroke:#181818;stroke-width:1.0;" width="10" x="2971.5" y="1074.4531"/><rect fill="#FFFFFF" height="87.5625" style="stroke:#181818;stroke-width:1.0;" width="10" x="3373.5" y="1111.7344"/><rect fill="#FFFFFF" height="87.5625" style="stroke:#181818;stroke-width:1.0;" width="10" x="3932.5" y="283.2656"/><rect fill="#FFFFFF" height="87.5625" style="stroke:#181818;stroke-width:1.0;" width="10" x="3932.5" y="482.6719"/><rect fill="#FFFFFF" height="87.5625" style="stroke:#181818;stroke-width:1.0;" width="10" x="3932.5" y="912.3281"/><rect fill="#EBF5FB" height="216.25" style="stroke:#000000;stroke-width:1.5;" width="1306" x="715" y="622.5156"/><line style="stroke:#181818;stroke-width:0.5;stroke-dasharray:5.0,5.0;" x1="58" x2="58" y1="132.1406" y2="1329.1406"/><line style="stroke:#181818;stroke-width:0.5;stroke-dasharray:5.0,5.0;" x1="413" x2="413" y1="132.1406" y2="1329.1406"/><line style="stroke:#181818;stroke-width:0.5;stroke-dasharray:5.0,5.0;" x1="815" x2="815" y1="132.1406" y2="1329.1406"/><line style="stroke:#181818;stroke-width:0.5;stroke-dasharray:5.0,5.0;" x1="1286" x2="1286" y1="132.1406" y2="1329.1406"/><line style="stroke:#181818;stroke-width:0.5;stroke-dasharray:5.0,5.0;" x1="1607" x2="1607" y1="132.1406" y2="1329.1406"/><line style="stroke:#181818;stroke-width:0.5;stroke-dasharray:5.0,5.0;" x1="1897" x2="1897" y1="132.1406" y2="1329.1406"/><line style="stroke:#181818;stroke-width:0.5;stroke-dasharray:5.0,5.0;" x1="2482.5" x2="2482.5" y1="132.1406" y2="1329.1406"/><line style="stroke:#181818;stroke-width:0.5;stroke-dasharray:5.0,5.0;" x1="2710.5" x2="2710.5" y1="132.1406" y2="1329.1406"/><line style="stroke:#181818;stroke-width:0.5;stroke-dasharray:5.0,5.0;" x1="2976.5" x2="2976.5" y1="132.1406" y2="1329.1406"/><line style="stroke:#181818;stroke-width:0.5;stroke-dasharray:5.0,5.0;" x1="3378.5" x2="3378.5" y1="132.1406" y2="1329.1406"/><line style="stroke:#181818;stroke-width:0.5;stroke-dasharray:5.0,5.0;" x1="3937" x2="3937" y1="132.1406" y2="1329.1406"/><text fill="#000000" font-family="sans-serif" font-size="20" lengthAdjust="spacing" textLength="101" x="5" y="127.4238">Developer</text><ellipse cx="58.5" cy="57.3594" fill="#E2E2F0" rx="8" ry="8" style="stroke:#181818;stroke-width:0.5;"/><path d="M58.5,65.3594 L58.5,92.3594 M45.5,73.3594 L71.5,73.3594 M58.5,92.3594 L45.5,107.3594 M58.5,92.3594 L71.5,107.3594 " fill="none" style="stroke:#181818;stroke-width:0.5;"/><text fill="#000000" font-family="sans-serif" font-size="20" lengthAdjust="spacing" textLength="101" x="5" y="1346.7051">Developer</text><ellipse cx="58.5" cy="1359.9219" fill="#E2E2F0" rx="8" ry="8" style="stroke:#181818;stroke-width:0.5;"/><path d="M58.5,1367.9219 L58.5,1394.9219 M45.5,1375.9219 L71.5,1375.9219 M58.5,1394.9219 L45.5,1409.9219 M58.5,1394.9219 L71.5,1409.9219 " fill="none" style="stroke:#181818;stroke-width:0.5;"/><rect fill="#E2E2F0" height="60.5625" rx="2.5" ry="2.5" style="stroke:#181818;stroke-width:0.5;" width="207" x="310" y="70.5781"/><text fill="#000000" font-family="sans-serif" font-size="20" lengthAdjust="spacing" textLength="123" x="352" y="96.1426">«Controller»</text><text fill="#000000" font-family="sans-serif" font-size="20" lengthAdjust="spacing" textLength="193" x="317" y="119.4238">TestSuiteController</text><rect fill="#E2E2F0" height="60.5625" rx="2.5" ry="2.5" style="stroke:#181818;stroke-width:0.5;" width="207" x="310" y="1328.1406"/><text fill="#000000" font-family="sans-serif" font-size="20" lengthAdjust="spacing" textLength="123" x="352" y="1353.7051">«Controller»</text><text fill="#000000" font-family="sans-serif" font-size="20" lengthAdjust="spacing" textLength="193" x="317" y="1376.9863">TestSuiteController</text><rect fill="#E2E2F0" height="60.5625" rx="2.5" ry="2.5" style="stroke:#181818;stroke-width:0.5;" width="181" x="725" y="70.5781"/><text fill="#000000" font-family="sans-serif" font-size="20" lengthAdjust="spacing" textLength="97" x="767" y="96.1426">«Service»</text><text fill="#000000" font-family="sans-serif" font-size="20" lengthAdjust="spacing" textLength="167" x="732" y="119.4238">TestSuiteService</text><rect fill="#E2E2F0" height="60.5625" rx="2.5" ry="2.5" style="stroke:#181818;stroke-width:0.5;" width="181" x="725" y="1328.1406"/><text fill="#000000" font-family="sans-serif" font-size="20" lengthAdjust="spacing" textLength="97" x="767" y="1353.7051">«Service»</text><text fill="#000000" font-family="sans-serif" font-size="20" lengthAdjust="spacing" textLength="167" x="732" y="1376.9863">TestSuiteService</text><rect fill="#E2E2F0" height="60.5625" rx="2.5" ry="2.5" style="stroke:#181818;stroke-width:0.5;" width="289" x="1142" y="70.5781"/><text fill="#000000" font-family="sans-serif" font-size="20" lengthAdjust="spacing" textLength="130" x="1221.5" y="96.1426">«Repository»</text><text fill="#000000" font-family="sans-serif" font-size="20" lengthAdjust="spacing" textLength="275" x="1149" y="119.4238">TestSuiteVersionRepository</text><rect fill="#E2E2F0" height="60.5625" rx="2.5" ry="2.5" style="stroke:#181818;stroke-width:0.5;" width="289" x="1142" y="1328.1406"/><text fill="#000000" font-family="sans-serif" font-size="20" lengthAdjust="spacing" textLength="130" x="1221.5" y="1353.7051">«Repository»</text><text fill="#000000" font-family="sans-serif" font-size="20" lengthAdjust="spacing" textLength="275" x="1149" y="1376.9863">TestSuiteVersionRepository</text><rect fill="#E2E2F0" height="60.5625" rx="2.5" ry="2.5" style="stroke:#181818;stroke-width:0.5;" width="332" x="1441" y="70.5781"/><text fill="#000000" font-family="sans-serif" font-size="20" lengthAdjust="spacing" textLength="130" x="1542" y="96.1426">«Repository»</text><text fill="#000000" font-family="sans-serif" font-size="20" lengthAdjust="spacing" textLength="318" x="1448" y="119.4238">TestSuiteVersionPlanRepository</text><rect fill="#E2E2F0" height="60.5625" rx="2.5" ry="2.5" style="stroke:#181818;stroke-width:0.5;" width="332" x="1441" y="1328.1406"/><text fill="#000000" font-family="sans-serif" font-size="20" lengthAdjust="spacing" textLength="130" x="1542" y="1353.7051">«Repository»</text><text fill="#000000" font-family="sans-serif" font-size="20" lengthAdjust="spacing" textLength="318" x="1448" y="1376.9863">TestSuiteVersionPlanRepository</text><rect fill="#E2E2F0" height="60.5625" rx="2.5" ry="2.5" style="stroke:#181818;stroke-width:0.5;" width="228" x="1783" y="70.5781"/><text fill="#000000" font-family="sans-serif" font-size="20" lengthAdjust="spacing" textLength="97" x="1848.5" y="96.1426">«Service»</text><text fill="#000000" font-family="sans-serif" font-size="20" lengthAdjust="spacing" textLength="214" x="1790" y="119.4238">TestExecutionService</text><rect fill="#E2E2F0" height="60.5625" rx="2.5" ry="2.5" style="stroke:#181818;stroke-width:0.5;" width="228" x="1783" y="1328.1406"/><text fill="#000000" font-family="sans-serif" font-size="20" lengthAdjust="spacing" textLength="97" x="1848.5" y="1353.7051">«Service»</text><text fill="#000000" font-family="sans-serif" font-size="20" lengthAdjust="spacing" textLength="214" x="1790" y="1376.9863">TestExecutionService</text><rect fill="#E2E2F0" height="60.5625" rx="2.5" ry="2.5" style="stroke:#181818;stroke-width:0.5;" width="165" x="2400.5" y="70.5781"/><text fill="#000000" font-family="sans-serif" font-size="20" lengthAdjust="spacing" textLength="102" x="2432" y="96.1426">«Domain»</text><text fill="#000000" font-family="sans-serif" font-size="20" lengthAdjust="spacing" textLength="151" x="2407.5" y="119.4238">SuiteExecution</text><rect fill="#E2E2F0" height="60.5625" rx="2.5" ry="2.5" style="stroke:#181818;stroke-width:0.5;" width="165" x="2400.5" y="1328.1406"/><text fill="#000000" font-family="sans-serif" font-size="20" lengthAdjust="spacing" textLength="102" x="2432" y="1353.7051">«Domain»</text><text fill="#000000" font-family="sans-serif" font-size="20" lengthAdjust="spacing" textLength="151" x="2407.5" y="1376.9863">SuiteExecution</text><rect fill="#E2E2F0" height="60.5625" rx="2.5" ry="2.5" style="stroke:#181818;stroke-width:0.5;" width="271" x="2575.5" y="70.5781"/><text fill="#000000" font-family="sans-serif" font-size="20" lengthAdjust="spacing" textLength="130" x="2646" y="96.1426">«Repository»</text><text fill="#000000" font-family="sans-serif" font-size="20" lengthAdjust="spacing" textLength="257" x="2582.5" y="119.4238">SuiteExecutionRepository</text><rect fill="#E2E2F0" height="60.5625" rx="2.5" ry="2.5" style="stroke:#181818;stroke-width:0.5;" width="271" x="2575.5" y="1328.1406"/><text fill="#000000" font-family="sans-serif" font-size="20" lengthAdjust="spacing" textLength="130" x="2646" y="1353.7051">«Repository»</text><text fill="#000000" font-family="sans-serif" font-size="20" lengthAdjust="spacing" textLength="257" x="2582.5" y="1376.9863">SuiteExecutionRepository</text><rect fill="#E2E2F0" height="60.5625" rx="2.5" ry="2.5" style="stroke:#181818;stroke-width:0.5;" width="240" x="2856.5" y="70.5781"/><text fill="#000000" font-family="sans-serif" font-size="20" lengthAdjust="spacing" textLength="99" x="2927" y="96.1426">«Mapper»</text><text fill="#000000" font-family="sans-serif" font-size="20" lengthAdjust="spacing" textLength="226" x="2863.5" y="119.4238">SuiteExecutionMapper</text><rect fill="#E2E2F0" height="60.5625" rx="2.5" ry="2.5" style="stroke:#181818;stroke-width:0.5;" width="240" x="2856.5" y="1328.1406"/><text fill="#000000" font-family="sans-serif" font-size="20" lengthAdjust="spacing" textLength="99" x="2927" y="1353.7051">«Mapper»</text><text fill="#000000" font-family="sans-serif" font-size="20" lengthAdjust="spacing" textLength="226" x="2863.5" y="1376.9863">SuiteExecutionMapper</text><rect fill="#E2E2F0" height="60.5625" rx="2.5" ry="2.5" style="stroke:#181818;stroke-width:0.5;" width="304" x="3226.5" y="70.5781"/><text fill="#000000" font-family="sans-serif" font-size="20" lengthAdjust="spacing" textLength="67" x="3345" y="96.1426">«DTO»</text><text fill="#000000" font-family="sans-serif" font-size="20" lengthAdjust="spacing" textLength="290" x="3233.5" y="119.4238">SuiteExecutionResponseDTO</text><rect fill="#E2E2F0" height="60.5625" rx="2.5" ry="2.5" style="stroke:#181818;stroke-width:0.5;" width="304" x="3226.5" y="1328.1406"/><text fill="#000000" font-family="sans-serif" font-size="20" lengthAdjust="spacing" textLength="67" x="3345" y="1353.7051">«DTO»</text><text fill="#000000" font-family="sans-serif" font-size="20" lengthAdjust="spacing" textLength="290" x="3233.5" y="1376.9863">SuiteExecutionResponseDTO</text><rect fill="#E2E2F0" height="60.5625" rx="2.5" ry="2.5" style="stroke:#181818;stroke-width:0.5;" width="121" x="3877" y="70.5781"/><text fill="#000000" font-family="sans-serif" font-size="20" lengthAdjust="spacing" textLength="107" x="3884" y="96.1426">«External»</text><text fill="#000000" font-family="sans-serif" font-size="20" lengthAdjust="spacing" textLength="94" x="3890.5" y="119.4238">Database</text><rect fill="#E2E2F0" height="60.5625" rx="2.5" ry="2.5" style="stroke:#181818;stroke-width:0.5;" width="121" x="3877" y="1328.1406"/><text fill="#000000" font-family="sans-serif" font-size="20" lengthAdjust="spacing" textLength="107" x="3884" y="1353.7051">«External»</text><text fill="#000000" font-family="sans-serif" font-size="20" lengthAdjust="spacing" textLength="94" x="3890.5" y="1376.9863">Database</text><rect fill="#FFFFFF" height="1169" style="stroke:#181818;stroke-width:1.0;" width="10" x="53.5" y="142.1406"/><rect fill="#FFFFFF" height="1139.7188" style="stroke:#181818;stroke-width:1.0;" width="10" x="408.5" y="171.4219"/><rect fill="#FFFFFF" height="1065.1563" style="stroke:#181818;stroke-width:1.0;" width="10" x="810.5" y="208.7031"/><rect fill="#FFFFFF" height="162.125" style="stroke:#181818;stroke-width:1.0;" width="10" x="1281.5" y="245.9844"/><rect fill="#FFFFFF" height="162.125" style="stroke:#181818;stroke-width:1.0;" width="10" x="1602" y="445.3906"/><rect fill="#FFFFFF" height="145.4063" style="stroke:#181818;stroke-width:1.0;" width="10" x="1892" y="685.3594"/><rect fill="#FFFFFF" height="162.125" style="stroke:#181818;stroke-width:1.0;" width="10" x="2706" y="875.0469"/><rect fill="#FFFFFF" height="162.125" style="stroke:#181818;stroke-width:1.0;" width="10" x="2971.5" y="1074.4531"/><rect fill="#FFFFFF" height="87.5625" style="stroke:#181818;stroke-width:1.0;" width="10" x="3373.5" y="1111.7344"/><rect fill="#FFFFFF" height="87.5625" style="stroke:#181818;stroke-width:1.0;" width="10" x="3932.5" y="283.2656"/><rect fill="#FFFFFF" height="87.5625" style="stroke:#181818;stroke-width:1.0;" width="10" x="3932.5" y="482.6719"/><rect fill="#FFFFFF" height="87.5625" style="stroke:#181818;stroke-width:1.0;" width="10" x="3932.5" y="912.3281"/><polygon fill="#000000" points="396.5,167.4219,406.5,171.4219,396.5,175.4219,400.5,171.4219" style="stroke:#000000;stroke-width:1.0;"/><line style="stroke:#000000;stroke-width:1.0;" x1="63.5" x2="402.5" y1="171.4219" y2="171.4219"/><text fill="#000000" font-family="sans-serif" font-size="20" lengthAdjust="spacing" textLength="254" x="70.5" y="164.7051">Request to run Test Suite</text><polygon fill="#000000" points="798.5,204.7031,808.5,208.7031,798.5,212.7031,802.5,208.7031" style="stroke:#000000;stroke-width:1.0;"/><line style="stroke:#000000;stroke-width:1.0;" x1="418.5" x2="804.5" y1="208.7031" y2="208.7031"/><text fill="#000000" font-family="sans-serif" font-size="20" lengthAdjust="spacing" textLength="257" x="425.5" y="201.9863">runTestSuite(TestSuiteId)</text><polygon fill="#000000" points="1269.5,241.9844,1279.5,245.9844,1269.5,249.9844,1273.5,245.9844" style="stroke:#000000;stroke-width:1.0;"/><line style="stroke:#000000;stroke-width:1.0;" x1="820.5" x2="1275.5" y1="245.9844" y2="245.9844"/><text fill="#000000" font-family="sans-serif" font-size="20" lengthAdjust="spacing" textLength="442" x="827.5" y="239.2676">findLatestVersionByTestSuiteId(TestSuiteId)</text><polygon fill="#000000" points="3920.5,279.2656,3930.5,283.2656,3920.5,287.2656,3924.5,283.2656" style="stroke:#000000;stroke-width:1.0;"/><line style="stroke:#000000;stroke-width:1.0;" x1="1291.5" x2="3926.5" y1="283.2656" y2="283.2656"/><text fill="#000000" font-family="sans-serif" font-size="20" lengthAdjust="spacing" textLength="517" x="1298.5" y="276.5488">Query to find latest TestSuiteVersion by TestSuiteId</text><line style="stroke:#000000;stroke-width:1.0;stroke-dasharray:2.0,2.0;" x1="3942.5" x2="3984.5" y1="320.5469" y2="320.5469"/><line style="stroke:#000000;stroke-width:1.0;stroke-dasharray:2.0,2.0;" x1="3984.5" x2="3984.5" y1="320.5469" y2="333.5469"/><line style="stroke:#000000;stroke-width:1.0;stroke-dasharray:2.0,2.0;" x1="3943.5" x2="3984.5" y1="333.5469" y2="333.5469"/><polygon fill="#000000" points="3953.5,329.5469,3943.5,333.5469,3953.5,337.5469,3949.5,333.5469" style="stroke:#000000;stroke-width:1.0;"/><text fill="#000000" font-family="sans-serif" font-size="20" lengthAdjust="spacing" textLength="310" x="3949.5" y="313.8301">Finds latest TestSuiteVersionId</text><polygon fill="#000000" points="1302.5,366.8281,1292.5,370.8281,1302.5,374.8281,1298.5,370.8281" style="stroke:#000000;stroke-width:1.0;"/><line style="stroke:#000000;stroke-width:1.0;stroke-dasharray:2.0,2.0;" x1="1296.5" x2="3936.5" y1="370.8281" y2="370.8281"/><text fill="#000000" font-family="sans-serif" font-size="20" lengthAdjust="spacing" textLength="328" x="1308.5" y="364.1113">returns latest TestSuiteVersionId</text><polygon fill="#000000" points="831.5,404.1094,821.5,408.1094,831.5,412.1094,827.5,408.1094" style="stroke:#000000;stroke-width:1.0;"/><line style="stroke:#000000;stroke-width:1.0;stroke-dasharray:2.0,2.0;" x1="825.5" x2="1285.5" y1="408.1094" y2="408.1094"/><text fill="#000000" font-family="sans-serif" font-size="20" lengthAdjust="spacing" textLength="328" x="837.5" y="401.3926">returns latest TestSuiteVersionId</text><polygon fill="#000000" points="1590,441.3906,1600,445.3906,1590,449.3906,1594,445.3906" style="stroke:#000000;stroke-width:1.0;"/><line style="stroke:#000000;stroke-width:1.0;" x1="820.5" x2="1596" y1="445.3906" y2="445.3906"/><text fill="#000000" font-family="sans-serif" font-size="20" lengthAdjust="spacing" textLength="482" x="827.5" y="438.6738">findAllByTestSuiteVersionId(TestSuiteVersionId)</text><polygon fill="#000000" points="3920.5,478.6719,3930.5,482.6719,3920.5,486.6719,3924.5,482.6719" style="stroke:#000000;stroke-width:1.0;"/><line style="stroke:#000000;stroke-width:1.0;" x1="1612" x2="3926.5" y1="482.6719" y2="482.6719"/><text fill="#000000" font-family="sans-serif" font-size="20" lengthAdjust="spacing" textLength="486" x="1619" y="475.9551">Query to find all TestPlans by TestSuiteVersionId</text><line style="stroke:#000000;stroke-width:1.0;stroke-dasharray:2.0,2.0;" x1="3942.5" x2="3984.5" y1="519.9531" y2="519.9531"/><line style="stroke:#000000;stroke-width:1.0;stroke-dasharray:2.0,2.0;" x1="3984.5" x2="3984.5" y1="519.9531" y2="532.9531"/><line style="stroke:#000000;stroke-width:1.0;stroke-dasharray:2.0,2.0;" x1="3943.5" x2="3984.5" y1="532.9531" y2="532.9531"/><polygon fill="#000000" points="3953.5,528.9531,3943.5,532.9531,3953.5,536.9531,3949.5,532.9531" style="stroke:#000000;stroke-width:1.0;"/><text fill="#000000" font-family="sans-serif" font-size="20" lengthAdjust="spacing" textLength="185" x="3949.5" y="513.2363">Finds all TestPlans</text><polygon fill="#000000" points="1623,566.2344,1613,570.2344,1623,574.2344,1619,570.2344" style="stroke:#000000;stroke-width:1.0;"/><line style="stroke:#000000;stroke-width:1.0;stroke-dasharray:2.0,2.0;" x1="1617" x2="3936.5" y1="570.2344" y2="570.2344"/><text fill="#000000" font-family="sans-serif" font-size="20" lengthAdjust="spacing" textLength="173" x="1629" y="563.5176">returns TestPlans</text><polygon fill="#000000" points="831.5,603.5156,821.5,607.5156,831.5,611.5156,827.5,607.5156" style="stroke:#000000;stroke-width:1.0;"/><line style="stroke:#000000;stroke-width:1.0;stroke-dasharray:2.0,2.0;" x1="825.5" x2="1606" y1="607.5156" y2="607.5156"/><text fill="#000000" font-family="sans-serif" font-size="20" lengthAdjust="spacing" textLength="173" x="837.5" y="600.7988">returns TestPlans</text><path d="M715,622.5156 L809,622.5156 L809,637.7969 L799,647.7969 L715,647.7969 L715,622.5156 " fill="#EEEEEE" style="stroke:#000000;stroke-width:1.5;"/><rect fill="none" height="216.25" style="stroke:#000000;stroke-width:1.5;" width="1306" x="715" y="622.5156"/><text fill="#000000" font-family="sans-serif" font-size="20" font-weight="bold" lengthAdjust="spacing" textLength="49" x="730" y="642.0801">loop</text><text fill="#000000" font-family="sans-serif" font-size="20" font-weight="bold" lengthAdjust="spacing" textLength="231" x="824" y="643.0801">[For each Test Plan]</text><polygon fill="#000000" points="1880,681.3594,1890,685.3594,1880,689.3594,1884,685.3594" style="stroke:#000000;stroke-width:1.0;"/><line style="stroke:#000000;stroke-width:1.0;" x1="820.5" x2="1886" y1="685.3594" y2="685.3594"/><text fill="#000000" font-family="sans-serif" font-size="20" lengthAdjust="spacing" textLength="276" x="827.5" y="678.6426">runTestExecution(TestPlan)</text><rect fill="none" height="103.125" style="stroke:#000000;stroke-width:1.5;" width="810" x="1780" y="693.3594"/><path d="M1780,693.3594 L1858,693.3594 L1858,708.3594 L1848,718.3594 L1780,718.3594 L1780,693.3594 " fill="#EEEEEE" style="stroke:#000000;stroke-width:2.0;"/><text fill="#000000" font-family="sans-serif" font-size="20" font-weight="bold" lengthAdjust="spacing" textLength="33" x="1793" y="713.9238">ref</text><text fill="#000000" font-family="sans-serif" font-size="20" lengthAdjust="spacing" textLength="802" x="1784" y="740.9238">"See Test Plan Execution Part 1" at [../UC04/L3-PV-UC04-MelmacBE-Part1.puml]</text><text fill="#000000" font-family="sans-serif" font-size="20" lengthAdjust="spacing" textLength="802" x="1784" y="764.2051">"See Test Plan Execution Part 2" at [../UC04/L3-PV-UC04-MelmacBE-Part2.puml]</text><text fill="#000000" font-family="sans-serif" font-size="20" lengthAdjust="spacing" textLength="747" x="1811.5" y="787.4863">"See DriverRunner Execution" at [../UC04/L3-PV-UC04-DriverRunner.puml]</text><polygon fill="#000000" points="831.5,826.7656,821.5,830.7656,831.5,834.7656,827.5,830.7656" style="stroke:#000000;stroke-width:1.0;"/><line style="stroke:#000000;stroke-width:1.0;stroke-dasharray:2.0,2.0;" x1="825.5" x2="1896" y1="830.7656" y2="830.7656"/><text fill="#000000" font-family="sans-serif" font-size="20" lengthAdjust="spacing" textLength="353" x="837.5" y="824.0488">returns Test Plan Execution Results</text><polygon fill="#000000" points="2694,871.0469,2704,875.0469,2694,879.0469,2698,875.0469" style="stroke:#000000;stroke-width:1.0;"/><line style="stroke:#000000;stroke-width:1.0;" x1="820.5" x2="2700" y1="875.0469" y2="875.0469"/><text fill="#000000" font-family="sans-serif" font-size="20" lengthAdjust="spacing" textLength="212" x="827.5" y="868.3301">save(SuiteExecution)</text><polygon fill="#000000" points="3920.5,908.3281,3930.5,912.3281,3920.5,916.3281,3924.5,912.3281" style="stroke:#000000;stroke-width:1.0;"/><line style="stroke:#000000;stroke-width:1.0;" x1="2716" x2="3926.5" y1="912.3281" y2="912.3281"/><text fill="#000000" font-family="sans-serif" font-size="20" lengthAdjust="spacing" textLength="294" x="2723" y="905.6113">Query to save SuiteExecution</text><line style="stroke:#000000;stroke-width:1.0;stroke-dasharray:2.0,2.0;" x1="3942.5" x2="3984.5" y1="949.6094" y2="949.6094"/><line style="stroke:#000000;stroke-width:1.0;stroke-dasharray:2.0,2.0;" x1="3984.5" x2="3984.5" y1="949.6094" y2="962.6094"/><line style="stroke:#000000;stroke-width:1.0;stroke-dasharray:2.0,2.0;" x1="3943.5" x2="3984.5" y1="962.6094" y2="962.6094"/><polygon fill="#000000" points="3953.5,958.6094,3943.5,962.6094,3953.5,966.6094,3949.5,962.6094" style="stroke:#000000;stroke-width:1.0;"/><text fill="#000000" font-family="sans-serif" font-size="20" lengthAdjust="spacing" textLength="215" x="3949.5" y="942.8926">Saves SuiteExecution</text><polygon fill="#000000" points="2727,995.8906,2717,999.8906,2727,1003.8906,2723,999.8906" style="stroke:#000000;stroke-width:1.0;"/><line style="stroke:#000000;stroke-width:1.0;stroke-dasharray:2.0,2.0;" x1="2721" x2="3936.5" y1="999.8906" y2="999.8906"/><text fill="#000000" font-family="sans-serif" font-size="20" lengthAdjust="spacing" textLength="293" x="2733" y="993.1738">returns saved SuiteExecution</text><polygon fill="#000000" points="831.5,1033.1719,821.5,1037.1719,831.5,1041.1719,827.5,1037.1719" style="stroke:#000000;stroke-width:1.0;"/><line style="stroke:#000000;stroke-width:1.0;stroke-dasharray:2.0,2.0;" x1="825.5" x2="2710" y1="1037.1719" y2="1037.1719"/><text fill="#000000" font-family="sans-serif" font-size="20" lengthAdjust="spacing" textLength="293" x="837.5" y="1030.4551">returns saved SuiteExecution</text><polygon fill="#000000" points="2959.5,1070.4531,2969.5,1074.4531,2959.5,1078.4531,2963.5,1074.4531" style="stroke:#000000;stroke-width:1.0;"/><line style="stroke:#000000;stroke-width:1.0;" x1="820.5" x2="2965.5" y1="1074.4531" y2="1074.4531"/><text fill="#000000" font-family="sans-serif" font-size="20" lengthAdjust="spacing" textLength="230" x="827.5" y="1067.7363">toDTO(SuiteExecution)</text><polygon fill="#000000" points="3361.5,1107.7344,3371.5,1111.7344,3361.5,1115.7344,3365.5,1111.7344" style="stroke:#000000;stroke-width:1.0;"/><line style="stroke:#000000;stroke-width:1.0;" x1="2981.5" x2="3367.5" y1="1111.7344" y2="1111.7344"/><text fill="#000000" font-family="sans-serif" font-size="20" lengthAdjust="spacing" textLength="212" x="2988.5" y="1105.0176">map(SuiteExecution)</text><line style="stroke:#000000;stroke-width:1.0;stroke-dasharray:2.0,2.0;" x1="3383.5" x2="3425.5" y1="1149.0156" y2="1149.0156"/><line style="stroke:#000000;stroke-width:1.0;stroke-dasharray:2.0,2.0;" x1="3425.5" x2="3425.5" y1="1149.0156" y2="1162.0156"/><line style="stroke:#000000;stroke-width:1.0;stroke-dasharray:2.0,2.0;" x1="3384.5" x2="3425.5" y1="1162.0156" y2="1162.0156"/><polygon fill="#000000" points="3394.5,1158.0156,3384.5,1162.0156,3394.5,1166.0156,3390.5,1162.0156" style="stroke:#000000;stroke-width:1.0;"/><text fill="#000000" font-family="sans-serif" font-size="20" lengthAdjust="spacing" textLength="535" x="3390.5" y="1142.2988">Validates and initializes SuiteExecutionResponseDTO</text><polygon fill="#000000" points="2992.5,1195.2969,2982.5,1199.2969,2992.5,1203.2969,2988.5,1199.2969" style="stroke:#000000;stroke-width:1.0;"/><line style="stroke:#000000;stroke-width:1.0;stroke-dasharray:2.0,2.0;" x1="2986.5" x2="3377.5" y1="1199.2969" y2="1199.2969"/><text fill="#000000" font-family="sans-serif" font-size="20" lengthAdjust="spacing" textLength="368" x="2998.5" y="1192.5801">returns SuiteExecutionResponseDTO</text><polygon fill="#000000" points="831.5,1232.5781,821.5,1236.5781,831.5,1240.5781,827.5,1236.5781" style="stroke:#000000;stroke-width:1.0;"/><line style="stroke:#000000;stroke-width:1.0;stroke-dasharray:2.0,2.0;" x1="825.5" x2="2975.5" y1="1236.5781" y2="1236.5781"/><text fill="#000000" font-family="sans-serif" font-size="20" lengthAdjust="spacing" textLength="368" x="837.5" y="1229.8613">returns SuiteExecutionResponseDTO</text><polygon fill="#000000" points="429.5,1269.8594,419.5,1273.8594,429.5,1277.8594,425.5,1273.8594" style="stroke:#000000;stroke-width:1.0;"/><line style="stroke:#000000;stroke-width:1.0;" x1="423.5" x2="814.5" y1="1273.8594" y2="1273.8594"/><text fill="#000000" font-family="sans-serif" font-size="20" lengthAdjust="spacing" textLength="368" x="435.5" y="1267.1426">return(SuiteExecutionResponseDTO)</text><polygon fill="#000000" points="69.5,1307.1406,59.5,1311.1406,69.5,1315.1406,65.5,1311.1406" style="stroke:#000000;stroke-width:1.0;"/><line style="stroke:#000000;stroke-width:1.0;" x1="63.5" x2="412.5" y1="1311.1406" y2="1311.1406"/><text fill="#000000" font-family="sans-serif" font-size="20" lengthAdjust="spacing" textLength="321" x="75.5" y="1304.4238">Test Suite Execution Completed</text><!--SRC=[bPPDSzis48Rl_1KxpaK-oB6Tz4lZqOmfaZETSIPkbFhIzW2HS88Q95W0LAnq-jyBW5yB2dGKNGGk5W-nBx2xL4-igeaa9HVv4osWe8-auJeJbTwohnIkBwD8CyqftD4zvV06bl2XgU0ZLHgs3TCqYZwpWW8jQts0afOxAbKKgPuBEITAmRyHc5zCygTFKZHLiH5So9kRFU4DVR_xc-PwlOPNoO_fRVPps5KAuNoo98sJox2FedBFSkfGLzbr6eVS32BDVab_SdEtKeelhJdcnY_w3- -zDXRoYOPt3w_IEFiXY-qIacjZIAn4egOIY88aYdRY6SvkRZP6JC8gOrvitfwRpRsZl2Hvd9uvh7cLPZchIQLxRoauftAz_hEoEZkPH_EPfO-F8SQsrm41EfjRtOr3Ip_GMYXceZbugn_CgJ9HZRCjnqvPs_UJxZcPqj0xJWWgVQPveuq_3Ymq4M8beZGdOb5kJyEICQh1zEtGVFz9K9uzn7f7whezQv_Jsdr6Qmi6zF5zQ2kg5fMYPj9nq7D4gmBC_OmcdFHPKraHRc49qMH7LAji4hjRplP4KtEt4rYkqILS6VO_ZQq9Me3qwyEm2jtPSMWvtK6jxChXdYo6qQ_5-GZf3xNxTylxMxY2HrOLTyPDwUuonGU4cKCEjtWOMMmIh-2tXig3ZSc2WJioJAyox0w0o4YcE4fYM7Qip23K7CCiwrnHD9BgHbOlhIaeVXdQlgVgzs2G6AF2A3DRZMyvHyeEeCMn2UcCynkDmreJpjrERPrGdiBZjbyKsWFqqruWlIwZbo-djyUGeC65E4ekH0sPwGnc-dER4zRV9J2IDrIrXcGO9XRzwyxT-k65ipLFqaSGUvDYinxsTxQbTDpQM6lWtbG6k3B9h-6FYulNlsyktxw-UxEyVrZQuR9lOalhTtLHDoN_wqJezMdGwn0qaSo4P3v1R3_5TJiCnEu8PwkVaSUDG-hCd_Sq85DJpVUISYHq2u9GzxEL5-UMro1MeCYUBlmoZbB8xoRUqr4QMTAqbyrapDQu7lMzRdwolruBIo-cI_pycMmlfEYtA7wy8TNQbhWo0PkkTe9mNGkTF5iaweuhA4az3yDz58rTY1xbWN1MsAeBn5muLZ7DZENhaTOl0OyYxRMRHo01iVaevj29d4ITgeaE1dyJjCp5BFBSQpnTNV8_3P8L-fH0QRSHPSsffbxlGXyO-2P6_mC0]--></g></svg>