<?xml version="1.0" encoding="UTF-8" standalone="no"?><svg xmlns="http://www.w3.org/2000/svg" xmlns:xlink="http://www.w3.org/1999/xlink" contentStyleType="text/css" height="682px" preserveAspectRatio="none" style="width:1353px;height:682px;background:#FFFFFF;" version="1.1" viewBox="0 0 1353 682" width="1353px" zoomAndPan="magnify"><defs/><g><text fill="#000000" font-family="sans-serif" font-size="14" font-weight="bold" lengthAdjust="spacing" textLength="211" x="573.25" y="27.9951">Level 1 - Create Test Suite</text><rect fill="#FFFFFF" height="450.0938" style="stroke:#181818;stroke-width:1.0;" width="10" x="53.5" y="135.5781"/><rect fill="#FFFFFF" height="411.8125" style="stroke:#181818;stroke-width:1.0;" width="10" x="441.5" y="164.8594"/><rect fill="#FFFFFF" height="87.5625" style="stroke:#181818;stroke-width:1.0;" width="10" x="999.5" y="202.1406"/><rect fill="#FFFFFF" height="87.5625" style="stroke:#181818;stroke-width:1.0;" width="10" x="999.5" y="326.9844"/><rect fill="#FFFFFF" height="87.5625" style="stroke:#181818;stroke-width:1.0;" width="10" x="999.5" y="451.8281"/><line style="stroke:#181818;stroke-width:0.5;stroke-dasharray:5.0,5.0;" x1="58" x2="58" y1="125.5781" y2="594.6719"/><line style="stroke:#181818;stroke-width:0.5;stroke-dasharray:5.0,5.0;" x1="446.5" x2="446.5" y1="125.5781" y2="594.6719"/><line style="stroke:#181818;stroke-width:0.5;stroke-dasharray:5.0,5.0;" x1="1004" x2="1004" y1="125.5781" y2="594.6719"/><text fill="#000000" font-family="sans-serif" font-size="20" lengthAdjust="spacing" textLength="101" x="5" y="120.8613">Developer</text><ellipse cx="58.5" cy="50.7969" fill="#E2E2F0" rx="8" ry="8" style="stroke:#181818;stroke-width:0.5;"/><path d="M58.5,58.7969 L58.5,85.7969 M45.5,66.7969 L71.5,66.7969 M58.5,85.7969 L45.5,100.7969 M58.5,85.7969 L71.5,100.7969 " fill="none" style="stroke:#181818;stroke-width:0.5;"/><text fill="#000000" font-family="sans-serif" font-size="20" lengthAdjust="spacing" textLength="101" x="5" y="612.2363">Developer</text><ellipse cx="58.5" cy="625.4531" fill="#E2E2F0" rx="8" ry="8" style="stroke:#181818;stroke-width:0.5;"/><path d="M58.5,633.4531 L58.5,660.4531 M45.5,641.4531 L71.5,641.4531 M58.5,660.4531 L45.5,675.4531 M58.5,660.4531 L71.5,675.4531 " fill="none" style="stroke:#181818;stroke-width:0.5;"/><rect fill="#E2E2F0" height="37.2813" rx="2.5" ry="2.5" style="stroke:#181818;stroke-width:0.5;" width="88" x="402.5" y="87.2969"/><text fill="#000000" font-family="sans-serif" font-size="20" lengthAdjust="spacing" textLength="74" x="409.5" y="112.8613">System</text><rect fill="#E2E2F0" height="37.2813" rx="2.5" ry="2.5" style="stroke:#181818;stroke-width:0.5;" width="88" x="402.5" y="593.6719"/><text fill="#000000" font-family="sans-serif" font-size="20" lengthAdjust="spacing" textLength="74" x="409.5" y="619.2363">System</text><rect fill="#E2E2F0" height="60.5625" rx="2.5" ry="2.5" style="stroke:#181818;stroke-width:0.5;" width="121" x="944" y="64.0156"/><text fill="#000000" font-family="sans-serif" font-size="20" lengthAdjust="spacing" textLength="107" x="951" y="89.5801">«External»</text><text fill="#000000" font-family="sans-serif" font-size="20" lengthAdjust="spacing" textLength="94" x="957.5" y="112.8613">Database</text><rect fill="#E2E2F0" height="60.5625" rx="2.5" ry="2.5" style="stroke:#181818;stroke-width:0.5;" width="121" x="944" y="593.6719"/><text fill="#000000" font-family="sans-serif" font-size="20" lengthAdjust="spacing" textLength="107" x="951" y="619.2363">«External»</text><text fill="#000000" font-family="sans-serif" font-size="20" lengthAdjust="spacing" textLength="94" x="957.5" y="642.5176">Database</text><rect fill="#FFFFFF" height="450.0938" style="stroke:#181818;stroke-width:1.0;" width="10" x="53.5" y="135.5781"/><rect fill="#FFFFFF" height="411.8125" style="stroke:#181818;stroke-width:1.0;" width="10" x="441.5" y="164.8594"/><rect fill="#FFFFFF" height="87.5625" style="stroke:#181818;stroke-width:1.0;" width="10" x="999.5" y="202.1406"/><rect fill="#FFFFFF" height="87.5625" style="stroke:#181818;stroke-width:1.0;" width="10" x="999.5" y="326.9844"/><rect fill="#FFFFFF" height="87.5625" style="stroke:#181818;stroke-width:1.0;" width="10" x="999.5" y="451.8281"/><polygon fill="#000000" points="429.5,160.8594,439.5,164.8594,429.5,168.8594,433.5,164.8594" style="stroke:#000000;stroke-width:1.0;"/><line style="stroke:#000000;stroke-width:1.0;" x1="63.5" x2="435.5" y1="164.8594" y2="164.8594"/><text fill="#000000" font-family="sans-serif" font-size="20" lengthAdjust="spacing" textLength="359" x="70.5" y="158.1426">Requests to create a new Test Suite</text><polygon fill="#000000" points="987.5,198.1406,997.5,202.1406,987.5,206.1406,991.5,202.1406" style="stroke:#000000;stroke-width:1.0;"/><line style="stroke:#000000;stroke-width:1.0;" x1="451.5" x2="993.5" y1="202.1406" y2="202.1406"/><text fill="#000000" font-family="sans-serif" font-size="20" lengthAdjust="spacing" textLength="229" x="458.5" y="195.4238">Asks to save Test Suite</text><line style="stroke:#000000;stroke-width:1.0;stroke-dasharray:2.0,2.0;" x1="1009.5" x2="1051.5" y1="239.4219" y2="239.4219"/><line style="stroke:#000000;stroke-width:1.0;stroke-dasharray:2.0,2.0;" x1="1051.5" x2="1051.5" y1="239.4219" y2="252.4219"/><line style="stroke:#000000;stroke-width:1.0;stroke-dasharray:2.0,2.0;" x1="1010.5" x2="1051.5" y1="252.4219" y2="252.4219"/><polygon fill="#000000" points="1020.5,248.4219,1010.5,252.4219,1020.5,256.4219,1016.5,252.4219" style="stroke:#000000;stroke-width:1.0;"/><text fill="#000000" font-family="sans-serif" font-size="20" lengthAdjust="spacing" textLength="164" x="1016.5" y="232.7051">Saves Test Suite</text><polygon fill="#000000" points="462.5,285.7031,452.5,289.7031,462.5,293.7031,458.5,289.7031" style="stroke:#000000;stroke-width:1.0;"/><line style="stroke:#000000;stroke-width:1.0;stroke-dasharray:2.0,2.0;" x1="456.5" x2="1003.5" y1="289.7031" y2="289.7031"/><text fill="#000000" font-family="sans-serif" font-size="20" lengthAdjust="spacing" textLength="275" x="468.5" y="282.9863">Returns saved Test Suite ID</text><polygon fill="#000000" points="987.5,322.9844,997.5,326.9844,987.5,330.9844,991.5,326.9844" style="stroke:#000000;stroke-width:1.0;"/><line style="stroke:#000000;stroke-width:1.0;" x1="451.5" x2="993.5" y1="326.9844" y2="326.9844"/><text fill="#000000" font-family="sans-serif" font-size="20" lengthAdjust="spacing" textLength="529" x="458.5" y="320.2676">Asks to find latest Test Suite Version by Test Suite ID</text><line style="stroke:#000000;stroke-width:1.0;stroke-dasharray:2.0,2.0;" x1="1009.5" x2="1051.5" y1="364.2656" y2="364.2656"/><line style="stroke:#000000;stroke-width:1.0;stroke-dasharray:2.0,2.0;" x1="1051.5" x2="1051.5" y1="364.2656" y2="377.2656"/><line style="stroke:#000000;stroke-width:1.0;stroke-dasharray:2.0,2.0;" x1="1010.5" x2="1051.5" y1="377.2656" y2="377.2656"/><polygon fill="#000000" points="1020.5,373.2656,1010.5,377.2656,1020.5,381.2656,1016.5,377.2656" style="stroke:#000000;stroke-width:1.0;"/><text fill="#000000" font-family="sans-serif" font-size="20" lengthAdjust="spacing" textLength="330" x="1016.5" y="357.5488">Finds latest Test Suite Version ID</text><polygon fill="#000000" points="462.5,410.5469,452.5,414.5469,462.5,418.5469,458.5,414.5469" style="stroke:#000000;stroke-width:1.0;"/><line style="stroke:#000000;stroke-width:1.0;stroke-dasharray:2.0,2.0;" x1="456.5" x2="1003.5" y1="414.5469" y2="414.5469"/><text fill="#000000" font-family="sans-serif" font-size="20" lengthAdjust="spacing" textLength="354" x="468.5" y="407.8301">Returns latest Test Suite Version ID</text><polygon fill="#000000" points="987.5,447.8281,997.5,451.8281,987.5,455.8281,991.5,451.8281" style="stroke:#000000;stroke-width:1.0;"/><line style="stroke:#000000;stroke-width:1.0;" x1="451.5" x2="993.5" y1="451.8281" y2="451.8281"/><text fill="#000000" font-family="sans-serif" font-size="20" lengthAdjust="spacing" textLength="310" x="458.5" y="445.1113">Asks to save Test Suite Version</text><line style="stroke:#000000;stroke-width:1.0;stroke-dasharray:2.0,2.0;" x1="1009.5" x2="1051.5" y1="489.1094" y2="489.1094"/><line style="stroke:#000000;stroke-width:1.0;stroke-dasharray:2.0,2.0;" x1="1051.5" x2="1051.5" y1="489.1094" y2="502.1094"/><line style="stroke:#000000;stroke-width:1.0;stroke-dasharray:2.0,2.0;" x1="1010.5" x2="1051.5" y1="502.1094" y2="502.1094"/><polygon fill="#000000" points="1020.5,498.1094,1010.5,502.1094,1020.5,506.1094,1016.5,502.1094" style="stroke:#000000;stroke-width:1.0;"/><text fill="#000000" font-family="sans-serif" font-size="20" lengthAdjust="spacing" textLength="245" x="1016.5" y="482.3926">Saves Test Suite Version</text><polygon fill="#000000" points="462.5,535.3906,452.5,539.3906,462.5,543.3906,458.5,539.3906" style="stroke:#000000;stroke-width:1.0;"/><line style="stroke:#000000;stroke-width:1.0;stroke-dasharray:2.0,2.0;" x1="456.5" x2="1003.5" y1="539.3906" y2="539.3906"/><text fill="#000000" font-family="sans-serif" font-size="20" lengthAdjust="spacing" textLength="356" x="468.5" y="532.6738">Returns saved Test Suite Version ID</text><polygon fill="#000000" points="74.5,572.6719,64.5,576.6719,74.5,580.6719,70.5,576.6719" style="stroke:#000000;stroke-width:1.0;"/><line style="stroke:#000000;stroke-width:1.0;stroke-dasharray:2.0,2.0;" x1="68.5" x2="445.5" y1="576.6719" y2="576.6719"/><text fill="#000000" font-family="sans-serif" font-size="20" lengthAdjust="spacing" textLength="309" x="80.5" y="569.9551">Confirms creation of Test Suite</text><!--SRC=[ZP9FJ-Cm4CNl_XGZE5S2f8MbgYBLTI8X8QsqNN7YCaschAbZ1uyJjgpuxZX_W2mAR7D9vFczDoypvfss5NeiZSjtL411MwnDo9mDQ_r4S7OYHD3145nJGmPEOGOhJnW8VX47MDSwa12_TK50PHNsK5Av8Sz2yAirv0QPuQ-0-4ZCTtVUrRPOEUFyOj6WgUd7vfxoa2HmhCxJPVPz6lNETKocKgbEfXact-YSEglJx2oLKrYqIBFBzAAhBRrtZ_snD94Jp-FiLJp1EvfE3yUfpBvbifLW7kA1QgVaAlA034g8Q19qhYkq0OxMUmvK7hMb_lFVycAH_WdaBPeakRKA0swGgSELx1hefXsy4WfcoM0nXv_qKCTLC0G7URyQ14kFumMzQOU-_QjrKN8EIzvrQiQ69bMnlP8m6_1rn7ZC3RNtGA7sbZkxOiJ1bH85ZKsdOsorBS1490f7wfjugxIpiDb_yFmaPXPj-0kVgFma-9UQG_xWmo1VvOSEz8q_TB3_ZTSsciFAsQts9VVNf1MuxNYF8-rmJru0]--></g></svg>