<?xml version="1.0" encoding="UTF-8" standalone="no"?><svg xmlns="http://www.w3.org/2000/svg" xmlns:xlink="http://www.w3.org/1999/xlink" contentStyleType="text/css" height="693px" preserveAspectRatio="none" style="width:1752px;height:693px;background:#FFFFFF;" version="1.1" viewBox="0 0 1752 693" width="1752px" zoomAndPan="magnify"><defs/><g><text fill="#000000" font-family="sans-serif" font-size="14" font-weight="bold" lengthAdjust="spacing" textLength="211" x="772.75" y="27.9951">Level 2 - Create Test Suite</text><rect fill="#DDDDDD" height="644.2188" style="stroke:#181818;stroke-width:0.5;" width="592" x="350" y="43.2969"/><text fill="#000000" font-family="sans-serif" font-size="20" font-weight="bold" lengthAdjust="spacing" textLength="586" x="353" y="61.8613">«System» Melmac Performance Testing Framework</text><rect fill="#FFFFFF" height="450.0938" style="stroke:#181818;stroke-width:1.0;" width="10" x="53.5" y="142.1406"/><rect fill="#FFFFFF" height="411.8125" style="stroke:#181818;stroke-width:1.0;" width="10" x="641" y="171.4219"/><rect fill="#FFFFFF" height="87.5625" style="stroke:#181818;stroke-width:1.0;" width="10" x="1398.5" y="208.7031"/><rect fill="#FFFFFF" height="87.5625" style="stroke:#181818;stroke-width:1.0;" width="10" x="1398.5" y="333.5469"/><rect fill="#FFFFFF" height="87.5625" style="stroke:#181818;stroke-width:1.0;" width="10" x="1398.5" y="458.3906"/><line style="stroke:#181818;stroke-width:0.5;stroke-dasharray:5.0,5.0;" x1="58" x2="58" y1="132.1406" y2="601.2344"/><line style="stroke:#181818;stroke-width:0.5;stroke-dasharray:5.0,5.0;" x1="645.5" x2="645.5" y1="132.1406" y2="601.2344"/><line style="stroke:#181818;stroke-width:0.5;stroke-dasharray:5.0,5.0;" x1="1403" x2="1403" y1="132.1406" y2="601.2344"/><text fill="#000000" font-family="sans-serif" font-size="20" lengthAdjust="spacing" textLength="101" x="5" y="127.4238">Developer</text><ellipse cx="58.5" cy="57.3594" fill="#E2E2F0" rx="8" ry="8" style="stroke:#181818;stroke-width:0.5;"/><path d="M58.5,65.3594 L58.5,92.3594 M45.5,73.3594 L71.5,73.3594 M58.5,92.3594 L45.5,107.3594 M58.5,92.3594 L71.5,107.3594 " fill="none" style="stroke:#181818;stroke-width:0.5;"/><text fill="#000000" font-family="sans-serif" font-size="20" lengthAdjust="spacing" textLength="101" x="5" y="618.7988">Developer</text><ellipse cx="58.5" cy="632.0156" fill="#E2E2F0" rx="8" ry="8" style="stroke:#181818;stroke-width:0.5;"/><path d="M58.5,640.0156 L58.5,667.0156 M45.5,648.0156 L71.5,648.0156 M58.5,667.0156 L45.5,682.0156 M58.5,667.0156 L71.5,682.0156 " fill="none" style="stroke:#181818;stroke-width:0.5;"/><rect fill="#E2E2F0" height="60.5625" rx="2.5" ry="2.5" style="stroke:#181818;stroke-width:0.5;" width="185" x="553.5" y="70.5781"/><text fill="#000000" font-family="sans-serif" font-size="20" lengthAdjust="spacing" textLength="171" x="560.5" y="96.1426">«Container (C4)»</text><text fill="#000000" font-family="sans-serif" font-size="20" lengthAdjust="spacing" textLength="105" x="593.5" y="119.4238">MelmacBE</text><rect fill="#E2E2F0" height="60.5625" rx="2.5" ry="2.5" style="stroke:#181818;stroke-width:0.5;" width="185" x="553.5" y="600.2344"/><text fill="#000000" font-family="sans-serif" font-size="20" lengthAdjust="spacing" textLength="171" x="560.5" y="625.7988">«Container (C4)»</text><text fill="#000000" font-family="sans-serif" font-size="20" lengthAdjust="spacing" textLength="105" x="593.5" y="649.0801">MelmacBE</text><rect fill="#E2E2F0" height="60.5625" rx="2.5" ry="2.5" style="stroke:#181818;stroke-width:0.5;" width="121" x="1343" y="70.5781"/><text fill="#000000" font-family="sans-serif" font-size="20" lengthAdjust="spacing" textLength="107" x="1350" y="96.1426">«External»</text><text fill="#000000" font-family="sans-serif" font-size="20" lengthAdjust="spacing" textLength="94" x="1356.5" y="119.4238">Database</text><rect fill="#E2E2F0" height="60.5625" rx="2.5" ry="2.5" style="stroke:#181818;stroke-width:0.5;" width="121" x="1343" y="600.2344"/><text fill="#000000" font-family="sans-serif" font-size="20" lengthAdjust="spacing" textLength="107" x="1350" y="625.7988">«External»</text><text fill="#000000" font-family="sans-serif" font-size="20" lengthAdjust="spacing" textLength="94" x="1356.5" y="649.0801">Database</text><rect fill="#FFFFFF" height="450.0938" style="stroke:#181818;stroke-width:1.0;" width="10" x="53.5" y="142.1406"/><rect fill="#FFFFFF" height="411.8125" style="stroke:#181818;stroke-width:1.0;" width="10" x="641" y="171.4219"/><rect fill="#FFFFFF" height="87.5625" style="stroke:#181818;stroke-width:1.0;" width="10" x="1398.5" y="208.7031"/><rect fill="#FFFFFF" height="87.5625" style="stroke:#181818;stroke-width:1.0;" width="10" x="1398.5" y="333.5469"/><rect fill="#FFFFFF" height="87.5625" style="stroke:#181818;stroke-width:1.0;" width="10" x="1398.5" y="458.3906"/><polygon fill="#000000" points="629,167.4219,639,171.4219,629,175.4219,633,171.4219" style="stroke:#000000;stroke-width:1.0;"/><line style="stroke:#000000;stroke-width:1.0;" x1="63.5" x2="635" y1="171.4219" y2="171.4219"/><text fill="#000000" font-family="sans-serif" font-size="20" lengthAdjust="spacing" textLength="359" x="70.5" y="164.7051">Requests to create a new Test Suite</text><polygon fill="#000000" points="1386.5,204.7031,1396.5,208.7031,1386.5,212.7031,1390.5,208.7031" style="stroke:#000000;stroke-width:1.0;"/><line style="stroke:#000000;stroke-width:1.0;" x1="651" x2="1392.5" y1="208.7031" y2="208.7031"/><text fill="#000000" font-family="sans-serif" font-size="20" lengthAdjust="spacing" textLength="229" x="658" y="201.9863">Asks to save Test Suite</text><line style="stroke:#000000;stroke-width:1.0;stroke-dasharray:2.0,2.0;" x1="1408.5" x2="1450.5" y1="245.9844" y2="245.9844"/><line style="stroke:#000000;stroke-width:1.0;stroke-dasharray:2.0,2.0;" x1="1450.5" x2="1450.5" y1="245.9844" y2="258.9844"/><line style="stroke:#000000;stroke-width:1.0;stroke-dasharray:2.0,2.0;" x1="1409.5" x2="1450.5" y1="258.9844" y2="258.9844"/><polygon fill="#000000" points="1419.5,254.9844,1409.5,258.9844,1419.5,262.9844,1415.5,258.9844" style="stroke:#000000;stroke-width:1.0;"/><text fill="#000000" font-family="sans-serif" font-size="20" lengthAdjust="spacing" textLength="164" x="1415.5" y="239.2676">Saves Test Suite</text><polygon fill="#000000" points="662,292.2656,652,296.2656,662,300.2656,658,296.2656" style="stroke:#000000;stroke-width:1.0;"/><line style="stroke:#000000;stroke-width:1.0;stroke-dasharray:2.0,2.0;" x1="656" x2="1402.5" y1="296.2656" y2="296.2656"/><text fill="#000000" font-family="sans-serif" font-size="20" lengthAdjust="spacing" textLength="275" x="668" y="289.5488">Returns saved Test Suite ID</text><polygon fill="#000000" points="1386.5,329.5469,1396.5,333.5469,1386.5,337.5469,1390.5,333.5469" style="stroke:#000000;stroke-width:1.0;"/><line style="stroke:#000000;stroke-width:1.0;" x1="651" x2="1392.5" y1="333.5469" y2="333.5469"/><text fill="#000000" font-family="sans-serif" font-size="20" lengthAdjust="spacing" textLength="529" x="658" y="326.8301">Asks to find latest Test Suite Version by Test Suite ID</text><line style="stroke:#000000;stroke-width:1.0;stroke-dasharray:2.0,2.0;" x1="1408.5" x2="1450.5" y1="370.8281" y2="370.8281"/><line style="stroke:#000000;stroke-width:1.0;stroke-dasharray:2.0,2.0;" x1="1450.5" x2="1450.5" y1="370.8281" y2="383.8281"/><line style="stroke:#000000;stroke-width:1.0;stroke-dasharray:2.0,2.0;" x1="1409.5" x2="1450.5" y1="383.8281" y2="383.8281"/><polygon fill="#000000" points="1419.5,379.8281,1409.5,383.8281,1419.5,387.8281,1415.5,383.8281" style="stroke:#000000;stroke-width:1.0;"/><text fill="#000000" font-family="sans-serif" font-size="20" lengthAdjust="spacing" textLength="330" x="1415.5" y="364.1113">Finds latest Test Suite Version ID</text><polygon fill="#000000" points="662,417.1094,652,421.1094,662,425.1094,658,421.1094" style="stroke:#000000;stroke-width:1.0;"/><line style="stroke:#000000;stroke-width:1.0;stroke-dasharray:2.0,2.0;" x1="656" x2="1402.5" y1="421.1094" y2="421.1094"/><text fill="#000000" font-family="sans-serif" font-size="20" lengthAdjust="spacing" textLength="354" x="668" y="414.3926">Returns latest Test Suite Version ID</text><polygon fill="#000000" points="1386.5,454.3906,1396.5,458.3906,1386.5,462.3906,1390.5,458.3906" style="stroke:#000000;stroke-width:1.0;"/><line style="stroke:#000000;stroke-width:1.0;" x1="651" x2="1392.5" y1="458.3906" y2="458.3906"/><text fill="#000000" font-family="sans-serif" font-size="20" lengthAdjust="spacing" textLength="310" x="658" y="451.6738">Asks to save Test Suite Version</text><line style="stroke:#000000;stroke-width:1.0;stroke-dasharray:2.0,2.0;" x1="1408.5" x2="1450.5" y1="495.6719" y2="495.6719"/><line style="stroke:#000000;stroke-width:1.0;stroke-dasharray:2.0,2.0;" x1="1450.5" x2="1450.5" y1="495.6719" y2="508.6719"/><line style="stroke:#000000;stroke-width:1.0;stroke-dasharray:2.0,2.0;" x1="1409.5" x2="1450.5" y1="508.6719" y2="508.6719"/><polygon fill="#000000" points="1419.5,504.6719,1409.5,508.6719,1419.5,512.6719,1415.5,508.6719" style="stroke:#000000;stroke-width:1.0;"/><text fill="#000000" font-family="sans-serif" font-size="20" lengthAdjust="spacing" textLength="245" x="1415.5" y="488.9551">Saves Test Suite Version</text><polygon fill="#000000" points="662,541.9531,652,545.9531,662,549.9531,658,545.9531" style="stroke:#000000;stroke-width:1.0;"/><line style="stroke:#000000;stroke-width:1.0;stroke-dasharray:2.0,2.0;" x1="656" x2="1402.5" y1="545.9531" y2="545.9531"/><text fill="#000000" font-family="sans-serif" font-size="20" lengthAdjust="spacing" textLength="356" x="668" y="539.2363">Returns saved Test Suite Version ID</text><polygon fill="#000000" points="74.5,579.2344,64.5,583.2344,74.5,587.2344,70.5,583.2344" style="stroke:#000000;stroke-width:1.0;"/><line style="stroke:#000000;stroke-width:1.0;stroke-dasharray:2.0,2.0;" x1="68.5" x2="645" y1="583.2344" y2="583.2344"/><text fill="#000000" font-family="sans-serif" font-size="20" lengthAdjust="spacing" textLength="309" x="80.5" y="576.5176">Confirms creation of Test Suite</text><!--SRC=[ZL9BZzCm4BxxLuow5pXKMYgULHMfhXC92GIYY1CNnvaK4ySEjfDkGVnt9idkAYhPxleu_bxwPaAbRIEzh8rJ5HPGO2bR4pDdurx_HbXTCnPrD0WVi4C3ArZ2pgEC25ynHDYtEY9ZFtI1W7KJJr1ZdQCFZ8KxQL16XW1_6D3ZKbK7xrfRx9nnVhFff6dnK_uJLKmIk1AlqstsTXxgdHimcKYvk9x71FITLZX8lSXMAP-3aKIQlKlV37zRxzrn77D3EFPtchsXYJpWV7guIddsAkCzHQf80z6tv1hq80C8nd9t0ulDPdyA4MiAzH5DBHLyHbywNqkhnXwrFK16TdXqlbh0u4N-KIlTI1jxYHsjH6fBoizsBvydoNSxQl5qqNlnbA4jeFTZPypq9gAtqlGS8QFCPS218_WGMtVzEWKJi4n8PmrVy5TBeG941sfSjWIBn-dAxtbapDEUAVWQjg4QM45sE8icIy5XUGlV4onCSRT_OuZOUXi6gMA2WVU25JWL_D- -r5I5eMyYJPZVw2wriv2VplGUY9UHJBYWGyoPm1VnZoK_A-wE-jG2x_5FAV9YhDvW3NHqfVPr6C-W1xjokgy9Z-xW7m00]--></g></svg>