<?xml version="1.0" encoding="UTF-8" standalone="no"?><svg xmlns="http://www.w3.org/2000/svg" xmlns:xlink="http://www.w3.org/1999/xlink" contentStyleType="text/css" height="1390px" preserveAspectRatio="none" style="width:3295px;height:1390px;background:#FFFFFF;" version="1.1" viewBox="0 0 3295 1390" width="3295px" zoomAndPan="magnify"><defs/><g><text fill="#000000" font-family="sans-serif" font-size="14" font-weight="bold" lengthAdjust="spacing" textLength="306" x="1496.5" y="27.9951">Level 3 - Create Test Suite (MelmacBE)</text><rect fill="#DDDDDD" height="1341.2813" style="stroke:#181818;stroke-width:0.5;" width="2583.5" x="316" y="43.2969"/><text fill="#000000" font-family="sans-serif" font-size="20" font-weight="bold" lengthAdjust="spacing" textLength="316" x="1449.75" y="61.8613">«Container (C4)» MelmacBE</text><rect fill="#FFFFFF" height="1138.1563" style="stroke:#181818;stroke-width:1.0;" width="10" x="53.5" y="142.1406"/><rect fill="#FFFFFF" height="1108.875" style="stroke:#181818;stroke-width:1.0;" width="10" x="418.5" y="171.4219"/><rect fill="#FFFFFF" height="1034.3125" style="stroke:#181818;stroke-width:1.0;" width="10" x="839.5" y="208.7031"/><rect fill="#FFFFFF" height="87.5625" style="stroke:#181818;stroke-width:1.0;" width="10" x="1166.5" y="245.9844"/><rect fill="#FFFFFF" height="162.125" style="stroke:#181818;stroke-width:1.0;" width="10" x="1529.5" y="370.8281"/><rect fill="#FFFFFF" height="162.125" style="stroke:#181818;stroke-width:1.0;" width="10" x="1529.5" y="570.2344"/><rect fill="#FFFFFF" height="87.5625" style="stroke:#181818;stroke-width:1.0;" width="10" x="1738" y="769.6406"/><rect fill="#FFFFFF" height="162.125" style="stroke:#181818;stroke-width:1.0;" width="10" x="2176" y="894.4844"/><rect fill="#FFFFFF" height="111.8438" style="stroke:#181818;stroke-width:1.0;" width="10" x="2422" y="1093.8906"/><rect fill="#FFFFFF" height="37.2813" style="stroke:#181818;stroke-width:1.0;" width="10" x="2767" y="1131.1719"/><rect fill="#FFFFFF" height="87.5625" style="stroke:#181818;stroke-width:1.0;" width="10" x="2961" y="408.1094"/><rect fill="#FFFFFF" height="87.5625" style="stroke:#181818;stroke-width:1.0;" width="10" x="2961" y="607.5156"/><rect fill="#FFFFFF" height="87.5625" style="stroke:#181818;stroke-width:1.0;" width="10" x="2961" y="931.7656"/><line style="stroke:#181818;stroke-width:0.5;stroke-dasharray:5.0,5.0;" x1="58" x2="58" y1="132.1406" y2="1298.2969"/><line style="stroke:#181818;stroke-width:0.5;stroke-dasharray:5.0,5.0;" x1="423" x2="423" y1="132.1406" y2="1298.2969"/><line style="stroke:#181818;stroke-width:0.5;stroke-dasharray:5.0,5.0;" x1="844" x2="844" y1="132.1406" y2="1298.2969"/><line style="stroke:#181818;stroke-width:0.5;stroke-dasharray:5.0,5.0;" x1="1171.5" x2="1171.5" y1="132.1406" y2="1298.2969"/><line style="stroke:#181818;stroke-width:0.5;stroke-dasharray:5.0,5.0;" x1="1534.5" x2="1534.5" y1="132.1406" y2="1298.2969"/><line style="stroke:#181818;stroke-width:0.5;stroke-dasharray:5.0,5.0;" x1="1742.5" x2="1742.5" y1="132.1406" y2="1298.2969"/><line style="stroke:#181818;stroke-width:0.5;stroke-dasharray:5.0,5.0;" x1="2180.5" x2="2180.5" y1="132.1406" y2="1298.2969"/><line style="stroke:#181818;stroke-width:0.5;stroke-dasharray:5.0,5.0;" x1="2426.5" x2="2426.5" y1="132.1406" y2="1298.2969"/><line style="stroke:#181818;stroke-width:0.5;stroke-dasharray:5.0,5.0;" x1="2771.5" x2="2771.5" y1="132.1406" y2="1298.2969"/><line style="stroke:#181818;stroke-width:0.5;stroke-dasharray:5.0,5.0;" x1="2965.5" x2="2965.5" y1="132.1406" y2="1298.2969"/><text fill="#000000" font-family="sans-serif" font-size="20" lengthAdjust="spacing" textLength="101" x="5" y="127.4238">Developer</text><ellipse cx="58.5" cy="57.3594" fill="#E2E2F0" rx="8" ry="8" style="stroke:#181818;stroke-width:0.5;"/><path d="M58.5,65.3594 L58.5,92.3594 M45.5,73.3594 L71.5,73.3594 M58.5,92.3594 L45.5,107.3594 M58.5,92.3594 L71.5,107.3594 " fill="none" style="stroke:#181818;stroke-width:0.5;"/><text fill="#000000" font-family="sans-serif" font-size="20" lengthAdjust="spacing" textLength="101" x="5" y="1315.8613">Developer</text><ellipse cx="58.5" cy="1329.0781" fill="#E2E2F0" rx="8" ry="8" style="stroke:#181818;stroke-width:0.5;"/><path d="M58.5,1337.0781 L58.5,1364.0781 M45.5,1345.0781 L71.5,1345.0781 M58.5,1364.0781 L45.5,1379.0781 M58.5,1364.0781 L71.5,1379.0781 " fill="none" style="stroke:#181818;stroke-width:0.5;"/><rect fill="#E2E2F0" height="60.5625" rx="2.5" ry="2.5" style="stroke:#181818;stroke-width:0.5;" width="207" x="320" y="70.5781"/><text fill="#000000" font-family="sans-serif" font-size="20" lengthAdjust="spacing" textLength="123" x="362" y="96.1426">«Controller»</text><text fill="#000000" font-family="sans-serif" font-size="20" lengthAdjust="spacing" textLength="193" x="327" y="119.4238">TestSuiteController</text><rect fill="#E2E2F0" height="60.5625" rx="2.5" ry="2.5" style="stroke:#181818;stroke-width:0.5;" width="207" x="320" y="1297.2969"/><text fill="#000000" font-family="sans-serif" font-size="20" lengthAdjust="spacing" textLength="123" x="362" y="1322.8613">«Controller»</text><text fill="#000000" font-family="sans-serif" font-size="20" lengthAdjust="spacing" textLength="193" x="327" y="1346.1426">TestSuiteController</text><rect fill="#E2E2F0" height="60.5625" rx="2.5" ry="2.5" style="stroke:#181818;stroke-width:0.5;" width="181" x="754" y="70.5781"/><text fill="#000000" font-family="sans-serif" font-size="20" lengthAdjust="spacing" textLength="97" x="796" y="96.1426">«Service»</text><text fill="#000000" font-family="sans-serif" font-size="20" lengthAdjust="spacing" textLength="167" x="761" y="119.4238">TestSuiteService</text><rect fill="#E2E2F0" height="60.5625" rx="2.5" ry="2.5" style="stroke:#181818;stroke-width:0.5;" width="181" x="754" y="1297.2969"/><text fill="#000000" font-family="sans-serif" font-size="20" lengthAdjust="spacing" textLength="97" x="796" y="1322.8613">«Service»</text><text fill="#000000" font-family="sans-serif" font-size="20" lengthAdjust="spacing" textLength="167" x="761" y="1346.1426">TestSuiteService</text><rect fill="#E2E2F0" height="60.5625" rx="2.5" ry="2.5" style="stroke:#181818;stroke-width:0.5;" width="116" x="1113.5" y="70.5781"/><text fill="#000000" font-family="sans-serif" font-size="20" lengthAdjust="spacing" textLength="102" x="1120.5" y="96.1426">«Domain»</text><text fill="#000000" font-family="sans-serif" font-size="20" lengthAdjust="spacing" textLength="94" x="1124.5" y="119.4238">TestSuite</text><rect fill="#E2E2F0" height="60.5625" rx="2.5" ry="2.5" style="stroke:#181818;stroke-width:0.5;" width="116" x="1113.5" y="1297.2969"/><text fill="#000000" font-family="sans-serif" font-size="20" lengthAdjust="spacing" textLength="102" x="1120.5" y="1322.8613">«Domain»</text><text fill="#000000" font-family="sans-serif" font-size="20" lengthAdjust="spacing" textLength="94" x="1124.5" y="1346.1426">TestSuite</text><rect fill="#E2E2F0" height="60.5625" rx="2.5" ry="2.5" style="stroke:#181818;stroke-width:0.5;" width="214" x="1427.5" y="70.5781"/><text fill="#000000" font-family="sans-serif" font-size="20" lengthAdjust="spacing" textLength="130" x="1469.5" y="96.1426">«Repository»</text><text fill="#000000" font-family="sans-serif" font-size="20" lengthAdjust="spacing" textLength="200" x="1434.5" y="119.4238">TestSuiteRepository</text><rect fill="#E2E2F0" height="60.5625" rx="2.5" ry="2.5" style="stroke:#181818;stroke-width:0.5;" width="214" x="1427.5" y="1297.2969"/><text fill="#000000" font-family="sans-serif" font-size="20" lengthAdjust="spacing" textLength="130" x="1469.5" y="1322.8613">«Repository»</text><text fill="#000000" font-family="sans-serif" font-size="20" lengthAdjust="spacing" textLength="200" x="1434.5" y="1346.1426">TestSuiteRepository</text><rect fill="#E2E2F0" height="60.5625" rx="2.5" ry="2.5" style="stroke:#181818;stroke-width:0.5;" width="183" x="1651.5" y="70.5781"/><text fill="#000000" font-family="sans-serif" font-size="20" lengthAdjust="spacing" textLength="102" x="1692" y="96.1426">«Domain»</text><text fill="#000000" font-family="sans-serif" font-size="20" lengthAdjust="spacing" textLength="169" x="1658.5" y="119.4238">TestSuiteVersion</text><rect fill="#E2E2F0" height="60.5625" rx="2.5" ry="2.5" style="stroke:#181818;stroke-width:0.5;" width="183" x="1651.5" y="1297.2969"/><text fill="#000000" font-family="sans-serif" font-size="20" lengthAdjust="spacing" textLength="102" x="1692" y="1322.8613">«Domain»</text><text fill="#000000" font-family="sans-serif" font-size="20" lengthAdjust="spacing" textLength="169" x="1658.5" y="1346.1426">TestSuiteVersion</text><rect fill="#E2E2F0" height="60.5625" rx="2.5" ry="2.5" style="stroke:#181818;stroke-width:0.5;" width="289" x="2036.5" y="70.5781"/><text fill="#000000" font-family="sans-serif" font-size="20" lengthAdjust="spacing" textLength="130" x="2116" y="96.1426">«Repository»</text><text fill="#000000" font-family="sans-serif" font-size="20" lengthAdjust="spacing" textLength="275" x="2043.5" y="119.4238">TestSuiteVersionRepository</text><rect fill="#E2E2F0" height="60.5625" rx="2.5" ry="2.5" style="stroke:#181818;stroke-width:0.5;" width="289" x="2036.5" y="1297.2969"/><text fill="#000000" font-family="sans-serif" font-size="20" lengthAdjust="spacing" textLength="130" x="2116" y="1322.8613">«Repository»</text><text fill="#000000" font-family="sans-serif" font-size="20" lengthAdjust="spacing" textLength="275" x="2043.5" y="1346.1426">TestSuiteVersionRepository</text><rect fill="#E2E2F0" height="60.5625" rx="2.5" ry="2.5" style="stroke:#181818;stroke-width:0.5;" width="183" x="2335.5" y="70.5781"/><text fill="#000000" font-family="sans-serif" font-size="20" lengthAdjust="spacing" textLength="99" x="2377.5" y="96.1426">«Mapper»</text><text fill="#000000" font-family="sans-serif" font-size="20" lengthAdjust="spacing" textLength="169" x="2342.5" y="119.4238">TestSuiteMapper</text><rect fill="#E2E2F0" height="60.5625" rx="2.5" ry="2.5" style="stroke:#181818;stroke-width:0.5;" width="183" x="2335.5" y="1297.2969"/><text fill="#000000" font-family="sans-serif" font-size="20" lengthAdjust="spacing" textLength="99" x="2377.5" y="1322.8613">«Mapper»</text><text fill="#000000" font-family="sans-serif" font-size="20" lengthAdjust="spacing" textLength="169" x="2342.5" y="1346.1426">TestSuiteMapper</text><rect fill="#E2E2F0" height="60.5625" rx="2.5" ry="2.5" style="stroke:#181818;stroke-width:0.5;" width="247" x="2648.5" y="70.5781"/><text fill="#000000" font-family="sans-serif" font-size="20" lengthAdjust="spacing" textLength="67" x="2738.5" y="96.1426">«DTO»</text><text fill="#000000" font-family="sans-serif" font-size="20" lengthAdjust="spacing" textLength="233" x="2655.5" y="119.4238">TestSuiteResponseDTO</text><rect fill="#E2E2F0" height="60.5625" rx="2.5" ry="2.5" style="stroke:#181818;stroke-width:0.5;" width="247" x="2648.5" y="1297.2969"/><text fill="#000000" font-family="sans-serif" font-size="20" lengthAdjust="spacing" textLength="67" x="2738.5" y="1322.8613">«DTO»</text><text fill="#000000" font-family="sans-serif" font-size="20" lengthAdjust="spacing" textLength="233" x="2655.5" y="1346.1426">TestSuiteResponseDTO</text><rect fill="#E2E2F0" height="60.5625" rx="2.5" ry="2.5" style="stroke:#181818;stroke-width:0.5;" width="121" x="2905.5" y="70.5781"/><text fill="#000000" font-family="sans-serif" font-size="20" lengthAdjust="spacing" textLength="107" x="2912.5" y="96.1426">«External»</text><text fill="#000000" font-family="sans-serif" font-size="20" lengthAdjust="spacing" textLength="94" x="2919" y="119.4238">Database</text><rect fill="#E2E2F0" height="60.5625" rx="2.5" ry="2.5" style="stroke:#181818;stroke-width:0.5;" width="121" x="2905.5" y="1297.2969"/><text fill="#000000" font-family="sans-serif" font-size="20" lengthAdjust="spacing" textLength="107" x="2912.5" y="1322.8613">«External»</text><text fill="#000000" font-family="sans-serif" font-size="20" lengthAdjust="spacing" textLength="94" x="2919" y="1346.1426">Database</text><rect fill="#FFFFFF" height="1138.1563" style="stroke:#181818;stroke-width:1.0;" width="10" x="53.5" y="142.1406"/><rect fill="#FFFFFF" height="1108.875" style="stroke:#181818;stroke-width:1.0;" width="10" x="418.5" y="171.4219"/><rect fill="#FFFFFF" height="1034.3125" style="stroke:#181818;stroke-width:1.0;" width="10" x="839.5" y="208.7031"/><rect fill="#FFFFFF" height="87.5625" style="stroke:#181818;stroke-width:1.0;" width="10" x="1166.5" y="245.9844"/><rect fill="#FFFFFF" height="162.125" style="stroke:#181818;stroke-width:1.0;" width="10" x="1529.5" y="370.8281"/><rect fill="#FFFFFF" height="162.125" style="stroke:#181818;stroke-width:1.0;" width="10" x="1529.5" y="570.2344"/><rect fill="#FFFFFF" height="87.5625" style="stroke:#181818;stroke-width:1.0;" width="10" x="1738" y="769.6406"/><rect fill="#FFFFFF" height="162.125" style="stroke:#181818;stroke-width:1.0;" width="10" x="2176" y="894.4844"/><rect fill="#FFFFFF" height="111.8438" style="stroke:#181818;stroke-width:1.0;" width="10" x="2422" y="1093.8906"/><rect fill="#FFFFFF" height="37.2813" style="stroke:#181818;stroke-width:1.0;" width="10" x="2767" y="1131.1719"/><rect fill="#FFFFFF" height="87.5625" style="stroke:#181818;stroke-width:1.0;" width="10" x="2961" y="408.1094"/><rect fill="#FFFFFF" height="87.5625" style="stroke:#181818;stroke-width:1.0;" width="10" x="2961" y="607.5156"/><rect fill="#FFFFFF" height="87.5625" style="stroke:#181818;stroke-width:1.0;" width="10" x="2961" y="931.7656"/><polygon fill="#000000" points="406.5,167.4219,416.5,171.4219,406.5,175.4219,410.5,171.4219" style="stroke:#000000;stroke-width:1.0;"/><line style="stroke:#000000;stroke-width:1.0;" x1="63.5" x2="412.5" y1="171.4219" y2="171.4219"/><text fill="#000000" font-family="sans-serif" font-size="20" lengthAdjust="spacing" textLength="313" x="70.5" y="164.7051">Asks to create a new Test Suite</text><polygon fill="#000000" points="827.5,204.7031,837.5,208.7031,827.5,212.7031,831.5,208.7031" style="stroke:#000000;stroke-width:1.0;"/><line style="stroke:#000000;stroke-width:1.0;" x1="428.5" x2="833.5" y1="208.7031" y2="208.7031"/><text fill="#000000" font-family="sans-serif" font-size="20" lengthAdjust="spacing" textLength="392" x="435.5" y="201.9863">createTestSuite(TestSuiteRequestDTO)</text><polygon fill="#000000" points="1154.5,241.9844,1164.5,245.9844,1154.5,249.9844,1158.5,245.9844" style="stroke:#000000;stroke-width:1.0;"/><line style="stroke:#000000;stroke-width:1.0;" x1="849.5" x2="1160.5" y1="245.9844" y2="245.9844"/><text fill="#000000" font-family="sans-serif" font-size="20" lengthAdjust="spacing" textLength="298" x="856.5" y="239.2676">create(TestSuiteRequestDTO)</text><line style="stroke:#000000;stroke-width:1.0;stroke-dasharray:2.0,2.0;" x1="1176.5" x2="1218.5" y1="283.2656" y2="283.2656"/><line style="stroke:#000000;stroke-width:1.0;stroke-dasharray:2.0,2.0;" x1="1218.5" x2="1218.5" y1="283.2656" y2="296.2656"/><line style="stroke:#000000;stroke-width:1.0;stroke-dasharray:2.0,2.0;" x1="1177.5" x2="1218.5" y1="296.2656" y2="296.2656"/><polygon fill="#000000" points="1187.5,292.2656,1177.5,296.2656,1187.5,300.2656,1183.5,296.2656" style="stroke:#000000;stroke-width:1.0;"/><text fill="#000000" font-family="sans-serif" font-size="20" lengthAdjust="spacing" textLength="339" x="1183.5" y="276.5488">Validates and initializes TestSuite</text><polygon fill="#000000" points="860.5,329.5469,850.5,333.5469,860.5,337.5469,856.5,333.5469" style="stroke:#000000;stroke-width:1.0;"/><line style="stroke:#000000;stroke-width:1.0;stroke-dasharray:2.0,2.0;" x1="854.5" x2="1170.5" y1="333.5469" y2="333.5469"/><text fill="#000000" font-family="sans-serif" font-size="20" lengthAdjust="spacing" textLength="172" x="866.5" y="326.8301">returns TestSuite</text><polygon fill="#000000" points="1517.5,366.8281,1527.5,370.8281,1517.5,374.8281,1521.5,370.8281" style="stroke:#000000;stroke-width:1.0;"/><line style="stroke:#000000;stroke-width:1.0;" x1="849.5" x2="1523.5" y1="370.8281" y2="370.8281"/><text fill="#000000" font-family="sans-serif" font-size="20" lengthAdjust="spacing" textLength="155" x="856.5" y="364.1113">save(TestSuite)</text><polygon fill="#000000" points="2949,404.1094,2959,408.1094,2949,412.1094,2953,408.1094" style="stroke:#000000;stroke-width:1.0;"/><line style="stroke:#000000;stroke-width:1.0;" x1="1539.5" x2="2955" y1="408.1094" y2="408.1094"/><text fill="#000000" font-family="sans-serif" font-size="20" lengthAdjust="spacing" textLength="237" x="1546.5" y="401.3926">Query to save TestSuite</text><line style="stroke:#000000;stroke-width:1.0;stroke-dasharray:2.0,2.0;" x1="2971" x2="3013" y1="445.3906" y2="445.3906"/><line style="stroke:#000000;stroke-width:1.0;stroke-dasharray:2.0,2.0;" x1="3013" x2="3013" y1="445.3906" y2="458.3906"/><line style="stroke:#000000;stroke-width:1.0;stroke-dasharray:2.0,2.0;" x1="2972" x2="3013" y1="458.3906" y2="458.3906"/><polygon fill="#000000" points="2982,454.3906,2972,458.3906,2982,462.3906,2978,458.3906" style="stroke:#000000;stroke-width:1.0;"/><text fill="#000000" font-family="sans-serif" font-size="20" lengthAdjust="spacing" textLength="158" x="2978" y="438.6738">Saves TestSuite</text><polygon fill="#000000" points="1550.5,491.6719,1540.5,495.6719,1550.5,499.6719,1546.5,495.6719" style="stroke:#000000;stroke-width:1.0;"/><line style="stroke:#000000;stroke-width:1.0;stroke-dasharray:2.0,2.0;" x1="1544.5" x2="2965" y1="495.6719" y2="495.6719"/><text fill="#000000" font-family="sans-serif" font-size="20" lengthAdjust="spacing" textLength="255" x="1556.5" y="488.9551">returns saved TestSuiteId</text><polygon fill="#000000" points="860.5,528.9531,850.5,532.9531,860.5,536.9531,856.5,532.9531" style="stroke:#000000;stroke-width:1.0;"/><line style="stroke:#000000;stroke-width:1.0;stroke-dasharray:2.0,2.0;" x1="854.5" x2="1533.5" y1="532.9531" y2="532.9531"/><text fill="#000000" font-family="sans-serif" font-size="20" lengthAdjust="spacing" textLength="191" x="866.5" y="526.2363">returns TestSuiteId</text><polygon fill="#000000" points="1517.5,566.2344,1527.5,570.2344,1517.5,574.2344,1521.5,570.2344" style="stroke:#000000;stroke-width:1.0;"/><line style="stroke:#000000;stroke-width:1.0;" x1="849.5" x2="1523.5" y1="570.2344" y2="570.2344"/><text fill="#000000" font-family="sans-serif" font-size="20" lengthAdjust="spacing" textLength="442" x="856.5" y="563.5176">findLatestVersionByTestSuiteId(TestSuiteId)</text><polygon fill="#000000" points="2949,603.5156,2959,607.5156,2949,611.5156,2953,607.5156" style="stroke:#000000;stroke-width:1.0;"/><line style="stroke:#000000;stroke-width:1.0;" x1="1539.5" x2="2955" y1="607.5156" y2="607.5156"/><text fill="#000000" font-family="sans-serif" font-size="20" lengthAdjust="spacing" textLength="517" x="1546.5" y="600.7988">Query to find latest TestSuiteVersion by TestSuiteId</text><line style="stroke:#000000;stroke-width:1.0;stroke-dasharray:2.0,2.0;" x1="2971" x2="3013" y1="644.7969" y2="644.7969"/><line style="stroke:#000000;stroke-width:1.0;stroke-dasharray:2.0,2.0;" x1="3013" x2="3013" y1="644.7969" y2="657.7969"/><line style="stroke:#000000;stroke-width:1.0;stroke-dasharray:2.0,2.0;" x1="2972" x2="3013" y1="657.7969" y2="657.7969"/><polygon fill="#000000" points="2982,653.7969,2972,657.7969,2982,661.7969,2978,657.7969" style="stroke:#000000;stroke-width:1.0;"/><text fill="#000000" font-family="sans-serif" font-size="20" lengthAdjust="spacing" textLength="310" x="2978" y="638.0801">Finds latest TestSuiteVersionId</text><polygon fill="#000000" points="1550.5,691.0781,1540.5,695.0781,1550.5,699.0781,1546.5,695.0781" style="stroke:#000000;stroke-width:1.0;"/><line style="stroke:#000000;stroke-width:1.0;stroke-dasharray:2.0,2.0;" x1="1544.5" x2="2965" y1="695.0781" y2="695.0781"/><text fill="#000000" font-family="sans-serif" font-size="20" lengthAdjust="spacing" textLength="328" x="1556.5" y="688.3613">returns latest TestSuiteVersionId</text><polygon fill="#000000" points="860.5,728.3594,850.5,732.3594,860.5,736.3594,856.5,732.3594" style="stroke:#000000;stroke-width:1.0;"/><line style="stroke:#000000;stroke-width:1.0;stroke-dasharray:2.0,2.0;" x1="854.5" x2="1533.5" y1="732.3594" y2="732.3594"/><text fill="#000000" font-family="sans-serif" font-size="20" lengthAdjust="spacing" textLength="328" x="866.5" y="725.6426">returns latest TestSuiteVersionId</text><polygon fill="#000000" points="1726,765.6406,1736,769.6406,1726,773.6406,1730,769.6406" style="stroke:#000000;stroke-width:1.0;"/><line style="stroke:#000000;stroke-width:1.0;" x1="849.5" x2="1732" y1="769.6406" y2="769.6406"/><text fill="#000000" font-family="sans-serif" font-size="20" lengthAdjust="spacing" textLength="689" x="856.5" y="762.9238">create(TestSuiteVersionParams, TestSuiteVersionId + 1, TestSuiteId)</text><line style="stroke:#000000;stroke-width:1.0;stroke-dasharray:2.0,2.0;" x1="1748" x2="1790" y1="806.9219" y2="806.9219"/><line style="stroke:#000000;stroke-width:1.0;stroke-dasharray:2.0,2.0;" x1="1790" x2="1790" y1="806.9219" y2="819.9219"/><line style="stroke:#000000;stroke-width:1.0;stroke-dasharray:2.0,2.0;" x1="1749" x2="1790" y1="819.9219" y2="819.9219"/><polygon fill="#000000" points="1759,815.9219,1749,819.9219,1759,823.9219,1755,819.9219" style="stroke:#000000;stroke-width:1.0;"/><text fill="#000000" font-family="sans-serif" font-size="20" lengthAdjust="spacing" textLength="414" x="1755" y="800.2051">Validates and initializes TestSuiteVersion</text><polygon fill="#000000" points="860.5,853.2031,850.5,857.2031,860.5,861.2031,856.5,857.2031" style="stroke:#000000;stroke-width:1.0;"/><line style="stroke:#000000;stroke-width:1.0;stroke-dasharray:2.0,2.0;" x1="854.5" x2="1742" y1="857.2031" y2="857.2031"/><text fill="#000000" font-family="sans-serif" font-size="20" lengthAdjust="spacing" textLength="247" x="866.5" y="850.4863">returns TestSuiteVersion</text><polygon fill="#000000" points="2164,890.4844,2174,894.4844,2164,898.4844,2168,894.4844" style="stroke:#000000;stroke-width:1.0;"/><line style="stroke:#000000;stroke-width:1.0;" x1="849.5" x2="2170" y1="894.4844" y2="894.4844"/><text fill="#000000" font-family="sans-serif" font-size="20" lengthAdjust="spacing" textLength="230" x="856.5" y="887.7676">save(TestSuiteVersion)</text><polygon fill="#000000" points="2949,927.7656,2959,931.7656,2949,935.7656,2953,931.7656" style="stroke:#000000;stroke-width:1.0;"/><line style="stroke:#000000;stroke-width:1.0;" x1="2186" x2="2955" y1="931.7656" y2="931.7656"/><text fill="#000000" font-family="sans-serif" font-size="20" lengthAdjust="spacing" textLength="312" x="2193" y="925.0488">Query to save TestSuiteVersion</text><line style="stroke:#000000;stroke-width:1.0;stroke-dasharray:2.0,2.0;" x1="2971" x2="3013" y1="969.0469" y2="969.0469"/><line style="stroke:#000000;stroke-width:1.0;stroke-dasharray:2.0,2.0;" x1="3013" x2="3013" y1="969.0469" y2="982.0469"/><line style="stroke:#000000;stroke-width:1.0;stroke-dasharray:2.0,2.0;" x1="2972" x2="3013" y1="982.0469" y2="982.0469"/><polygon fill="#000000" points="2982,978.0469,2972,982.0469,2982,986.0469,2978,982.0469" style="stroke:#000000;stroke-width:1.0;"/><text fill="#000000" font-family="sans-serif" font-size="20" lengthAdjust="spacing" textLength="233" x="2978" y="962.3301">Saves TestSuiteVersion</text><polygon fill="#000000" points="2197,1015.3281,2187,1019.3281,2197,1023.3281,2193,1019.3281" style="stroke:#000000;stroke-width:1.0;"/><line style="stroke:#000000;stroke-width:1.0;stroke-dasharray:2.0,2.0;" x1="2191" x2="2965" y1="1019.3281" y2="1019.3281"/><text fill="#000000" font-family="sans-serif" font-size="20" lengthAdjust="spacing" textLength="311" x="2203" y="1012.6113">returns saved TestSuiteVersion</text><polygon fill="#000000" points="860.5,1052.6094,850.5,1056.6094,860.5,1060.6094,856.5,1056.6094" style="stroke:#000000;stroke-width:1.0;"/><line style="stroke:#000000;stroke-width:1.0;stroke-dasharray:2.0,2.0;" x1="854.5" x2="2180" y1="1056.6094" y2="1056.6094"/><text fill="#000000" font-family="sans-serif" font-size="20" lengthAdjust="spacing" textLength="247" x="866.5" y="1049.8926">returns TestSuiteVersion</text><polygon fill="#000000" points="2410,1089.8906,2420,1093.8906,2410,1097.8906,2414,1093.8906" style="stroke:#000000;stroke-width:1.0;"/><line style="stroke:#000000;stroke-width:1.0;" x1="849.5" x2="2416" y1="1093.8906" y2="1093.8906"/><text fill="#000000" font-family="sans-serif" font-size="20" lengthAdjust="spacing" textLength="173" x="856.5" y="1087.1738">toDTO(TestSuite)</text><polygon fill="#000000" points="2755,1127.1719,2765,1131.1719,2755,1135.1719,2759,1131.1719" style="stroke:#000000;stroke-width:1.0;"/><line style="stroke:#000000;stroke-width:1.0;stroke-dasharray:2.0,2.0;" x1="2432" x2="2761" y1="1131.1719" y2="1131.1719"/><text fill="#000000" font-family="sans-serif" font-size="20" lengthAdjust="spacing" textLength="173" x="2439" y="1124.4551">create(TestSuite)</text><polygon fill="#000000" points="2443,1164.4531,2433,1168.4531,2443,1172.4531,2439,1168.4531" style="stroke:#000000;stroke-width:1.0;"/><line style="stroke:#000000;stroke-width:1.0;stroke-dasharray:2.0,2.0;" x1="2437" x2="2771" y1="1168.4531" y2="1168.4531"/><text fill="#000000" font-family="sans-serif" font-size="20" lengthAdjust="spacing" textLength="311" x="2449" y="1161.7363">returns TestSuiteResponseDTO</text><polygon fill="#000000" points="860.5,1201.7344,850.5,1205.7344,860.5,1209.7344,856.5,1205.7344" style="stroke:#000000;stroke-width:1.0;"/><line style="stroke:#000000;stroke-width:1.0;stroke-dasharray:2.0,2.0;" x1="854.5" x2="2426" y1="1205.7344" y2="1205.7344"/><text fill="#000000" font-family="sans-serif" font-size="20" lengthAdjust="spacing" textLength="311" x="866.5" y="1199.0176">returns TestSuiteResponseDTO</text><polygon fill="#000000" points="439.5,1239.0156,429.5,1243.0156,439.5,1247.0156,435.5,1243.0156" style="stroke:#000000;stroke-width:1.0;"/><line style="stroke:#000000;stroke-width:1.0;stroke-dasharray:2.0,2.0;" x1="433.5" x2="843.5" y1="1243.0156" y2="1243.0156"/><text fill="#000000" font-family="sans-serif" font-size="20" lengthAdjust="spacing" textLength="233" x="445.5" y="1236.2988">TestSuiteResponseDTO</text><polygon fill="#000000" points="69.5,1276.2969,59.5,1280.2969,69.5,1284.2969,65.5,1280.2969" style="stroke:#000000;stroke-width:1.0;"/><line style="stroke:#000000;stroke-width:1.0;stroke-dasharray:2.0,2.0;" x1="63.5" x2="422.5" y1="1280.2969" y2="1280.2969"/><text fill="#000000" font-family="sans-serif" font-size="20" lengthAdjust="spacing" textLength="331" x="75.5" y="1273.5801">TestSuiteResponseDTO (created)</text><!--SRC=[bLLDRzim3BthLn3j9SKQeEs-Wo107Jl0W0xTbgAdNHIRxRGubYSfQTDX_tsIF-b4RfjS8bDyZ-GJAUcbo7Ak-2gLyH8JIF2EhrCpavcPYoU4YpF6Z30fmXLkC8MtC8IfGcuGRb0RcA-5NGw-OhhYSH2TCFPB90YuoiqMLhXQeDACwJeAn2dN6luoiB-0nyjx9TTPCfMfLEFnXgThl5xynjXC9d0SVeWkPv_yhahAmcSMHa5uvlVHg3OYneBgV7OH1JutIn7DFaSVYxrBfUH3QGvIwyV-qTnpQ-7twCyUZgDWzduME0YFZJM4JZ2PemAk8MHi8H_XQ3oUMccvoAnvC7rtOfEhjJigQ6qe8sAHyypKtagcAQh9v6Vc92yKRyr7Zhtzz77CQnq8GMKhqDNQ1mtbokRQGHQGvii7-e6vrC9AiEq0MtCPjRQzCkwjxIGXisxuodX05XLY9nbYzN5zvNc-SmAbgG2NIsyPDzSx4kXSPXgjlK2IRuPP0hP5s0v5z6XGPJnrF24tVC5rUGHXm8fE4nitZ24BOJWXZJ22IxtKO2J4vRXooF2136sB9TtJBXrRrHYZYg8fOq0A-hEsQvl_ISjNzrFrxvWQGCtr0aNRNyqAXbsUMvwAnFfgu5OvaGaZhEK9TI-uAKUXMQkCEYRe2KtoRvfr19flIFQqxAQXcvM3Xi48lgzHRTrPE329q1vVmCAWIDAvpwqNpQxQ8adK5JY-fFNyaj1AB2d9v5a1ka1IYLU2Ev4bLqvwKyrDi2LC0x8-K1v736d1l3VZiDXsyktHRcOfT1-7XVLhsOyvIDDNqNWLteNipqgrySqzH_hK4mFUmFaf-0zWxzBSKtZeJU8LW_OiOt_NrJ3VzDLxH1zoIU-EORL5ggKtEbc_C95rrDSDPkrTUNJowvbGJyasH2V1GoMZbHArobTfP6kqLwltmghUhVAlY4lUe_tc8qZwRf5rmL77tKkTWaZwr4nIwPUWXwUgfb5WvpLy2Lu_MlG5TAVkHyAWLCVE5-4W3oazN_OV]--></g></svg>