<?xml version="1.0" encoding="UTF-8" standalone="no"?><svg xmlns="http://www.w3.org/2000/svg" xmlns:xlink="http://www.w3.org/1999/xlink" contentStyleType="text/css" height="1350px" preserveAspectRatio="none" style="width:1429px;height:1350px;background:#FFFFFF;" version="1.1" viewBox="0 0 1429 1350" width="1429px" zoomAndPan="magnify"><defs/><g><text fill="#000000" font-family="sans-serif" font-size="14" font-weight="bold" lengthAdjust="spacing" textLength="181" x="623.25" y="27.9951">Level 1 - Run Test Plan</text><rect fill="#FFFFFF" height="1108.7188" style="stroke:#181818;stroke-width:1.0;" width="10" x="53.5" y="135.5781"/><rect fill="#FFFFFF" height="1079.4375" style="stroke:#181818;stroke-width:1.0;" width="10" x="399.5" y="164.8594"/><rect fill="#FFFFFF" height="37.2813" style="stroke:#181818;stroke-width:1.0;" width="10" x="775.5" y="242.7031"/><rect fill="#FFFFFF" height="37.2813" style="stroke:#181818;stroke-width:1.0;" width="10" x="775.5" y="317.2656"/><rect fill="#FFFFFF" height="37.2813" style="stroke:#181818;stroke-width:1.0;" width="10" x="775.5" y="466.3906"/><rect fill="#FFFFFF" height="37.2813" style="stroke:#181818;stroke-width:1.0;" width="10" x="775.5" y="540.9531"/><rect fill="#FFFFFF" height="37.2813" style="stroke:#181818;stroke-width:1.0;" width="10" x="775.5" y="615.5156"/><rect fill="#FFFFFF" height="37.2813" style="stroke:#181818;stroke-width:1.0;" width="10" x="946.5" y="391.8281"/><rect fill="#FFFFFF" height="37.2813" style="stroke:#181818;stroke-width:1.0;" width="10" x="1095.5" y="715.3594"/><rect fill="#FFFFFF" height="37.2813" style="stroke:#181818;stroke-width:1.0;" width="10" x="1095.5" y="789.9219"/><rect fill="#FFFFFF" height="37.2813" style="stroke:#181818;stroke-width:1.0;" width="10" x="1095.5" y="939.0469"/><rect fill="#FFFFFF" height="37.2813" style="stroke:#181818;stroke-width:1.0;" width="10" x="1095.5" y="1013.6094"/><rect fill="#FFFFFF" height="37.2813" style="stroke:#181818;stroke-width:1.0;" width="10" x="1095.5" y="1088.1719"/><rect fill="#FFFFFF" height="37.2813" style="stroke:#181818;stroke-width:1.0;" width="10" x="1227" y="864.4844"/><rect fill="#FFFFFF" height="37.2813" style="stroke:#181818;stroke-width:1.0;" width="10" x="1358" y="1169.7344"/><rect fill="#EBF5FB" height="953.5938" style="stroke:#000000;stroke-width:1.5;" width="952" x="350.5" y="179.8594"/><rect fill="#EBF5FB" height="472.6563" style="stroke:none;stroke-width:1.0;" width="952" x="350.5" y="660.7969"/><line style="stroke:#181818;stroke-width:0.5;stroke-dasharray:5.0,5.0;" x1="58" x2="58" y1="125.5781" y2="1262.2969"/><line style="stroke:#181818;stroke-width:0.5;stroke-dasharray:5.0,5.0;" x1="404.5" x2="404.5" y1="125.5781" y2="1262.2969"/><line style="stroke:#181818;stroke-width:0.5;stroke-dasharray:5.0,5.0;" x1="780.5" x2="780.5" y1="125.5781" y2="1262.2969"/><line style="stroke:#181818;stroke-width:0.5;stroke-dasharray:5.0,5.0;" x1="951.5" x2="951.5" y1="125.5781" y2="1262.2969"/><line style="stroke:#181818;stroke-width:0.5;stroke-dasharray:5.0,5.0;" x1="1100.5" x2="1100.5" y1="125.5781" y2="1262.2969"/><line style="stroke:#181818;stroke-width:0.5;stroke-dasharray:5.0,5.0;" x1="1231.5" x2="1231.5" y1="125.5781" y2="1262.2969"/><line style="stroke:#181818;stroke-width:0.5;stroke-dasharray:5.0,5.0;" x1="1362.5" x2="1362.5" y1="125.5781" y2="1262.2969"/><text fill="#000000" font-family="sans-serif" font-size="20" lengthAdjust="spacing" textLength="101" x="5" y="120.8613">Developer</text><ellipse cx="58.5" cy="50.7969" fill="#E2E2F0" rx="8" ry="8" style="stroke:#181818;stroke-width:0.5;"/><path d="M58.5,58.7969 L58.5,85.7969 M45.5,66.7969 L71.5,66.7969 M58.5,85.7969 L45.5,100.7969 M58.5,85.7969 L71.5,100.7969 " fill="none" style="stroke:#181818;stroke-width:0.5;"/><text fill="#000000" font-family="sans-serif" font-size="20" lengthAdjust="spacing" textLength="101" x="5" y="1279.8613">Developer</text><ellipse cx="58.5" cy="1293.0781" fill="#E2E2F0" rx="8" ry="8" style="stroke:#181818;stroke-width:0.5;"/><path d="M58.5,1301.0781 L58.5,1328.0781 M45.5,1309.0781 L71.5,1309.0781 M58.5,1328.0781 L45.5,1343.0781 M58.5,1328.0781 L71.5,1343.0781 " fill="none" style="stroke:#181818;stroke-width:0.5;"/><rect fill="#E2E2F0" height="37.2813" rx="2.5" ry="2.5" style="stroke:#181818;stroke-width:0.5;" width="88" x="360.5" y="87.2969"/><text fill="#000000" font-family="sans-serif" font-size="20" lengthAdjust="spacing" textLength="74" x="367.5" y="112.8613">System</text><rect fill="#E2E2F0" height="37.2813" rx="2.5" ry="2.5" style="stroke:#181818;stroke-width:0.5;" width="88" x="360.5" y="1261.2969"/><text fill="#000000" font-family="sans-serif" font-size="20" lengthAdjust="spacing" textLength="74" x="367.5" y="1286.8613">System</text><rect fill="#E2E2F0" height="60.5625" rx="2.5" ry="2.5" style="stroke:#181818;stroke-width:0.5;" width="166" x="697.5" y="64.0156"/><text fill="#000000" font-family="sans-serif" font-size="20" lengthAdjust="spacing" textLength="107" x="727" y="89.5801">«External»</text><text fill="#000000" font-family="sans-serif" font-size="20" lengthAdjust="spacing" textLength="152" x="704.5" y="112.8613">Android Device</text><rect fill="#E2E2F0" height="60.5625" rx="2.5" ry="2.5" style="stroke:#181818;stroke-width:0.5;" width="166" x="697.5" y="1261.2969"/><text fill="#000000" font-family="sans-serif" font-size="20" lengthAdjust="spacing" textLength="107" x="727" y="1286.8613">«External»</text><text fill="#000000" font-family="sans-serif" font-size="20" lengthAdjust="spacing" textLength="152" x="704.5" y="1310.1426">Android Device</text><rect fill="#E2E2F0" height="60.5625" rx="2.5" ry="2.5" style="stroke:#181818;stroke-width:0.5;" width="156" x="873.5" y="64.0156"/><text fill="#000000" font-family="sans-serif" font-size="20" lengthAdjust="spacing" textLength="107" x="898" y="89.5801">«External»</text><text fill="#000000" font-family="sans-serif" font-size="20" lengthAdjust="spacing" textLength="142" x="880.5" y="112.8613">AUT (Android)</text><rect fill="#E2E2F0" height="60.5625" rx="2.5" ry="2.5" style="stroke:#181818;stroke-width:0.5;" width="156" x="873.5" y="1261.2969"/><text fill="#000000" font-family="sans-serif" font-size="20" lengthAdjust="spacing" textLength="107" x="898" y="1286.8613">«External»</text><text fill="#000000" font-family="sans-serif" font-size="20" lengthAdjust="spacing" textLength="142" x="880.5" y="1310.1426">AUT (Android)</text><rect fill="#E2E2F0" height="60.5625" rx="2.5" ry="2.5" style="stroke:#181818;stroke-width:0.5;" width="122" x="1039.5" y="64.0156"/><text fill="#000000" font-family="sans-serif" font-size="20" lengthAdjust="spacing" textLength="107" x="1047" y="89.5801">«External»</text><text fill="#000000" font-family="sans-serif" font-size="20" lengthAdjust="spacing" textLength="108" x="1046.5" y="112.8613">iOS Device</text><rect fill="#E2E2F0" height="60.5625" rx="2.5" ry="2.5" style="stroke:#181818;stroke-width:0.5;" width="122" x="1039.5" y="1261.2969"/><text fill="#000000" font-family="sans-serif" font-size="20" lengthAdjust="spacing" textLength="107" x="1047" y="1286.8613">«External»</text><text fill="#000000" font-family="sans-serif" font-size="20" lengthAdjust="spacing" textLength="108" x="1046.5" y="1310.1426">iOS Device</text><rect fill="#E2E2F0" height="60.5625" rx="2.5" ry="2.5" style="stroke:#181818;stroke-width:0.5;" width="121" x="1171.5" y="64.0156"/><text fill="#000000" font-family="sans-serif" font-size="20" lengthAdjust="spacing" textLength="107" x="1178.5" y="89.5801">«External»</text><text fill="#000000" font-family="sans-serif" font-size="20" lengthAdjust="spacing" textLength="98" x="1183" y="112.8613">AUT (iOS)</text><rect fill="#E2E2F0" height="60.5625" rx="2.5" ry="2.5" style="stroke:#181818;stroke-width:0.5;" width="121" x="1171.5" y="1261.2969"/><text fill="#000000" font-family="sans-serif" font-size="20" lengthAdjust="spacing" textLength="107" x="1178.5" y="1286.8613">«External»</text><text fill="#000000" font-family="sans-serif" font-size="20" lengthAdjust="spacing" textLength="98" x="1183" y="1310.1426">AUT (iOS)</text><rect fill="#E2E2F0" height="60.5625" rx="2.5" ry="2.5" style="stroke:#181818;stroke-width:0.5;" width="121" x="1302.5" y="64.0156"/><text fill="#000000" font-family="sans-serif" font-size="20" lengthAdjust="spacing" textLength="107" x="1309.5" y="89.5801">«External»</text><text fill="#000000" font-family="sans-serif" font-size="20" lengthAdjust="spacing" textLength="94" x="1316" y="112.8613">Database</text><rect fill="#E2E2F0" height="60.5625" rx="2.5" ry="2.5" style="stroke:#181818;stroke-width:0.5;" width="121" x="1302.5" y="1261.2969"/><text fill="#000000" font-family="sans-serif" font-size="20" lengthAdjust="spacing" textLength="107" x="1309.5" y="1286.8613">«External»</text><text fill="#000000" font-family="sans-serif" font-size="20" lengthAdjust="spacing" textLength="94" x="1316" y="1310.1426">Database</text><rect fill="#FFFFFF" height="1108.7188" style="stroke:#181818;stroke-width:1.0;" width="10" x="53.5" y="135.5781"/><rect fill="#FFFFFF" height="1079.4375" style="stroke:#181818;stroke-width:1.0;" width="10" x="399.5" y="164.8594"/><rect fill="#FFFFFF" height="37.2813" style="stroke:#181818;stroke-width:1.0;" width="10" x="775.5" y="242.7031"/><rect fill="#FFFFFF" height="37.2813" style="stroke:#181818;stroke-width:1.0;" width="10" x="775.5" y="317.2656"/><rect fill="#FFFFFF" height="37.2813" style="stroke:#181818;stroke-width:1.0;" width="10" x="775.5" y="466.3906"/><rect fill="#FFFFFF" height="37.2813" style="stroke:#181818;stroke-width:1.0;" width="10" x="775.5" y="540.9531"/><rect fill="#FFFFFF" height="37.2813" style="stroke:#181818;stroke-width:1.0;" width="10" x="775.5" y="615.5156"/><rect fill="#FFFFFF" height="37.2813" style="stroke:#181818;stroke-width:1.0;" width="10" x="946.5" y="391.8281"/><rect fill="#FFFFFF" height="37.2813" style="stroke:#181818;stroke-width:1.0;" width="10" x="1095.5" y="715.3594"/><rect fill="#FFFFFF" height="37.2813" style="stroke:#181818;stroke-width:1.0;" width="10" x="1095.5" y="789.9219"/><rect fill="#FFFFFF" height="37.2813" style="stroke:#181818;stroke-width:1.0;" width="10" x="1095.5" y="939.0469"/><rect fill="#FFFFFF" height="37.2813" style="stroke:#181818;stroke-width:1.0;" width="10" x="1095.5" y="1013.6094"/><rect fill="#FFFFFF" height="37.2813" style="stroke:#181818;stroke-width:1.0;" width="10" x="1095.5" y="1088.1719"/><rect fill="#FFFFFF" height="37.2813" style="stroke:#181818;stroke-width:1.0;" width="10" x="1227" y="864.4844"/><rect fill="#FFFFFF" height="37.2813" style="stroke:#181818;stroke-width:1.0;" width="10" x="1358" y="1169.7344"/><polygon fill="#000000" points="387.5,160.8594,397.5,164.8594,387.5,168.8594,391.5,164.8594" style="stroke:#000000;stroke-width:1.0;"/><line style="stroke:#000000;stroke-width:1.0;" x1="63.5" x2="393.5" y1="164.8594" y2="164.8594"/><text fill="#000000" font-family="sans-serif" font-size="20" lengthAdjust="spacing" textLength="245" x="70.5" y="158.1426">Request to run Test Plan</text><path d="M350.5,179.8594 L426.5,179.8594 L426.5,195.1406 L416.5,205.1406 L350.5,205.1406 L350.5,179.8594 " fill="#EEEEEE" style="stroke:#000000;stroke-width:1.5;"/><rect fill="none" height="953.5938" style="stroke:#000000;stroke-width:1.5;" width="952" x="350.5" y="179.8594"/><text fill="#000000" font-family="sans-serif" font-size="20" font-weight="bold" lengthAdjust="spacing" textLength="31" x="365.5" y="199.4238">alt</text><text fill="#000000" font-family="sans-serif" font-size="20" font-weight="bold" lengthAdjust="spacing" textLength="260" x="441.5" y="200.4238">[Test Plan for Android]</text><polygon fill="#000000" points="763.5,238.7031,773.5,242.7031,763.5,246.7031,767.5,242.7031" style="stroke:#000000;stroke-width:1.0;"/><line style="stroke:#000000;stroke-width:1.0;" x1="409.5" x2="769.5" y1="242.7031" y2="242.7031"/><text fill="#000000" font-family="sans-serif" font-size="20" lengthAdjust="spacing" textLength="204" x="416.5" y="235.9863">Boot Android Device</text><polygon fill="#000000" points="420.5,275.9844,410.5,279.9844,420.5,283.9844,416.5,279.9844" style="stroke:#000000;stroke-width:1.0;"/><line style="stroke:#000000;stroke-width:1.0;stroke-dasharray:2.0,2.0;" x1="414.5" x2="779.5" y1="279.9844" y2="279.9844"/><text fill="#000000" font-family="sans-serif" font-size="20" lengthAdjust="spacing" textLength="220" x="426.5" y="273.2676">Android Device Ready</text><polygon fill="#000000" points="763.5,313.2656,773.5,317.2656,763.5,321.2656,767.5,317.2656" style="stroke:#000000;stroke-width:1.0;"/><line style="stroke:#000000;stroke-width:1.0;" x1="409.5" x2="769.5" y1="317.2656" y2="317.2656"/><text fill="#000000" font-family="sans-serif" font-size="20" lengthAdjust="spacing" textLength="297" x="416.5" y="310.5488">Install AUT on Android Device</text><polygon fill="#000000" points="420.5,350.5469,410.5,354.5469,420.5,358.5469,416.5,354.5469" style="stroke:#000000;stroke-width:1.0;"/><line style="stroke:#000000;stroke-width:1.0;stroke-dasharray:2.0,2.0;" x1="414.5" x2="779.5" y1="354.5469" y2="354.5469"/><text fill="#000000" font-family="sans-serif" font-size="20" lengthAdjust="spacing" textLength="133" x="426.5" y="347.8301">AUT Installed</text><polygon fill="#000000" points="934.5,387.8281,944.5,391.8281,934.5,395.8281,938.5,391.8281" style="stroke:#000000;stroke-width:1.0;"/><line style="stroke:#000000;stroke-width:1.0;" x1="409.5" x2="940.5" y1="391.8281" y2="391.8281"/><text fill="#000000" font-family="sans-serif" font-size="20" lengthAdjust="spacing" textLength="309" x="416.5" y="385.1113">Launch AUT on Android Device</text><polygon fill="#000000" points="420.5,425.1094,410.5,429.1094,420.5,433.1094,416.5,429.1094" style="stroke:#000000;stroke-width:1.0;"/><line style="stroke:#000000;stroke-width:1.0;stroke-dasharray:2.0,2.0;" x1="414.5" x2="950.5" y1="429.1094" y2="429.1094"/><text fill="#000000" font-family="sans-serif" font-size="20" lengthAdjust="spacing" textLength="145" x="426.5" y="422.3926">AUT Launched</text><polygon fill="#000000" points="763.5,462.3906,773.5,466.3906,763.5,470.3906,767.5,466.3906" style="stroke:#000000;stroke-width:1.0;"/><line style="stroke:#000000;stroke-width:1.0;" x1="409.5" x2="769.5" y1="466.3906" y2="466.3906"/><text fill="#000000" font-family="sans-serif" font-size="20" lengthAdjust="spacing" textLength="239" x="416.5" y="459.6738">Execute Test Plan Steps</text><polygon fill="#000000" points="420.5,499.6719,410.5,503.6719,420.5,507.6719,416.5,503.6719" style="stroke:#000000;stroke-width:1.0;"/><line style="stroke:#000000;stroke-width:1.0;stroke-dasharray:2.0,2.0;" x1="414.5" x2="779.5" y1="503.6719" y2="503.6719"/><text fill="#000000" font-family="sans-serif" font-size="20" lengthAdjust="spacing" textLength="252" x="426.5" y="496.9551">Test Plan Steps Executed</text><polygon fill="#000000" points="763.5,536.9531,773.5,540.9531,763.5,544.9531,767.5,540.9531" style="stroke:#000000;stroke-width:1.0;"/><line style="stroke:#000000;stroke-width:1.0;" x1="409.5" x2="769.5" y1="540.9531" y2="540.9531"/><text fill="#000000" font-family="sans-serif" font-size="20" lengthAdjust="spacing" textLength="347" x="416.5" y="534.2363">Uninstall AUT from Android Device</text><polygon fill="#000000" points="420.5,574.2344,410.5,578.2344,420.5,582.2344,416.5,578.2344" style="stroke:#000000;stroke-width:1.0;"/><line style="stroke:#000000;stroke-width:1.0;stroke-dasharray:2.0,2.0;" x1="414.5" x2="779.5" y1="578.2344" y2="578.2344"/><text fill="#000000" font-family="sans-serif" font-size="20" lengthAdjust="spacing" textLength="161" x="426.5" y="571.5176">AUT Uninstalled</text><polygon fill="#000000" points="763.5,611.5156,773.5,615.5156,763.5,619.5156,767.5,615.5156" style="stroke:#000000;stroke-width:1.0;"/><line style="stroke:#000000;stroke-width:1.0;" x1="409.5" x2="769.5" y1="615.5156" y2="615.5156"/><text fill="#000000" font-family="sans-serif" font-size="20" lengthAdjust="spacing" textLength="260" x="416.5" y="608.7988">Shutdown Android Device</text><polygon fill="#000000" points="420.5,648.7969,410.5,652.7969,420.5,656.7969,416.5,652.7969" style="stroke:#000000;stroke-width:1.0;"/><line style="stroke:#000000;stroke-width:1.0;stroke-dasharray:2.0,2.0;" x1="414.5" x2="779.5" y1="652.7969" y2="652.7969"/><text fill="#000000" font-family="sans-serif" font-size="20" lengthAdjust="spacing" textLength="260" x="426.5" y="646.0801">Android Device Shutdown</text><line style="stroke:#000000;stroke-width:1.0;stroke-dasharray:2.0,2.0;" x1="350.5" x2="1302.5" y1="661.7969" y2="661.7969"/><text fill="#000000" font-family="sans-serif" font-size="20" font-weight="bold" lengthAdjust="spacing" textLength="210" x="355.5" y="680.3613">[Test Plan for iOS]</text><polygon fill="#000000" points="1083.5,711.3594,1093.5,715.3594,1083.5,719.3594,1087.5,715.3594" style="stroke:#000000;stroke-width:1.0;"/><line style="stroke:#000000;stroke-width:1.0;" x1="409.5" x2="1089.5" y1="715.3594" y2="715.3594"/><text fill="#000000" font-family="sans-serif" font-size="20" lengthAdjust="spacing" textLength="160" x="416.5" y="708.6426">Boot iOS Device</text><polygon fill="#000000" points="420.5,748.6406,410.5,752.6406,420.5,756.6406,416.5,752.6406" style="stroke:#000000;stroke-width:1.0;"/><line style="stroke:#000000;stroke-width:1.0;stroke-dasharray:2.0,2.0;" x1="414.5" x2="1099.5" y1="752.6406" y2="752.6406"/><text fill="#000000" font-family="sans-serif" font-size="20" lengthAdjust="spacing" textLength="176" x="426.5" y="745.9238">iOS Device Ready</text><polygon fill="#000000" points="1083.5,785.9219,1093.5,789.9219,1083.5,793.9219,1087.5,789.9219" style="stroke:#000000;stroke-width:1.0;"/><line style="stroke:#000000;stroke-width:1.0;" x1="409.5" x2="1089.5" y1="789.9219" y2="789.9219"/><text fill="#000000" font-family="sans-serif" font-size="20" lengthAdjust="spacing" textLength="253" x="416.5" y="783.2051">Install AUT on iOS Device</text><polygon fill="#000000" points="420.5,823.2031,410.5,827.2031,420.5,831.2031,416.5,827.2031" style="stroke:#000000;stroke-width:1.0;"/><line style="stroke:#000000;stroke-width:1.0;stroke-dasharray:2.0,2.0;" x1="414.5" x2="1099.5" y1="827.2031" y2="827.2031"/><text fill="#000000" font-family="sans-serif" font-size="20" lengthAdjust="spacing" textLength="133" x="426.5" y="820.4863">AUT Installed</text><polygon fill="#000000" points="1215,860.4844,1225,864.4844,1215,868.4844,1219,864.4844" style="stroke:#000000;stroke-width:1.0;"/><line style="stroke:#000000;stroke-width:1.0;" x1="409.5" x2="1221" y1="864.4844" y2="864.4844"/><text fill="#000000" font-family="sans-serif" font-size="20" lengthAdjust="spacing" textLength="265" x="416.5" y="857.7676">Launch AUT on iOS Device</text><polygon fill="#000000" points="420.5,897.7656,410.5,901.7656,420.5,905.7656,416.5,901.7656" style="stroke:#000000;stroke-width:1.0;"/><line style="stroke:#000000;stroke-width:1.0;stroke-dasharray:2.0,2.0;" x1="414.5" x2="1231" y1="901.7656" y2="901.7656"/><text fill="#000000" font-family="sans-serif" font-size="20" lengthAdjust="spacing" textLength="145" x="426.5" y="895.0488">AUT Launched</text><polygon fill="#000000" points="1083.5,935.0469,1093.5,939.0469,1083.5,943.0469,1087.5,939.0469" style="stroke:#000000;stroke-width:1.0;"/><line style="stroke:#000000;stroke-width:1.0;" x1="409.5" x2="1089.5" y1="939.0469" y2="939.0469"/><text fill="#000000" font-family="sans-serif" font-size="20" lengthAdjust="spacing" textLength="239" x="416.5" y="932.3301">Execute Test Plan Steps</text><polygon fill="#000000" points="420.5,972.3281,410.5,976.3281,420.5,980.3281,416.5,976.3281" style="stroke:#000000;stroke-width:1.0;"/><line style="stroke:#000000;stroke-width:1.0;stroke-dasharray:2.0,2.0;" x1="414.5" x2="1099.5" y1="976.3281" y2="976.3281"/><text fill="#000000" font-family="sans-serif" font-size="20" lengthAdjust="spacing" textLength="252" x="426.5" y="969.6113">Test Plan Steps Executed</text><polygon fill="#000000" points="1083.5,1009.6094,1093.5,1013.6094,1083.5,1017.6094,1087.5,1013.6094" style="stroke:#000000;stroke-width:1.0;"/><line style="stroke:#000000;stroke-width:1.0;" x1="409.5" x2="1089.5" y1="1013.6094" y2="1013.6094"/><text fill="#000000" font-family="sans-serif" font-size="20" lengthAdjust="spacing" textLength="303" x="416.5" y="1006.8926">Uninstall AUT from iOS Device</text><polygon fill="#000000" points="420.5,1046.8906,410.5,1050.8906,420.5,1054.8906,416.5,1050.8906" style="stroke:#000000;stroke-width:1.0;"/><line style="stroke:#000000;stroke-width:1.0;stroke-dasharray:2.0,2.0;" x1="414.5" x2="1099.5" y1="1050.8906" y2="1050.8906"/><text fill="#000000" font-family="sans-serif" font-size="20" lengthAdjust="spacing" textLength="161" x="426.5" y="1044.1738">AUT Uninstalled</text><polygon fill="#000000" points="1083.5,1084.1719,1093.5,1088.1719,1083.5,1092.1719,1087.5,1088.1719" style="stroke:#000000;stroke-width:1.0;"/><line style="stroke:#000000;stroke-width:1.0;" x1="409.5" x2="1089.5" y1="1088.1719" y2="1088.1719"/><text fill="#000000" font-family="sans-serif" font-size="20" lengthAdjust="spacing" textLength="216" x="416.5" y="1081.4551">Shutdown iOS Device</text><polygon fill="#000000" points="420.5,1121.4531,410.5,1125.4531,420.5,1129.4531,416.5,1125.4531" style="stroke:#000000;stroke-width:1.0;"/><line style="stroke:#000000;stroke-width:1.0;stroke-dasharray:2.0,2.0;" x1="414.5" x2="1099.5" y1="1125.4531" y2="1125.4531"/><text fill="#000000" font-family="sans-serif" font-size="20" lengthAdjust="spacing" textLength="216" x="426.5" y="1118.7363">iOS Device Shutdown</text><polygon fill="#000000" points="1346,1165.7344,1356,1169.7344,1346,1173.7344,1350,1169.7344" style="stroke:#000000;stroke-width:1.0;"/><line style="stroke:#000000;stroke-width:1.0;" x1="409.5" x2="1352" y1="1169.7344" y2="1169.7344"/><text fill="#000000" font-family="sans-serif" font-size="20" lengthAdjust="spacing" textLength="224" x="416.5" y="1163.0176">Save Test Plan Results</text><polygon fill="#000000" points="420.5,1203.0156,410.5,1207.0156,420.5,1211.0156,416.5,1207.0156" style="stroke:#000000;stroke-width:1.0;"/><line style="stroke:#000000;stroke-width:1.0;stroke-dasharray:2.0,2.0;" x1="414.5" x2="1362" y1="1207.0156" y2="1207.0156"/><text fill="#000000" font-family="sans-serif" font-size="20" lengthAdjust="spacing" textLength="140" x="426.5" y="1200.2988">Results Saved</text><polygon fill="#000000" points="69.5,1240.2969,59.5,1244.2969,69.5,1248.2969,65.5,1244.2969" style="stroke:#000000;stroke-width:1.0;"/><line style="stroke:#000000;stroke-width:1.0;" x1="63.5" x2="403.5" y1="1244.2969" y2="1244.2969"/><text fill="#000000" font-family="sans-serif" font-size="20" lengthAdjust="spacing" textLength="312" x="75.5" y="1237.5801">Test Plan Execution Completed</text><!--SRC=[jLPDSzem4BthL-mqb-H09j0cJHY6ASPs1qeccG0vzI9iXQYH9IhBJcYd_xth3y1s34DAwfEzsdrwsjqdR_Z4vO9g6WZbFJ4VVFP08s5S9SsO_sBGEYF4S2COZ5ZC13IX0NUHX0aB3TmAAWbvv3u35YpC4W8Mp9WE2GbNiE096eRmcm0-5lMUvbf5qkyheNId4rCHiPlP3-QPRXUEx0kdvrxMksgbKX_NTYpxhDudP3hc7akXccxBiUhS4C9nhvpFwLfFQ_MScIs1VkHFaVi2BNJEwjd3aMEvvwwLX53FeC5ECgGMJ0CDmIO4GGpt-89A0n_6oz2mu4EobBsMbpiTvyKmBQdeTh_BdlIrudw2YET9Wt9JPjaPEvt0SUvzaeLE9xrT4VncNDm9F_VS1JtNEmnsUTlKq1aDCtpRIXF6OseOfic6HZTFIHlksCyewIoZG9UwR1sG9uyAirc51yn-VkIqL9bJ0bnAMniix28ePpSDMCENqvosID42ZGBPCWvof_uo3V7P3hojt0OoD5I899cWvFknHBWSclbleeTjquOHZQJtk1UffCrIBlZoYaA6KyDW5RKrByuByoBqt9HxRDWY_FUCL81M6_W7r6ugUQ5w3re5xrg_DVn19CUFaV7Li_nV0bZXxwR8HCWgqiLxfC9yVGVbajrSKMMscxigCQ-_IYmtiVKIBMFKSgX8yn0sE-MuZKfolrQbk8r4UXVdCXoyHOQ3xUVVIuBxd7vVwUrHanh97LgN7JBRWz1QNk_KhDlaL8PXqWVy6LPesHRoeN6nOdSinC6kKZCx6v5igqGYTqqHNcKY3odiLInhLb2E_TbNmKAmcjhcV_0gB4ajN_0yKI08IT3Cz7e4CGwK2Lxpj7NM-dZQF1xZO334hLfNq6orpo_RvnSmdVGXMJuXnrzlHn2gI6C6VHuQpMSfdnCof35DPbV30wpMpOB9eVrjPG17nbmh6J1foF3-UkDmyQbXSGDZd2rnihk_9dOs8cE4ftmkvzYA4xTnIKPKpYCS5zjO4zB7ET7ePHja9CHV]--></g></svg>