<?xml version="1.0" encoding="UTF-8" standalone="no"?><svg xmlns="http://www.w3.org/2000/svg" xmlns:xlink="http://www.w3.org/1999/xlink" contentStyleType="text/css" height="1435px" preserveAspectRatio="none" style="width:1652px;height:1435px;background:#FFFFFF;" version="1.1" viewBox="0 0 1652 1435" width="1652px" zoomAndPan="magnify"><defs/><g><text fill="#000000" font-family="sans-serif" font-size="14" font-weight="bold" lengthAdjust="spacing" textLength="181" x="734.5" y="27.9951">Level 2 - Run Test Plan</text><rect fill="#DDDDDD" height="1386.4063" style="stroke:#181818;stroke-width:0.5;" width="606" x="308" y="43.2969"/><text fill="#000000" font-family="sans-serif" font-size="20" font-weight="bold" lengthAdjust="spacing" textLength="586" x="318" y="61.8613">«System» Melmac Performance Testing Framework</text><rect fill="#FFFFFF" height="1183.2813" style="stroke:#181818;stroke-width:1.0;" width="10" x="53.5" y="142.1406"/><rect fill="#FFFFFF" height="1154" style="stroke:#181818;stroke-width:1.0;" width="10" x="399.5" y="171.4219"/><rect fill="#FFFFFF" height="186.4063" style="stroke:#181818;stroke-width:1.0;" width="10" x="812.5" y="871.0469"/><rect fill="#FFFFFF" height="37.2813" style="stroke:#181818;stroke-width:1.0;" width="10" x="998" y="249.2656"/><rect fill="#FFFFFF" height="37.2813" style="stroke:#181818;stroke-width:1.0;" width="10" x="998" y="323.8281"/><rect fill="#FFFFFF" height="37.2813" style="stroke:#181818;stroke-width:1.0;" width="10" x="998" y="472.9531"/><rect fill="#FFFFFF" height="37.2813" style="stroke:#181818;stroke-width:1.0;" width="10" x="998" y="547.5156"/><rect fill="#FFFFFF" height="37.2813" style="stroke:#181818;stroke-width:1.0;" width="10" x="998" y="622.0781"/><rect fill="#FFFFFF" height="37.2813" style="stroke:#181818;stroke-width:1.0;" width="10" x="1169" y="398.3906"/><rect fill="#FFFFFF" height="37.2813" style="stroke:#181818;stroke-width:1.0;" width="10" x="1318" y="721.9219"/><rect fill="#FFFFFF" height="37.2813" style="stroke:#181818;stroke-width:1.0;" width="10" x="1318" y="796.4844"/><rect fill="#FFFFFF" height="37.2813" style="stroke:#181818;stroke-width:1.0;" width="10" x="1318" y="982.8906"/><rect fill="#FFFFFF" height="37.2813" style="stroke:#181818;stroke-width:1.0;" width="10" x="1318" y="1094.7344"/><rect fill="#FFFFFF" height="37.2813" style="stroke:#181818;stroke-width:1.0;" width="10" x="1318" y="1169.2969"/><rect fill="#FFFFFF" height="37.2813" style="stroke:#181818;stroke-width:1.0;" width="10" x="1449.5" y="908.3281"/><rect fill="#FFFFFF" height="37.2813" style="stroke:#181818;stroke-width:1.0;" width="10" x="1580.5" y="1250.8594"/><rect fill="#EBF5FB" height="1028.1563" style="stroke:#000000;stroke-width:1.5;" width="1223" x="302" y="186.4219"/><rect fill="#EBF5FB" height="547.2188" style="stroke:none;stroke-width:1.0;" width="1223" x="302" y="667.3594"/><line style="stroke:#181818;stroke-width:0.5;stroke-dasharray:5.0,5.0;" x1="58" x2="58" y1="132.1406" y2="1343.4219"/><line style="stroke:#181818;stroke-width:0.5;stroke-dasharray:5.0,5.0;" x1="404" x2="404" y1="132.1406" y2="1343.4219"/><line style="stroke:#181818;stroke-width:0.5;stroke-dasharray:5.0,5.0;" x1="817" x2="817" y1="132.1406" y2="1343.4219"/><line style="stroke:#181818;stroke-width:0.5;stroke-dasharray:5.0,5.0;" x1="1003" x2="1003" y1="132.1406" y2="1343.4219"/><line style="stroke:#181818;stroke-width:0.5;stroke-dasharray:5.0,5.0;" x1="1174" x2="1174" y1="132.1406" y2="1343.4219"/><line style="stroke:#181818;stroke-width:0.5;stroke-dasharray:5.0,5.0;" x1="1323" x2="1323" y1="132.1406" y2="1343.4219"/><line style="stroke:#181818;stroke-width:0.5;stroke-dasharray:5.0,5.0;" x1="1454" x2="1454" y1="132.1406" y2="1343.4219"/><line style="stroke:#181818;stroke-width:0.5;stroke-dasharray:5.0,5.0;" x1="1585" x2="1585" y1="132.1406" y2="1343.4219"/><text fill="#000000" font-family="sans-serif" font-size="20" lengthAdjust="spacing" textLength="101" x="5" y="127.4238">Developer</text><ellipse cx="58.5" cy="57.3594" fill="#E2E2F0" rx="8" ry="8" style="stroke:#181818;stroke-width:0.5;"/><path d="M58.5,65.3594 L58.5,92.3594 M45.5,73.3594 L71.5,73.3594 M58.5,92.3594 L45.5,107.3594 M58.5,92.3594 L71.5,107.3594 " fill="none" style="stroke:#181818;stroke-width:0.5;"/><text fill="#000000" font-family="sans-serif" font-size="20" lengthAdjust="spacing" textLength="101" x="5" y="1360.9863">Developer</text><ellipse cx="58.5" cy="1374.2031" fill="#E2E2F0" rx="8" ry="8" style="stroke:#181818;stroke-width:0.5;"/><path d="M58.5,1382.2031 L58.5,1409.2031 M45.5,1390.2031 L71.5,1390.2031 M58.5,1409.2031 L45.5,1424.2031 M58.5,1409.2031 L71.5,1424.2031 " fill="none" style="stroke:#181818;stroke-width:0.5;"/><rect fill="#E2E2F0" height="60.5625" rx="2.5" ry="2.5" style="stroke:#181818;stroke-width:0.5;" width="185" x="312" y="70.5781"/><text fill="#000000" font-family="sans-serif" font-size="20" lengthAdjust="spacing" textLength="171" x="319" y="96.1426">«Container (C4)»</text><text fill="#000000" font-family="sans-serif" font-size="20" lengthAdjust="spacing" textLength="105" x="352" y="119.4238">MelmacBE</text><rect fill="#E2E2F0" height="60.5625" rx="2.5" ry="2.5" style="stroke:#181818;stroke-width:0.5;" width="185" x="312" y="1342.4219"/><text fill="#000000" font-family="sans-serif" font-size="20" lengthAdjust="spacing" textLength="171" x="319" y="1367.9863">«Container (C4)»</text><text fill="#000000" font-family="sans-serif" font-size="20" lengthAdjust="spacing" textLength="105" x="352" y="1391.2676">MelmacBE</text><rect fill="#E2E2F0" height="60.5625" rx="2.5" ry="2.5" style="stroke:#181818;stroke-width:0.5;" width="185" x="725" y="70.5781"/><text fill="#000000" font-family="sans-serif" font-size="20" lengthAdjust="spacing" textLength="171" x="732" y="96.1426">«Container (C4)»</text><text fill="#000000" font-family="sans-serif" font-size="20" lengthAdjust="spacing" textLength="133" x="751" y="119.4238">DriverRunner</text><rect fill="#E2E2F0" height="60.5625" rx="2.5" ry="2.5" style="stroke:#181818;stroke-width:0.5;" width="185" x="725" y="1342.4219"/><text fill="#000000" font-family="sans-serif" font-size="20" lengthAdjust="spacing" textLength="171" x="732" y="1367.9863">«Container (C4)»</text><text fill="#000000" font-family="sans-serif" font-size="20" lengthAdjust="spacing" textLength="133" x="751" y="1391.2676">DriverRunner</text><rect fill="#E2E2F0" height="60.5625" rx="2.5" ry="2.5" style="stroke:#181818;stroke-width:0.5;" width="166" x="920" y="70.5781"/><text fill="#000000" font-family="sans-serif" font-size="20" lengthAdjust="spacing" textLength="107" x="949.5" y="96.1426">«External»</text><text fill="#000000" font-family="sans-serif" font-size="20" lengthAdjust="spacing" textLength="152" x="927" y="119.4238">Android Device</text><rect fill="#E2E2F0" height="60.5625" rx="2.5" ry="2.5" style="stroke:#181818;stroke-width:0.5;" width="166" x="920" y="1342.4219"/><text fill="#000000" font-family="sans-serif" font-size="20" lengthAdjust="spacing" textLength="107" x="949.5" y="1367.9863">«External»</text><text fill="#000000" font-family="sans-serif" font-size="20" lengthAdjust="spacing" textLength="152" x="927" y="1391.2676">Android Device</text><rect fill="#E2E2F0" height="60.5625" rx="2.5" ry="2.5" style="stroke:#181818;stroke-width:0.5;" width="156" x="1096" y="70.5781"/><text fill="#000000" font-family="sans-serif" font-size="20" lengthAdjust="spacing" textLength="107" x="1120.5" y="96.1426">«External»</text><text fill="#000000" font-family="sans-serif" font-size="20" lengthAdjust="spacing" textLength="142" x="1103" y="119.4238">AUT (Android)</text><rect fill="#E2E2F0" height="60.5625" rx="2.5" ry="2.5" style="stroke:#181818;stroke-width:0.5;" width="156" x="1096" y="1342.4219"/><text fill="#000000" font-family="sans-serif" font-size="20" lengthAdjust="spacing" textLength="107" x="1120.5" y="1367.9863">«External»</text><text fill="#000000" font-family="sans-serif" font-size="20" lengthAdjust="spacing" textLength="142" x="1103" y="1391.2676">AUT (Android)</text><rect fill="#E2E2F0" height="60.5625" rx="2.5" ry="2.5" style="stroke:#181818;stroke-width:0.5;" width="122" x="1262" y="70.5781"/><text fill="#000000" font-family="sans-serif" font-size="20" lengthAdjust="spacing" textLength="107" x="1269.5" y="96.1426">«External»</text><text fill="#000000" font-family="sans-serif" font-size="20" lengthAdjust="spacing" textLength="108" x="1269" y="119.4238">iOS Device</text><rect fill="#E2E2F0" height="60.5625" rx="2.5" ry="2.5" style="stroke:#181818;stroke-width:0.5;" width="122" x="1262" y="1342.4219"/><text fill="#000000" font-family="sans-serif" font-size="20" lengthAdjust="spacing" textLength="107" x="1269.5" y="1367.9863">«External»</text><text fill="#000000" font-family="sans-serif" font-size="20" lengthAdjust="spacing" textLength="108" x="1269" y="1391.2676">iOS Device</text><rect fill="#E2E2F0" height="60.5625" rx="2.5" ry="2.5" style="stroke:#181818;stroke-width:0.5;" width="121" x="1394" y="70.5781"/><text fill="#000000" font-family="sans-serif" font-size="20" lengthAdjust="spacing" textLength="107" x="1401" y="96.1426">«External»</text><text fill="#000000" font-family="sans-serif" font-size="20" lengthAdjust="spacing" textLength="98" x="1405.5" y="119.4238">AUT (iOS)</text><rect fill="#E2E2F0" height="60.5625" rx="2.5" ry="2.5" style="stroke:#181818;stroke-width:0.5;" width="121" x="1394" y="1342.4219"/><text fill="#000000" font-family="sans-serif" font-size="20" lengthAdjust="spacing" textLength="107" x="1401" y="1367.9863">«External»</text><text fill="#000000" font-family="sans-serif" font-size="20" lengthAdjust="spacing" textLength="98" x="1405.5" y="1391.2676">AUT (iOS)</text><rect fill="#E2E2F0" height="60.5625" rx="2.5" ry="2.5" style="stroke:#181818;stroke-width:0.5;" width="121" x="1525" y="70.5781"/><text fill="#000000" font-family="sans-serif" font-size="20" lengthAdjust="spacing" textLength="107" x="1532" y="96.1426">«External»</text><text fill="#000000" font-family="sans-serif" font-size="20" lengthAdjust="spacing" textLength="94" x="1538.5" y="119.4238">Database</text><rect fill="#E2E2F0" height="60.5625" rx="2.5" ry="2.5" style="stroke:#181818;stroke-width:0.5;" width="121" x="1525" y="1342.4219"/><text fill="#000000" font-family="sans-serif" font-size="20" lengthAdjust="spacing" textLength="107" x="1532" y="1367.9863">«External»</text><text fill="#000000" font-family="sans-serif" font-size="20" lengthAdjust="spacing" textLength="94" x="1538.5" y="1391.2676">Database</text><rect fill="#FFFFFF" height="1183.2813" style="stroke:#181818;stroke-width:1.0;" width="10" x="53.5" y="142.1406"/><rect fill="#FFFFFF" height="1154" style="stroke:#181818;stroke-width:1.0;" width="10" x="399.5" y="171.4219"/><rect fill="#FFFFFF" height="186.4063" style="stroke:#181818;stroke-width:1.0;" width="10" x="812.5" y="871.0469"/><rect fill="#FFFFFF" height="37.2813" style="stroke:#181818;stroke-width:1.0;" width="10" x="998" y="249.2656"/><rect fill="#FFFFFF" height="37.2813" style="stroke:#181818;stroke-width:1.0;" width="10" x="998" y="323.8281"/><rect fill="#FFFFFF" height="37.2813" style="stroke:#181818;stroke-width:1.0;" width="10" x="998" y="472.9531"/><rect fill="#FFFFFF" height="37.2813" style="stroke:#181818;stroke-width:1.0;" width="10" x="998" y="547.5156"/><rect fill="#FFFFFF" height="37.2813" style="stroke:#181818;stroke-width:1.0;" width="10" x="998" y="622.0781"/><rect fill="#FFFFFF" height="37.2813" style="stroke:#181818;stroke-width:1.0;" width="10" x="1169" y="398.3906"/><rect fill="#FFFFFF" height="37.2813" style="stroke:#181818;stroke-width:1.0;" width="10" x="1318" y="721.9219"/><rect fill="#FFFFFF" height="37.2813" style="stroke:#181818;stroke-width:1.0;" width="10" x="1318" y="796.4844"/><rect fill="#FFFFFF" height="37.2813" style="stroke:#181818;stroke-width:1.0;" width="10" x="1318" y="982.8906"/><rect fill="#FFFFFF" height="37.2813" style="stroke:#181818;stroke-width:1.0;" width="10" x="1318" y="1094.7344"/><rect fill="#FFFFFF" height="37.2813" style="stroke:#181818;stroke-width:1.0;" width="10" x="1318" y="1169.2969"/><rect fill="#FFFFFF" height="37.2813" style="stroke:#181818;stroke-width:1.0;" width="10" x="1449.5" y="908.3281"/><rect fill="#FFFFFF" height="37.2813" style="stroke:#181818;stroke-width:1.0;" width="10" x="1580.5" y="1250.8594"/><polygon fill="#000000" points="387.5,167.4219,397.5,171.4219,387.5,175.4219,391.5,171.4219" style="stroke:#000000;stroke-width:1.0;"/><line style="stroke:#000000;stroke-width:1.0;" x1="63.5" x2="393.5" y1="171.4219" y2="171.4219"/><text fill="#000000" font-family="sans-serif" font-size="20" lengthAdjust="spacing" textLength="245" x="70.5" y="164.7051">Request to run Test Plan</text><path d="M302,186.4219 L378,186.4219 L378,201.7031 L368,211.7031 L302,211.7031 L302,186.4219 " fill="#EEEEEE" style="stroke:#000000;stroke-width:1.5;"/><rect fill="none" height="1028.1563" style="stroke:#000000;stroke-width:1.5;" width="1223" x="302" y="186.4219"/><text fill="#000000" font-family="sans-serif" font-size="20" font-weight="bold" lengthAdjust="spacing" textLength="31" x="317" y="205.9863">alt</text><text fill="#000000" font-family="sans-serif" font-size="20" font-weight="bold" lengthAdjust="spacing" textLength="260" x="393" y="206.9863">[Test Plan for Android]</text><polygon fill="#000000" points="986,245.2656,996,249.2656,986,253.2656,990,249.2656" style="stroke:#000000;stroke-width:1.0;"/><line style="stroke:#000000;stroke-width:1.0;" x1="409.5" x2="992" y1="249.2656" y2="249.2656"/><text fill="#000000" font-family="sans-serif" font-size="20" lengthAdjust="spacing" textLength="204" x="416.5" y="242.5488">Boot Android Device</text><polygon fill="#000000" points="420.5,282.5469,410.5,286.5469,420.5,290.5469,416.5,286.5469" style="stroke:#000000;stroke-width:1.0;"/><line style="stroke:#000000;stroke-width:1.0;stroke-dasharray:2.0,2.0;" x1="414.5" x2="1002" y1="286.5469" y2="286.5469"/><text fill="#000000" font-family="sans-serif" font-size="20" lengthAdjust="spacing" textLength="220" x="426.5" y="279.8301">Android Device Ready</text><polygon fill="#000000" points="986,319.8281,996,323.8281,986,327.8281,990,323.8281" style="stroke:#000000;stroke-width:1.0;"/><line style="stroke:#000000;stroke-width:1.0;" x1="409.5" x2="992" y1="323.8281" y2="323.8281"/><text fill="#000000" font-family="sans-serif" font-size="20" lengthAdjust="spacing" textLength="297" x="416.5" y="317.1113">Install AUT on Android Device</text><polygon fill="#000000" points="420.5,357.1094,410.5,361.1094,420.5,365.1094,416.5,361.1094" style="stroke:#000000;stroke-width:1.0;"/><line style="stroke:#000000;stroke-width:1.0;stroke-dasharray:2.0,2.0;" x1="414.5" x2="1002" y1="361.1094" y2="361.1094"/><text fill="#000000" font-family="sans-serif" font-size="20" lengthAdjust="spacing" textLength="133" x="426.5" y="354.3926">AUT Installed</text><polygon fill="#000000" points="1157,394.3906,1167,398.3906,1157,402.3906,1161,398.3906" style="stroke:#000000;stroke-width:1.0;"/><line style="stroke:#000000;stroke-width:1.0;" x1="409.5" x2="1163" y1="398.3906" y2="398.3906"/><text fill="#000000" font-family="sans-serif" font-size="20" lengthAdjust="spacing" textLength="309" x="416.5" y="391.6738">Launch AUT on Android Device</text><polygon fill="#000000" points="420.5,431.6719,410.5,435.6719,420.5,439.6719,416.5,435.6719" style="stroke:#000000;stroke-width:1.0;"/><line style="stroke:#000000;stroke-width:1.0;stroke-dasharray:2.0,2.0;" x1="414.5" x2="1173" y1="435.6719" y2="435.6719"/><text fill="#000000" font-family="sans-serif" font-size="20" lengthAdjust="spacing" textLength="145" x="426.5" y="428.9551">AUT Launched</text><polygon fill="#000000" points="986,468.9531,996,472.9531,986,476.9531,990,472.9531" style="stroke:#000000;stroke-width:1.0;"/><line style="stroke:#000000;stroke-width:1.0;" x1="409.5" x2="992" y1="472.9531" y2="472.9531"/><text fill="#000000" font-family="sans-serif" font-size="20" lengthAdjust="spacing" textLength="239" x="416.5" y="466.2363">Execute Test Plan Steps</text><polygon fill="#000000" points="420.5,506.2344,410.5,510.2344,420.5,514.2344,416.5,510.2344" style="stroke:#000000;stroke-width:1.0;"/><line style="stroke:#000000;stroke-width:1.0;stroke-dasharray:2.0,2.0;" x1="414.5" x2="1002" y1="510.2344" y2="510.2344"/><text fill="#000000" font-family="sans-serif" font-size="20" lengthAdjust="spacing" textLength="252" x="426.5" y="503.5176">Test Plan Steps Executed</text><polygon fill="#000000" points="986,543.5156,996,547.5156,986,551.5156,990,547.5156" style="stroke:#000000;stroke-width:1.0;"/><line style="stroke:#000000;stroke-width:1.0;" x1="409.5" x2="992" y1="547.5156" y2="547.5156"/><text fill="#000000" font-family="sans-serif" font-size="20" lengthAdjust="spacing" textLength="347" x="416.5" y="540.7988">Uninstall AUT from Android Device</text><polygon fill="#000000" points="420.5,580.7969,410.5,584.7969,420.5,588.7969,416.5,584.7969" style="stroke:#000000;stroke-width:1.0;"/><line style="stroke:#000000;stroke-width:1.0;stroke-dasharray:2.0,2.0;" x1="414.5" x2="1002" y1="584.7969" y2="584.7969"/><text fill="#000000" font-family="sans-serif" font-size="20" lengthAdjust="spacing" textLength="161" x="426.5" y="578.0801">AUT Uninstalled</text><polygon fill="#000000" points="986,618.0781,996,622.0781,986,626.0781,990,622.0781" style="stroke:#000000;stroke-width:1.0;"/><line style="stroke:#000000;stroke-width:1.0;" x1="409.5" x2="992" y1="622.0781" y2="622.0781"/><text fill="#000000" font-family="sans-serif" font-size="20" lengthAdjust="spacing" textLength="260" x="416.5" y="615.3613">Shutdown Android Device</text><polygon fill="#000000" points="420.5,655.3594,410.5,659.3594,420.5,663.3594,416.5,659.3594" style="stroke:#000000;stroke-width:1.0;"/><line style="stroke:#000000;stroke-width:1.0;stroke-dasharray:2.0,2.0;" x1="414.5" x2="1002" y1="659.3594" y2="659.3594"/><text fill="#000000" font-family="sans-serif" font-size="20" lengthAdjust="spacing" textLength="260" x="426.5" y="652.6426">Android Device Shutdown</text><line style="stroke:#000000;stroke-width:1.0;stroke-dasharray:2.0,2.0;" x1="302" x2="1525" y1="668.3594" y2="668.3594"/><text fill="#000000" font-family="sans-serif" font-size="20" font-weight="bold" lengthAdjust="spacing" textLength="210" x="307" y="686.9238">[Test Plan for iOS]</text><polygon fill="#000000" points="1306,717.9219,1316,721.9219,1306,725.9219,1310,721.9219" style="stroke:#000000;stroke-width:1.0;"/><line style="stroke:#000000;stroke-width:1.0;" x1="409.5" x2="1312" y1="721.9219" y2="721.9219"/><text fill="#000000" font-family="sans-serif" font-size="20" lengthAdjust="spacing" textLength="160" x="416.5" y="715.2051">Boot iOS Device</text><polygon fill="#000000" points="420.5,755.2031,410.5,759.2031,420.5,763.2031,416.5,759.2031" style="stroke:#000000;stroke-width:1.0;"/><line style="stroke:#000000;stroke-width:1.0;stroke-dasharray:2.0,2.0;" x1="414.5" x2="1322" y1="759.2031" y2="759.2031"/><text fill="#000000" font-family="sans-serif" font-size="20" lengthAdjust="spacing" textLength="176" x="426.5" y="752.4863">iOS Device Ready</text><polygon fill="#000000" points="1306,792.4844,1316,796.4844,1306,800.4844,1310,796.4844" style="stroke:#000000;stroke-width:1.0;"/><line style="stroke:#000000;stroke-width:1.0;" x1="409.5" x2="1312" y1="796.4844" y2="796.4844"/><text fill="#000000" font-family="sans-serif" font-size="20" lengthAdjust="spacing" textLength="253" x="416.5" y="789.7676">Install AUT on iOS Device</text><polygon fill="#000000" points="420.5,829.7656,410.5,833.7656,420.5,837.7656,416.5,833.7656" style="stroke:#000000;stroke-width:1.0;"/><line style="stroke:#000000;stroke-width:1.0;stroke-dasharray:2.0,2.0;" x1="414.5" x2="1322" y1="833.7656" y2="833.7656"/><text fill="#000000" font-family="sans-serif" font-size="20" lengthAdjust="spacing" textLength="133" x="426.5" y="827.0488">AUT Installed</text><polygon fill="#000000" points="800.5,867.0469,810.5,871.0469,800.5,875.0469,804.5,871.0469" style="stroke:#000000;stroke-width:1.0;"/><line style="stroke:#000000;stroke-width:1.0;" x1="409.5" x2="806.5" y1="871.0469" y2="871.0469"/><text fill="#000000" font-family="sans-serif" font-size="20" lengthAdjust="spacing" textLength="384" x="416.5" y="864.3301">Execute Test Plan Steps on iOS Device</text><polygon fill="#000000" points="1437.5,904.3281,1447.5,908.3281,1437.5,912.3281,1441.5,908.3281" style="stroke:#000000;stroke-width:1.0;"/><line style="stroke:#000000;stroke-width:1.0;" x1="822.5" x2="1443.5" y1="908.3281" y2="908.3281"/><text fill="#000000" font-family="sans-serif" font-size="20" lengthAdjust="spacing" textLength="265" x="829.5" y="901.6113">Launch AUT on iOS Device</text><polygon fill="#000000" points="833.5,941.6094,823.5,945.6094,833.5,949.6094,829.5,945.6094" style="stroke:#000000;stroke-width:1.0;"/><line style="stroke:#000000;stroke-width:1.0;stroke-dasharray:2.0,2.0;" x1="827.5" x2="1453.5" y1="945.6094" y2="945.6094"/><text fill="#000000" font-family="sans-serif" font-size="20" lengthAdjust="spacing" textLength="145" x="839.5" y="938.8926">AUT Launched</text><polygon fill="#000000" points="1306,978.8906,1316,982.8906,1306,986.8906,1310,982.8906" style="stroke:#000000;stroke-width:1.0;"/><line style="stroke:#000000;stroke-width:1.0;" x1="822.5" x2="1312" y1="982.8906" y2="982.8906"/><text fill="#000000" font-family="sans-serif" font-size="20" lengthAdjust="spacing" textLength="239" x="829.5" y="976.1738">Execute Test Plan Steps</text><polygon fill="#000000" points="833.5,1016.1719,823.5,1020.1719,833.5,1024.1719,829.5,1020.1719" style="stroke:#000000;stroke-width:1.0;"/><line style="stroke:#000000;stroke-width:1.0;stroke-dasharray:2.0,2.0;" x1="827.5" x2="1322" y1="1020.1719" y2="1020.1719"/><text fill="#000000" font-family="sans-serif" font-size="20" lengthAdjust="spacing" textLength="252" x="839.5" y="1013.4551">Test Plan Steps Executed</text><polygon fill="#000000" points="420.5,1053.4531,410.5,1057.4531,420.5,1061.4531,416.5,1057.4531" style="stroke:#000000;stroke-width:1.0;"/><line style="stroke:#000000;stroke-width:1.0;stroke-dasharray:2.0,2.0;" x1="414.5" x2="816.5" y1="1057.4531" y2="1057.4531"/><text fill="#000000" font-family="sans-serif" font-size="20" lengthAdjust="spacing" textLength="312" x="426.5" y="1050.7363">Return results for iOS Test Plan</text><polygon fill="#000000" points="1306,1090.7344,1316,1094.7344,1306,1098.7344,1310,1094.7344" style="stroke:#000000;stroke-width:1.0;"/><line style="stroke:#000000;stroke-width:1.0;" x1="409.5" x2="1312" y1="1094.7344" y2="1094.7344"/><text fill="#000000" font-family="sans-serif" font-size="20" lengthAdjust="spacing" textLength="303" x="416.5" y="1088.0176">Uninstall AUT from iOS Device</text><polygon fill="#000000" points="420.5,1128.0156,410.5,1132.0156,420.5,1136.0156,416.5,1132.0156" style="stroke:#000000;stroke-width:1.0;"/><line style="stroke:#000000;stroke-width:1.0;stroke-dasharray:2.0,2.0;" x1="414.5" x2="1322" y1="1132.0156" y2="1132.0156"/><text fill="#000000" font-family="sans-serif" font-size="20" lengthAdjust="spacing" textLength="161" x="426.5" y="1125.2988">AUT Uninstalled</text><polygon fill="#000000" points="1306,1165.2969,1316,1169.2969,1306,1173.2969,1310,1169.2969" style="stroke:#000000;stroke-width:1.0;"/><line style="stroke:#000000;stroke-width:1.0;" x1="409.5" x2="1312" y1="1169.2969" y2="1169.2969"/><text fill="#000000" font-family="sans-serif" font-size="20" lengthAdjust="spacing" textLength="216" x="416.5" y="1162.5801">Shutdown iOS Device</text><polygon fill="#000000" points="420.5,1202.5781,410.5,1206.5781,420.5,1210.5781,416.5,1206.5781" style="stroke:#000000;stroke-width:1.0;"/><line style="stroke:#000000;stroke-width:1.0;stroke-dasharray:2.0,2.0;" x1="414.5" x2="1322" y1="1206.5781" y2="1206.5781"/><text fill="#000000" font-family="sans-serif" font-size="20" lengthAdjust="spacing" textLength="216" x="426.5" y="1199.8613">iOS Device Shutdown</text><polygon fill="#000000" points="1568.5,1246.8594,1578.5,1250.8594,1568.5,1254.8594,1572.5,1250.8594" style="stroke:#000000;stroke-width:1.0;"/><line style="stroke:#000000;stroke-width:1.0;" x1="409.5" x2="1574.5" y1="1250.8594" y2="1250.8594"/><text fill="#000000" font-family="sans-serif" font-size="20" lengthAdjust="spacing" textLength="224" x="416.5" y="1244.1426">Save Test Plan Results</text><polygon fill="#000000" points="420.5,1284.1406,410.5,1288.1406,420.5,1292.1406,416.5,1288.1406" style="stroke:#000000;stroke-width:1.0;"/><line style="stroke:#000000;stroke-width:1.0;stroke-dasharray:2.0,2.0;" x1="414.5" x2="1584.5" y1="1288.1406" y2="1288.1406"/><text fill="#000000" font-family="sans-serif" font-size="20" lengthAdjust="spacing" textLength="140" x="426.5" y="1281.4238">Results Saved</text><polygon fill="#000000" points="69.5,1321.4219,59.5,1325.4219,69.5,1329.4219,65.5,1325.4219" style="stroke:#000000;stroke-width:1.0;"/><line style="stroke:#000000;stroke-width:1.0;" x1="63.5" x2="403.5" y1="1325.4219" y2="1325.4219"/><text fill="#000000" font-family="sans-serif" font-size="20" lengthAdjust="spacing" textLength="312" x="75.5" y="1318.7051">Test Plan Execution Completed</text><!--SRC=[jLPBJzj04BxlhnZ11Gv85FM9eaXnR4kHgAW8t7hPs0DiizvDTzS1MlM_T_pCEXWJfJIdU3pppUTl7hjsATIA6vv9dImnXHHlUIvTh9MRYry8PwUCEU4amWMkKS8PdC1Lhk0QhODlaYl6xaMAWDdAFK66sGADPSmsi918RYtyPa2_W2VBEwDpbKwrr6OqMdEPu-NY1oPkF8R3y6CqYJ_tkngjIvyuZ8BmjD_7ebcB14keT_5P5FIv4KGKVua-bUycnkY7oXn8ycD_VEuhil0xx6SFXr4GVuY38eGdZWnXeP1UeG5k8MHieH_XO3IQFrc76P7wYZBZ2Nn3SwjDnbM2fOn2tK5CwV11c-L1cOhIEv685LUkG9XIDRXG17mqVNyy7dzN5LGG7HIfWcYteD28DHgg7XdBGD_0KAL0Z1dRmeaU7Hh5PO4mKQdH8Ys-b7GkCMfJPHcClRc6ezhxk0gzkPuCHOZBkP-97dVCGfvjXjcGTyWTNt1RuOT1MKYnvWwfV26SZ4dQSxZ2dtdHxKw3wNH-wqm5uD9jtW3Ljn6cQfse0Ej8TGu1TJHq5IsTMzYkj6Mx-XOugGbsCOWlJvzAznG7i7evpPHrNCf2ED3gRTWHL0sBwSwqg3NEuOBdAhdVYKpHIYK7-jD9NM7qP6uYUdM87Z797NebdJjSsVqKs09fmDCzQtIZX5UbMwEpDwjJ2xqtkVbzxbBzeFv7OpVOmzHGMjmQHTe77kDsZzGZk5apNPQRVLEOswUMtIQkV-IwySzoRutQlYm6nwkFWh_qNspq8KQTKwDuunlguPrj3-zBOEM6hWTtLdvKbzyh8pph9U2flDCW3sdSfRFhA7SHk_pQOyNbHe51I_Sjs_IfTxniGJwJ_Lb7zIo6V-cgWMNmIcktI-0DHkkbeUz259SNEe9PtU81SU1hl-fNbSpU0H-mCF2AKLMXY4gPhthGOFh5hyekgA-dEbj9TDqWkW_u47y1]--></g></svg>