<?xml version="1.0" encoding="UTF-8" standalone="no"?><svg xmlns="http://www.w3.org/2000/svg" xmlns:xlink="http://www.w3.org/1999/xlink" contentStyleType="text/css" height="970px" preserveAspectRatio="none" style="width:2499px;height:970px;background:#FFFFFF;" version="1.1" viewBox="0 0 2499 970" width="2499px" zoomAndPan="magnify"><defs/><g><text fill="#000000" font-family="sans-serif" font-size="14" font-weight="bold" lengthAdjust="spacing" textLength="303" x="1097.25" y="27.9951">Level 3 - Run Test Plan (DriverRunner)</text><rect fill="#DDDDDD" height="920.75" style="stroke:#181818;stroke-width:0.5;" width="1807.5" x="427" y="43.2969"/><text fill="#000000" font-family="sans-serif" font-size="20" font-weight="bold" lengthAdjust="spacing" textLength="351" x="1155.25" y="61.8613">«Container (C4)» DriverRunner</text><rect fill="#FFFFFF" height="739.3438" style="stroke:#181818;stroke-width:1.0;" width="10" x="92.5" y="142.1406"/><rect fill="#FFFFFF" height="710.0625" style="stroke:#181818;stroke-width:1.0;" width="10" x="503.5" y="171.4219"/><rect fill="#FFFFFF" height="87.5625" style="stroke:#181818;stroke-width:1.0;" width="10" x="755.5" y="208.7031"/><rect fill="#FFFFFF" height="87.5625" style="stroke:#181818;stroke-width:1.0;" width="10" x="1143.5" y="333.5469"/><rect fill="#FFFFFF" height="87.5625" style="stroke:#181818;stroke-width:1.0;" width="10" x="1458.5" y="458.3906"/><rect fill="#FFFFFF" height="260.9688" style="stroke:#181818;stroke-width:1.0;" width="10" x="1761.5" y="583.2344"/><rect fill="#FFFFFF" height="111.8438" style="stroke:#181818;stroke-width:1.0;" width="10" x="2118.5" y="695.0781"/><rect fill="#FFFFFF" height="37.2813" style="stroke:#181818;stroke-width:1.0;" width="10" x="2296" y="620.5156"/><rect fill="#FFFFFF" height="37.2813" style="stroke:#181818;stroke-width:1.0;" width="10" x="2427.5" y="732.3594"/><line style="stroke:#181818;stroke-width:0.5;stroke-dasharray:5.0,5.0;" x1="97" x2="97" y1="132.1406" y2="899.4844"/><line style="stroke:#181818;stroke-width:0.5;stroke-dasharray:5.0,5.0;" x1="508" x2="508" y1="132.1406" y2="899.4844"/><line style="stroke:#181818;stroke-width:0.5;stroke-dasharray:5.0,5.0;" x1="760" x2="760" y1="132.1406" y2="899.4844"/><line style="stroke:#181818;stroke-width:0.5;stroke-dasharray:5.0,5.0;" x1="1148.5" x2="1148.5" y1="132.1406" y2="899.4844"/><line style="stroke:#181818;stroke-width:0.5;stroke-dasharray:5.0,5.0;" x1="1463.5" x2="1463.5" y1="132.1406" y2="899.4844"/><line style="stroke:#181818;stroke-width:0.5;stroke-dasharray:5.0,5.0;" x1="1766" x2="1766" y1="132.1406" y2="899.4844"/><line style="stroke:#181818;stroke-width:0.5;stroke-dasharray:5.0,5.0;" x1="2123.5" x2="2123.5" y1="132.1406" y2="899.4844"/><line style="stroke:#181818;stroke-width:0.5;stroke-dasharray:5.0,5.0;" x1="2300.5" x2="2300.5" y1="132.1406" y2="899.4844"/><line style="stroke:#181818;stroke-width:0.5;stroke-dasharray:5.0,5.0;" x1="2432.5" x2="2432.5" y1="132.1406" y2="899.4844"/><rect fill="#E2E2F0" height="60.5625" rx="2.5" ry="2.5" style="stroke:#181818;stroke-width:0.5;" width="185" x="5" y="70.5781"/><text fill="#000000" font-family="sans-serif" font-size="20" lengthAdjust="spacing" textLength="171" x="12" y="96.1426">«Container (C4)»</text><text fill="#000000" font-family="sans-serif" font-size="20" lengthAdjust="spacing" textLength="105" x="45" y="119.4238">MelmacBE</text><rect fill="#E2E2F0" height="60.5625" rx="2.5" ry="2.5" style="stroke:#181818;stroke-width:0.5;" width="185" x="5" y="898.4844"/><text fill="#000000" font-family="sans-serif" font-size="20" lengthAdjust="spacing" textLength="171" x="12" y="924.0488">«Container (C4)»</text><text fill="#000000" font-family="sans-serif" font-size="20" lengthAdjust="spacing" textLength="105" x="45" y="947.3301">MelmacBE</text><rect fill="#E2E2F0" height="60.5625" rx="2.5" ry="2.5" style="stroke:#181818;stroke-width:0.5;" width="155" x="431" y="70.5781"/><text fill="#000000" font-family="sans-serif" font-size="20" lengthAdjust="spacing" textLength="141" x="438" y="96.1426">«Component»</text><text fill="#000000" font-family="sans-serif" font-size="20" lengthAdjust="spacing" textLength="91" x="463" y="119.4238">XCUITest</text><rect fill="#E2E2F0" height="60.5625" rx="2.5" ry="2.5" style="stroke:#181818;stroke-width:0.5;" width="155" x="431" y="898.4844"/><text fill="#000000" font-family="sans-serif" font-size="20" lengthAdjust="spacing" textLength="141" x="438" y="924.0488">«Component»</text><text fill="#000000" font-family="sans-serif" font-size="20" lengthAdjust="spacing" textLength="91" x="463" y="947.3301">XCUITest</text><rect fill="#E2E2F0" height="60.5625" rx="2.5" ry="2.5" style="stroke:#181818;stroke-width:0.5;" width="155" x="683" y="70.5781"/><text fill="#000000" font-family="sans-serif" font-size="20" lengthAdjust="spacing" textLength="141" x="690" y="96.1426">«Component»</text><text fill="#000000" font-family="sans-serif" font-size="20" lengthAdjust="spacing" textLength="133" x="694" y="119.4238">ConfigLoader</text><rect fill="#E2E2F0" height="60.5625" rx="2.5" ry="2.5" style="stroke:#181818;stroke-width:0.5;" width="155" x="683" y="898.4844"/><text fill="#000000" font-family="sans-serif" font-size="20" lengthAdjust="spacing" textLength="141" x="690" y="924.0488">«Component»</text><text fill="#000000" font-family="sans-serif" font-size="20" lengthAdjust="spacing" textLength="133" x="694" y="947.3301">ConfigLoader</text><rect fill="#E2E2F0" height="60.5625" rx="2.5" ry="2.5" style="stroke:#181818;stroke-width:0.5;" width="214" x="1041.5" y="70.5781"/><text fill="#000000" font-family="sans-serif" font-size="20" lengthAdjust="spacing" textLength="141" x="1078" y="96.1426">«Component»</text><text fill="#000000" font-family="sans-serif" font-size="20" lengthAdjust="spacing" textLength="200" x="1048.5" y="119.4238">EnvironmentReader</text><rect fill="#E2E2F0" height="60.5625" rx="2.5" ry="2.5" style="stroke:#181818;stroke-width:0.5;" width="214" x="1041.5" y="898.4844"/><text fill="#000000" font-family="sans-serif" font-size="20" lengthAdjust="spacing" textLength="141" x="1078" y="924.0488">«Component»</text><text fill="#000000" font-family="sans-serif" font-size="20" lengthAdjust="spacing" textLength="200" x="1048.5" y="947.3301">EnvironmentReader</text><rect fill="#E2E2F0" height="60.5625" rx="2.5" ry="2.5" style="stroke:#181818;stroke-width:0.5;" width="174" x="1376.5" y="70.5781"/><text fill="#000000" font-family="sans-serif" font-size="20" lengthAdjust="spacing" textLength="141" x="1393" y="96.1426">«Component»</text><text fill="#000000" font-family="sans-serif" font-size="20" lengthAdjust="spacing" textLength="160" x="1383.5" y="119.4238">TestCoordinator</text><rect fill="#E2E2F0" height="60.5625" rx="2.5" ry="2.5" style="stroke:#181818;stroke-width:0.5;" width="174" x="1376.5" y="898.4844"/><text fill="#000000" font-family="sans-serif" font-size="20" lengthAdjust="spacing" textLength="141" x="1393" y="924.0488">«Component»</text><text fill="#000000" font-family="sans-serif" font-size="20" lengthAdjust="spacing" textLength="160" x="1383.5" y="947.3301">TestCoordinator</text><rect fill="#E2E2F0" height="60.5625" rx="2.5" ry="2.5" style="stroke:#181818;stroke-width:0.5;" width="155" x="1689" y="70.5781"/><text fill="#000000" font-family="sans-serif" font-size="20" lengthAdjust="spacing" textLength="141" x="1696" y="96.1426">«Component»</text><text fill="#000000" font-family="sans-serif" font-size="20" lengthAdjust="spacing" textLength="115" x="1709" y="119.4238">TestRunner</text><rect fill="#E2E2F0" height="60.5625" rx="2.5" ry="2.5" style="stroke:#181818;stroke-width:0.5;" width="155" x="1689" y="898.4844"/><text fill="#000000" font-family="sans-serif" font-size="20" lengthAdjust="spacing" textLength="141" x="1696" y="924.0488">«Component»</text><text fill="#000000" font-family="sans-serif" font-size="20" lengthAdjust="spacing" textLength="115" x="1709" y="947.3301">TestRunner</text><rect fill="#E2E2F0" height="60.5625" rx="2.5" ry="2.5" style="stroke:#181818;stroke-width:0.5;" width="214" x="2016.5" y="70.5781"/><text fill="#000000" font-family="sans-serif" font-size="20" lengthAdjust="spacing" textLength="141" x="2053" y="96.1426">«Component»</text><text fill="#000000" font-family="sans-serif" font-size="20" lengthAdjust="spacing" textLength="200" x="2023.5" y="119.4238">UIInteractionEngine</text><rect fill="#E2E2F0" height="60.5625" rx="2.5" ry="2.5" style="stroke:#181818;stroke-width:0.5;" width="214" x="2016.5" y="898.4844"/><text fill="#000000" font-family="sans-serif" font-size="20" lengthAdjust="spacing" textLength="141" x="2053" y="924.0488">«Component»</text><text fill="#000000" font-family="sans-serif" font-size="20" lengthAdjust="spacing" textLength="200" x="2023.5" y="947.3301">UIInteractionEngine</text><rect fill="#E2E2F0" height="60.5625" rx="2.5" ry="2.5" style="stroke:#181818;stroke-width:0.5;" width="121" x="2240.5" y="70.5781"/><text fill="#000000" font-family="sans-serif" font-size="20" lengthAdjust="spacing" textLength="107" x="2247.5" y="96.1426">«External»</text><text fill="#000000" font-family="sans-serif" font-size="20" lengthAdjust="spacing" textLength="98" x="2252" y="119.4238">AUT (iOS)</text><rect fill="#E2E2F0" height="60.5625" rx="2.5" ry="2.5" style="stroke:#181818;stroke-width:0.5;" width="121" x="2240.5" y="898.4844"/><text fill="#000000" font-family="sans-serif" font-size="20" lengthAdjust="spacing" textLength="107" x="2247.5" y="924.0488">«External»</text><text fill="#000000" font-family="sans-serif" font-size="20" lengthAdjust="spacing" textLength="98" x="2252" y="947.3301">AUT (iOS)</text><rect fill="#E2E2F0" height="60.5625" rx="2.5" ry="2.5" style="stroke:#181818;stroke-width:0.5;" width="122" x="2371.5" y="70.5781"/><text fill="#000000" font-family="sans-serif" font-size="20" lengthAdjust="spacing" textLength="107" x="2379" y="96.1426">«External»</text><text fill="#000000" font-family="sans-serif" font-size="20" lengthAdjust="spacing" textLength="108" x="2378.5" y="119.4238">iOS Device</text><rect fill="#E2E2F0" height="60.5625" rx="2.5" ry="2.5" style="stroke:#181818;stroke-width:0.5;" width="122" x="2371.5" y="898.4844"/><text fill="#000000" font-family="sans-serif" font-size="20" lengthAdjust="spacing" textLength="107" x="2379" y="924.0488">«External»</text><text fill="#000000" font-family="sans-serif" font-size="20" lengthAdjust="spacing" textLength="108" x="2378.5" y="947.3301">iOS Device</text><rect fill="#FFFFFF" height="739.3438" style="stroke:#181818;stroke-width:1.0;" width="10" x="92.5" y="142.1406"/><rect fill="#FFFFFF" height="710.0625" style="stroke:#181818;stroke-width:1.0;" width="10" x="503.5" y="171.4219"/><rect fill="#FFFFFF" height="87.5625" style="stroke:#181818;stroke-width:1.0;" width="10" x="755.5" y="208.7031"/><rect fill="#FFFFFF" height="87.5625" style="stroke:#181818;stroke-width:1.0;" width="10" x="1143.5" y="333.5469"/><rect fill="#FFFFFF" height="87.5625" style="stroke:#181818;stroke-width:1.0;" width="10" x="1458.5" y="458.3906"/><rect fill="#FFFFFF" height="260.9688" style="stroke:#181818;stroke-width:1.0;" width="10" x="1761.5" y="583.2344"/><rect fill="#FFFFFF" height="111.8438" style="stroke:#181818;stroke-width:1.0;" width="10" x="2118.5" y="695.0781"/><rect fill="#FFFFFF" height="37.2813" style="stroke:#181818;stroke-width:1.0;" width="10" x="2296" y="620.5156"/><rect fill="#FFFFFF" height="37.2813" style="stroke:#181818;stroke-width:1.0;" width="10" x="2427.5" y="732.3594"/><polygon fill="#000000" points="491.5,167.4219,501.5,171.4219,491.5,175.4219,495.5,171.4219" style="stroke:#000000;stroke-width:1.0;"/><line style="stroke:#000000;stroke-width:1.0;" x1="102.5" x2="497.5" y1="171.4219" y2="171.4219"/><text fill="#000000" font-family="sans-serif" font-size="20" lengthAdjust="spacing" textLength="199" x="109.5" y="164.7051">Ask to run Test Plan</text><polygon fill="#000000" points="743.5,204.7031,753.5,208.7031,743.5,212.7031,747.5,208.7031" style="stroke:#000000;stroke-width:1.0;"/><line style="stroke:#000000;stroke-width:1.0;" x1="513.5" x2="749.5" y1="208.7031" y2="208.7031"/><text fill="#000000" font-family="sans-serif" font-size="20" lengthAdjust="spacing" textLength="188" x="520.5" y="201.9863">Load configuration</text><line style="stroke:#000000;stroke-width:1.0;" x1="765.5" x2="807.5" y1="245.9844" y2="245.9844"/><line style="stroke:#000000;stroke-width:1.0;" x1="807.5" x2="807.5" y1="245.9844" y2="258.9844"/><line style="stroke:#000000;stroke-width:1.0;" x1="766.5" x2="807.5" y1="258.9844" y2="258.9844"/><polygon fill="#000000" points="776.5,254.9844,766.5,258.9844,776.5,262.9844,772.5,258.9844" style="stroke:#000000;stroke-width:1.0;"/><text fill="#000000" font-family="sans-serif" font-size="20" lengthAdjust="spacing" textLength="364" x="772.5" y="239.2676">Reads configuration from xctestplan</text><polygon fill="#000000" points="524.5,292.2656,514.5,296.2656,524.5,300.2656,520.5,296.2656" style="stroke:#000000;stroke-width:1.0;"/><line style="stroke:#000000;stroke-width:1.0;" x1="518.5" x2="759.5" y1="296.2656" y2="296.2656"/><text fill="#000000" font-family="sans-serif" font-size="20" lengthAdjust="spacing" textLength="218" x="530.5" y="289.5488">Returns configuration</text><polygon fill="#000000" points="1131.5,329.5469,1141.5,333.5469,1131.5,337.5469,1135.5,333.5469" style="stroke:#000000;stroke-width:1.0;"/><line style="stroke:#000000;stroke-width:1.0;" x1="513.5" x2="1137.5" y1="333.5469" y2="333.5469"/><text fill="#000000" font-family="sans-serif" font-size="20" lengthAdjust="spacing" textLength="281" x="520.5" y="326.8301">Read environment variables</text><line style="stroke:#000000;stroke-width:1.0;" x1="1153.5" x2="1195.5" y1="370.8281" y2="370.8281"/><line style="stroke:#000000;stroke-width:1.0;" x1="1195.5" x2="1195.5" y1="370.8281" y2="383.8281"/><line style="stroke:#000000;stroke-width:1.0;" x1="1154.5" x2="1195.5" y1="383.8281" y2="383.8281"/><polygon fill="#000000" points="1164.5,379.8281,1154.5,383.8281,1164.5,387.8281,1160.5,383.8281" style="stroke:#000000;stroke-width:1.0;"/><text fill="#000000" font-family="sans-serif" font-size="20" lengthAdjust="spacing" textLength="291" x="1160.5" y="364.1113">Reads environment variables</text><polygon fill="#000000" points="524.5,417.1094,514.5,421.1094,524.5,425.1094,520.5,421.1094" style="stroke:#000000;stroke-width:1.0;"/><line style="stroke:#000000;stroke-width:1.0;" x1="518.5" x2="1147.5" y1="421.1094" y2="421.1094"/><text fill="#000000" font-family="sans-serif" font-size="20" lengthAdjust="spacing" textLength="308" x="530.5" y="414.3926">Returns environment variables</text><polygon fill="#000000" points="1446.5,454.3906,1456.5,458.3906,1446.5,462.3906,1450.5,458.3906" style="stroke:#000000;stroke-width:1.0;"/><line style="stroke:#000000;stroke-width:1.0;" x1="513.5" x2="1452.5" y1="458.3906" y2="458.3906"/><text fill="#000000" font-family="sans-serif" font-size="20" lengthAdjust="spacing" textLength="251" x="520.5" y="451.6738">Initialize test coordinator</text><line style="stroke:#000000;stroke-width:1.0;" x1="1468.5" x2="1510.5" y1="495.6719" y2="495.6719"/><line style="stroke:#000000;stroke-width:1.0;" x1="1510.5" x2="1510.5" y1="495.6719" y2="508.6719"/><line style="stroke:#000000;stroke-width:1.0;" x1="1469.5" x2="1510.5" y1="508.6719" y2="508.6719"/><polygon fill="#000000" points="1479.5,504.6719,1469.5,508.6719,1479.5,512.6719,1475.5,508.6719" style="stroke:#000000;stroke-width:1.0;"/><text fill="#000000" font-family="sans-serif" font-size="20" lengthAdjust="spacing" textLength="279" x="1475.5" y="488.9551">Determines execution order</text><polygon fill="#000000" points="524.5,541.9531,514.5,545.9531,524.5,549.9531,520.5,545.9531" style="stroke:#000000;stroke-width:1.0;"/><line style="stroke:#000000;stroke-width:1.0;" x1="518.5" x2="1462.5" y1="545.9531" y2="545.9531"/><text fill="#000000" font-family="sans-serif" font-size="20" lengthAdjust="spacing" textLength="285" x="530.5" y="539.2363">Returns test execution order</text><polygon fill="#000000" points="1749.5,579.2344,1759.5,583.2344,1749.5,587.2344,1753.5,583.2344" style="stroke:#000000;stroke-width:1.0;"/><line style="stroke:#000000;stroke-width:1.0;" x1="513.5" x2="1755.5" y1="583.2344" y2="583.2344"/><text fill="#000000" font-family="sans-serif" font-size="20" lengthAdjust="spacing" textLength="197" x="520.5" y="576.5176">Start test execution</text><polygon fill="#000000" points="2284,616.5156,2294,620.5156,2284,624.5156,2288,620.5156" style="stroke:#000000;stroke-width:1.0;"/><line style="stroke:#000000;stroke-width:1.0;" x1="1771.5" x2="2290" y1="620.5156" y2="620.5156"/><text fill="#000000" font-family="sans-serif" font-size="20" lengthAdjust="spacing" textLength="265" x="1778.5" y="613.7988">Launch AUT on iOS Device</text><polygon fill="#000000" points="1782.5,653.7969,1772.5,657.7969,1782.5,661.7969,1778.5,657.7969" style="stroke:#000000;stroke-width:1.0;"/><line style="stroke:#000000;stroke-width:1.0;stroke-dasharray:2.0,2.0;" x1="1776.5" x2="2300" y1="657.7969" y2="657.7969"/><text fill="#000000" font-family="sans-serif" font-size="20" lengthAdjust="spacing" textLength="145" x="1788.5" y="651.0801">AUT Launched</text><polygon fill="#000000" points="2106.5,691.0781,2116.5,695.0781,2106.5,699.0781,2110.5,695.0781" style="stroke:#000000;stroke-width:1.0;"/><line style="stroke:#000000;stroke-width:1.0;" x1="1771.5" x2="2112.5" y1="695.0781" y2="695.0781"/><text fill="#000000" font-family="sans-serif" font-size="20" lengthAdjust="spacing" textLength="328" x="1778.5" y="688.3613">Execute test steps on iOS Device</text><polygon fill="#000000" points="2415.5,728.3594,2425.5,732.3594,2415.5,736.3594,2419.5,732.3594" style="stroke:#000000;stroke-width:1.0;"/><line style="stroke:#000000;stroke-width:1.0;" x1="2128.5" x2="2421.5" y1="732.3594" y2="732.3594"/><text fill="#000000" font-family="sans-serif" font-size="20" lengthAdjust="spacing" textLength="252" x="2135.5" y="725.6426">Interacts with iOS Device</text><polygon fill="#000000" points="2139.5,765.6406,2129.5,769.6406,2139.5,773.6406,2135.5,769.6406" style="stroke:#000000;stroke-width:1.0;"/><line style="stroke:#000000;stroke-width:1.0;stroke-dasharray:2.0,2.0;" x1="2133.5" x2="2431.5" y1="769.6406" y2="769.6406"/><text fill="#000000" font-family="sans-serif" font-size="20" lengthAdjust="spacing" textLength="203" x="2145.5" y="762.9238">Test Steps Executed</text><polygon fill="#000000" points="1782.5,802.9219,1772.5,806.9219,1782.5,810.9219,1778.5,806.9219" style="stroke:#000000;stroke-width:1.0;"/><line style="stroke:#000000;stroke-width:1.0;" x1="1776.5" x2="2122.5" y1="806.9219" y2="806.9219"/><text fill="#000000" font-family="sans-serif" font-size="20" lengthAdjust="spacing" textLength="266" x="1788.5" y="800.2051">Returns interaction results</text><polygon fill="#000000" points="524.5,840.2031,514.5,844.2031,524.5,848.2031,520.5,844.2031" style="stroke:#000000;stroke-width:1.0;"/><line style="stroke:#000000;stroke-width:1.0;stroke-dasharray:2.0,2.0;" x1="518.5" x2="1765.5" y1="844.2031" y2="844.2031"/><text fill="#000000" font-family="sans-serif" font-size="20" lengthAdjust="spacing" textLength="299" x="530.5" y="837.4863">Returns test execution results</text><polygon fill="#000000" points="108.5,877.4844,98.5,881.4844,108.5,885.4844,104.5,881.4844" style="stroke:#000000;stroke-width:1.0;"/><line style="stroke:#000000;stroke-width:1.0;stroke-dasharray:2.0,2.0;" x1="102.5" x2="507.5" y1="881.4844" y2="881.4844"/><text fill="#000000" font-family="sans-serif" font-size="20" lengthAdjust="spacing" textLength="377" x="114.5" y="874.7676">Returns results of Test Plan execution</text><!--SRC=[ZLPDR-8m4BtdLupQItkerEr-8uH484X8NNLLYhI7lPXae5uI6zaExUvg__kE7S0cSKivG6OoxyqRpuo5NdEnOOfLfSpNM421IrQNPYA5cV4_23VNIMAuAH5kSOibl8ShkAy5FA0syBra0Yx6YczHaLEWkaoIHruWOBKnlw72Qe5A9udUPu6yP5h3tmJeax9ylLAo5iL8bbBr-rjMrdYt-8Mv6GpWVFmf6qw-n4ELb2vcCixIyNKyHgFQyXmTrRl9JPR6meWYctpDFhjtGwNaK-DEIufB_eNQD-HXAuohX_CidNoSf1P2uORdVCE4WRD-VqI7oJYT3boCFbmE1Z_5DomhbgVP6J0DQPOa2_aSYuJmRCzSsWvtjP42XR6qFqRpgMsCezqR9r6KTCbNjv8LbCCYGyT9T2QsN4bHaNcF1ugEzoIFbJgIKXLSC2CRbfRlJHoxizh36_CaSZwT2eEAvOPBAcb5FN0KSzxn9oWAe7vrsfmzKwHWfUKRpX_WWj_DBXqBMTFNeYaGncXdrOMJsLX9OXDlcK4x96a6LuD3Mtimr6im4bIuZHvmQF_-mOB3plR0_aBkNBLYja8FFvg1qEZIs0RhOnvOAbd1SsuexyRAQZFuAkxHr4gqy4c1SILXCPqPQwG0UZzicU9iKQBsbNL7i-DvXLs_G1_bw5OP1mVLTjM59RSMeWTJmGrdfRsfxLdJAVfjEN2srwXbHud7IEDPqRYJvcVCQzTLUezHUBTGfwQD3EfiQsfNsUnj3sQ6rgR5TbpPRiFzewMm6qS3pcgHFre3I8FVCa_WDjD-mLKhiGKrU2n2uGvnd2noIVGWSsftRT46D_eb3R4x9kApcGutW-ryyrx34pUFKM9_ZnoUN9bHlUxmPqxdJlfHsPxh1MdXsUs7WFj0KAZfVyNHhCSA3q_sBOCLeGs6mayLSQMPPzd1G2w3Vp9-m0AsmpqQ-EWo_Wy0]--></g></svg>