<?xml version="1.0" encoding="UTF-8" standalone="no"?><svg xmlns="http://www.w3.org/2000/svg" xmlns:xlink="http://www.w3.org/1999/xlink" contentStyleType="text/css" height="682px" preserveAspectRatio="none" style="width:1317px;height:682px;background:#FFFFFF;" version="1.1" viewBox="0 0 1317 682" width="1317px" zoomAndPan="magnify"><defs/><g><text fill="#000000" font-family="sans-serif" font-size="14" font-weight="bold" lengthAdjust="spacing" textLength="204" x="558.75" y="27.9951">Level 1 - Create Test Plan</text><rect fill="#FFFFFF" height="450.0938" style="stroke:#181818;stroke-width:1.0;" width="10" x="53.5" y="135.5781"/><rect fill="#FFFFFF" height="411.8125" style="stroke:#181818;stroke-width:1.0;" width="10" x="432.5" y="164.8594"/><rect fill="#FFFFFF" height="87.5625" style="stroke:#181818;stroke-width:1.0;" width="10" x="972.5" y="202.1406"/><rect fill="#FFFFFF" height="87.5625" style="stroke:#181818;stroke-width:1.0;" width="10" x="972.5" y="326.9844"/><rect fill="#FFFFFF" height="87.5625" style="stroke:#181818;stroke-width:1.0;" width="10" x="972.5" y="451.8281"/><line style="stroke:#181818;stroke-width:0.5;stroke-dasharray:5.0,5.0;" x1="58" x2="58" y1="125.5781" y2="594.6719"/><line style="stroke:#181818;stroke-width:0.5;stroke-dasharray:5.0,5.0;" x1="437.5" x2="437.5" y1="125.5781" y2="594.6719"/><line style="stroke:#181818;stroke-width:0.5;stroke-dasharray:5.0,5.0;" x1="977" x2="977" y1="125.5781" y2="594.6719"/><text fill="#000000" font-family="sans-serif" font-size="20" lengthAdjust="spacing" textLength="101" x="5" y="120.8613">Developer</text><ellipse cx="58.5" cy="50.7969" fill="#E2E2F0" rx="8" ry="8" style="stroke:#181818;stroke-width:0.5;"/><path d="M58.5,58.7969 L58.5,85.7969 M45.5,66.7969 L71.5,66.7969 M58.5,85.7969 L45.5,100.7969 M58.5,85.7969 L71.5,100.7969 " fill="none" style="stroke:#181818;stroke-width:0.5;"/><text fill="#000000" font-family="sans-serif" font-size="20" lengthAdjust="spacing" textLength="101" x="5" y="612.2363">Developer</text><ellipse cx="58.5" cy="625.4531" fill="#E2E2F0" rx="8" ry="8" style="stroke:#181818;stroke-width:0.5;"/><path d="M58.5,633.4531 L58.5,660.4531 M45.5,641.4531 L71.5,641.4531 M58.5,660.4531 L45.5,675.4531 M58.5,660.4531 L71.5,675.4531 " fill="none" style="stroke:#181818;stroke-width:0.5;"/><rect fill="#E2E2F0" height="37.2813" rx="2.5" ry="2.5" style="stroke:#181818;stroke-width:0.5;" width="88" x="393.5" y="87.2969"/><text fill="#000000" font-family="sans-serif" font-size="20" lengthAdjust="spacing" textLength="74" x="400.5" y="112.8613">System</text><rect fill="#E2E2F0" height="37.2813" rx="2.5" ry="2.5" style="stroke:#181818;stroke-width:0.5;" width="88" x="393.5" y="593.6719"/><text fill="#000000" font-family="sans-serif" font-size="20" lengthAdjust="spacing" textLength="74" x="400.5" y="619.2363">System</text><rect fill="#E2E2F0" height="60.5625" rx="2.5" ry="2.5" style="stroke:#181818;stroke-width:0.5;" width="121" x="917" y="64.0156"/><text fill="#000000" font-family="sans-serif" font-size="20" lengthAdjust="spacing" textLength="107" x="924" y="89.5801">«External»</text><text fill="#000000" font-family="sans-serif" font-size="20" lengthAdjust="spacing" textLength="94" x="930.5" y="112.8613">Database</text><rect fill="#E2E2F0" height="60.5625" rx="2.5" ry="2.5" style="stroke:#181818;stroke-width:0.5;" width="121" x="917" y="593.6719"/><text fill="#000000" font-family="sans-serif" font-size="20" lengthAdjust="spacing" textLength="107" x="924" y="619.2363">«External»</text><text fill="#000000" font-family="sans-serif" font-size="20" lengthAdjust="spacing" textLength="94" x="930.5" y="642.5176">Database</text><rect fill="#FFFFFF" height="450.0938" style="stroke:#181818;stroke-width:1.0;" width="10" x="53.5" y="135.5781"/><rect fill="#FFFFFF" height="411.8125" style="stroke:#181818;stroke-width:1.0;" width="10" x="432.5" y="164.8594"/><rect fill="#FFFFFF" height="87.5625" style="stroke:#181818;stroke-width:1.0;" width="10" x="972.5" y="202.1406"/><rect fill="#FFFFFF" height="87.5625" style="stroke:#181818;stroke-width:1.0;" width="10" x="972.5" y="326.9844"/><rect fill="#FFFFFF" height="87.5625" style="stroke:#181818;stroke-width:1.0;" width="10" x="972.5" y="451.8281"/><polygon fill="#000000" points="420.5,160.8594,430.5,164.8594,420.5,168.8594,424.5,164.8594" style="stroke:#000000;stroke-width:1.0;"/><line style="stroke:#000000;stroke-width:1.0;" x1="63.5" x2="426.5" y1="164.8594" y2="164.8594"/><text fill="#000000" font-family="sans-serif" font-size="20" lengthAdjust="spacing" textLength="350" x="70.5" y="158.1426">Requests to create a new Test Plan</text><polygon fill="#000000" points="960.5,198.1406,970.5,202.1406,960.5,206.1406,964.5,202.1406" style="stroke:#000000;stroke-width:1.0;"/><line style="stroke:#000000;stroke-width:1.0;" x1="442.5" x2="966.5" y1="202.1406" y2="202.1406"/><text fill="#000000" font-family="sans-serif" font-size="20" lengthAdjust="spacing" textLength="220" x="449.5" y="195.4238">Asks to save Test Plan</text><line style="stroke:#000000;stroke-width:1.0;stroke-dasharray:2.0,2.0;" x1="982.5" x2="1024.5" y1="239.4219" y2="239.4219"/><line style="stroke:#000000;stroke-width:1.0;stroke-dasharray:2.0,2.0;" x1="1024.5" x2="1024.5" y1="239.4219" y2="252.4219"/><line style="stroke:#000000;stroke-width:1.0;stroke-dasharray:2.0,2.0;" x1="983.5" x2="1024.5" y1="252.4219" y2="252.4219"/><polygon fill="#000000" points="993.5,248.4219,983.5,252.4219,993.5,256.4219,989.5,252.4219" style="stroke:#000000;stroke-width:1.0;"/><text fill="#000000" font-family="sans-serif" font-size="20" lengthAdjust="spacing" textLength="155" x="989.5" y="232.7051">Saves Test Plan</text><polygon fill="#000000" points="453.5,285.7031,443.5,289.7031,453.5,293.7031,449.5,289.7031" style="stroke:#000000;stroke-width:1.0;"/><line style="stroke:#000000;stroke-width:1.0;stroke-dasharray:2.0,2.0;" x1="447.5" x2="976.5" y1="289.7031" y2="289.7031"/><text fill="#000000" font-family="sans-serif" font-size="20" lengthAdjust="spacing" textLength="266" x="459.5" y="282.9863">Returns saved Test Plan ID</text><polygon fill="#000000" points="960.5,322.9844,970.5,326.9844,960.5,330.9844,964.5,326.9844" style="stroke:#000000;stroke-width:1.0;"/><line style="stroke:#000000;stroke-width:1.0;" x1="442.5" x2="966.5" y1="326.9844" y2="326.9844"/><text fill="#000000" font-family="sans-serif" font-size="20" lengthAdjust="spacing" textLength="511" x="449.5" y="320.2676">Asks to find latest Test Plan Version by Test Plan ID</text><line style="stroke:#000000;stroke-width:1.0;stroke-dasharray:2.0,2.0;" x1="982.5" x2="1024.5" y1="364.2656" y2="364.2656"/><line style="stroke:#000000;stroke-width:1.0;stroke-dasharray:2.0,2.0;" x1="1024.5" x2="1024.5" y1="364.2656" y2="377.2656"/><line style="stroke:#000000;stroke-width:1.0;stroke-dasharray:2.0,2.0;" x1="983.5" x2="1024.5" y1="377.2656" y2="377.2656"/><polygon fill="#000000" points="993.5,373.2656,983.5,377.2656,993.5,381.2656,989.5,377.2656" style="stroke:#000000;stroke-width:1.0;"/><text fill="#000000" font-family="sans-serif" font-size="20" lengthAdjust="spacing" textLength="321" x="989.5" y="357.5488">Finds latest Test Plan Version ID</text><polygon fill="#000000" points="453.5,410.5469,443.5,414.5469,453.5,418.5469,449.5,414.5469" style="stroke:#000000;stroke-width:1.0;"/><line style="stroke:#000000;stroke-width:1.0;stroke-dasharray:2.0,2.0;" x1="447.5" x2="976.5" y1="414.5469" y2="414.5469"/><text fill="#000000" font-family="sans-serif" font-size="20" lengthAdjust="spacing" textLength="345" x="459.5" y="407.8301">Returns latest Test Plan Version ID</text><polygon fill="#000000" points="960.5,447.8281,970.5,451.8281,960.5,455.8281,964.5,451.8281" style="stroke:#000000;stroke-width:1.0;"/><line style="stroke:#000000;stroke-width:1.0;" x1="442.5" x2="966.5" y1="451.8281" y2="451.8281"/><text fill="#000000" font-family="sans-serif" font-size="20" lengthAdjust="spacing" textLength="301" x="449.5" y="445.1113">Asks to save Test Plan Version</text><line style="stroke:#000000;stroke-width:1.0;stroke-dasharray:2.0,2.0;" x1="982.5" x2="1024.5" y1="489.1094" y2="489.1094"/><line style="stroke:#000000;stroke-width:1.0;stroke-dasharray:2.0,2.0;" x1="1024.5" x2="1024.5" y1="489.1094" y2="502.1094"/><line style="stroke:#000000;stroke-width:1.0;stroke-dasharray:2.0,2.0;" x1="983.5" x2="1024.5" y1="502.1094" y2="502.1094"/><polygon fill="#000000" points="993.5,498.1094,983.5,502.1094,993.5,506.1094,989.5,502.1094" style="stroke:#000000;stroke-width:1.0;"/><text fill="#000000" font-family="sans-serif" font-size="20" lengthAdjust="spacing" textLength="236" x="989.5" y="482.3926">Saves Test Plan Version</text><polygon fill="#000000" points="453.5,535.3906,443.5,539.3906,453.5,543.3906,449.5,539.3906" style="stroke:#000000;stroke-width:1.0;"/><line style="stroke:#000000;stroke-width:1.0;stroke-dasharray:2.0,2.0;" x1="447.5" x2="976.5" y1="539.3906" y2="539.3906"/><text fill="#000000" font-family="sans-serif" font-size="20" lengthAdjust="spacing" textLength="347" x="459.5" y="532.6738">Returns saved Test Plan Version ID</text><polygon fill="#000000" points="74.5,572.6719,64.5,576.6719,74.5,580.6719,70.5,576.6719" style="stroke:#000000;stroke-width:1.0;"/><line style="stroke:#000000;stroke-width:1.0;stroke-dasharray:2.0,2.0;" x1="68.5" x2="436.5" y1="576.6719" y2="576.6719"/><text fill="#000000" font-family="sans-serif" font-size="20" lengthAdjust="spacing" textLength="300" x="80.5" y="569.9551">Confirms creation of Test Plan</text><!--SRC=[ZPBVQzim4CVVzLSSxNEWBQnhGp14aGs5mSeozhINYttfjCYIfvFTfMF_- -GVRHnmklX5HlVvVk_BdNYdROKUI-Fo7HLGq1Ph4p9dmrg_4DnS2H5qC0IVg243rp23bISC15-90pmQj4Byq0K1bLNOGqdbXZmBmQ_Ea1jaXZy2uYSntprvLzjYvOppYqM3fgRFcv-KXoI1ItMRBhExQTGxrp6PIgMwccQOVADpwgokivjKJc7H8itkquzTRUczU-wlfOcS-3lENiKRVABfz72Pokn39bi9vY5Ug7P8hY8FoA24Y2P1vxf26-1YlUT0vKLRwd-Fouj5-ZkGjsYIvBjL6723J1skPDT0D-tSbL0mImQBENoXNtNS14DmaFURGR3qFDhFctHesn-jYP9pMFAk4pCsD2MApPM4sK2l8yKZR2WTqeJQM-xCYWC63qeKDBQSph3LjW0JaQWxYB_51wMTXSt-sF54n2oQy6cNA3mH-Zt9EUcF9_YgFdEIR_YP4_rljhRD75RERhKlkNyRhS1jH-iRIOV7yGy0]--></g></svg>