<?xml version="1.0" encoding="UTF-8" standalone="no"?><svg xmlns="http://www.w3.org/2000/svg" xmlns:xlink="http://www.w3.org/1999/xlink" contentStyleType="text/css" height="693px" preserveAspectRatio="none" style="width:1716px;height:693px;background:#FFFFFF;" version="1.1" viewBox="0 0 1716 693" width="1716px" zoomAndPan="magnify"><defs/><g><text fill="#000000" font-family="sans-serif" font-size="14" font-weight="bold" lengthAdjust="spacing" textLength="204" x="758.25" y="27.9951">Level 2 - Create Test Plan</text><rect fill="#DDDDDD" height="644.2188" style="stroke:#181818;stroke-width:0.5;" width="592" x="341" y="43.2969"/><text fill="#000000" font-family="sans-serif" font-size="20" font-weight="bold" lengthAdjust="spacing" textLength="586" x="344" y="61.8613">«System» Melmac Performance Testing Framework</text><rect fill="#FFFFFF" height="450.0938" style="stroke:#181818;stroke-width:1.0;" width="10" x="53.5" y="142.1406"/><rect fill="#FFFFFF" height="411.8125" style="stroke:#181818;stroke-width:1.0;" width="10" x="632" y="171.4219"/><rect fill="#FFFFFF" height="87.5625" style="stroke:#181818;stroke-width:1.0;" width="10" x="1371.5" y="208.7031"/><rect fill="#FFFFFF" height="87.5625" style="stroke:#181818;stroke-width:1.0;" width="10" x="1371.5" y="333.5469"/><rect fill="#FFFFFF" height="87.5625" style="stroke:#181818;stroke-width:1.0;" width="10" x="1371.5" y="458.3906"/><line style="stroke:#181818;stroke-width:0.5;stroke-dasharray:5.0,5.0;" x1="58" x2="58" y1="132.1406" y2="601.2344"/><line style="stroke:#181818;stroke-width:0.5;stroke-dasharray:5.0,5.0;" x1="636.5" x2="636.5" y1="132.1406" y2="601.2344"/><line style="stroke:#181818;stroke-width:0.5;stroke-dasharray:5.0,5.0;" x1="1376" x2="1376" y1="132.1406" y2="601.2344"/><text fill="#000000" font-family="sans-serif" font-size="20" lengthAdjust="spacing" textLength="101" x="5" y="127.4238">Developer</text><ellipse cx="58.5" cy="57.3594" fill="#E2E2F0" rx="8" ry="8" style="stroke:#181818;stroke-width:0.5;"/><path d="M58.5,65.3594 L58.5,92.3594 M45.5,73.3594 L71.5,73.3594 M58.5,92.3594 L45.5,107.3594 M58.5,92.3594 L71.5,107.3594 " fill="none" style="stroke:#181818;stroke-width:0.5;"/><text fill="#000000" font-family="sans-serif" font-size="20" lengthAdjust="spacing" textLength="101" x="5" y="618.7988">Developer</text><ellipse cx="58.5" cy="632.0156" fill="#E2E2F0" rx="8" ry="8" style="stroke:#181818;stroke-width:0.5;"/><path d="M58.5,640.0156 L58.5,667.0156 M45.5,648.0156 L71.5,648.0156 M58.5,667.0156 L45.5,682.0156 M58.5,667.0156 L71.5,682.0156 " fill="none" style="stroke:#181818;stroke-width:0.5;"/><rect fill="#E2E2F0" height="60.5625" rx="2.5" ry="2.5" style="stroke:#181818;stroke-width:0.5;" width="185" x="544.5" y="70.5781"/><text fill="#000000" font-family="sans-serif" font-size="20" lengthAdjust="spacing" textLength="171" x="551.5" y="96.1426">«Container (C4)»</text><text fill="#000000" font-family="sans-serif" font-size="20" lengthAdjust="spacing" textLength="105" x="584.5" y="119.4238">MelmacBE</text><rect fill="#E2E2F0" height="60.5625" rx="2.5" ry="2.5" style="stroke:#181818;stroke-width:0.5;" width="185" x="544.5" y="600.2344"/><text fill="#000000" font-family="sans-serif" font-size="20" lengthAdjust="spacing" textLength="171" x="551.5" y="625.7988">«Container (C4)»</text><text fill="#000000" font-family="sans-serif" font-size="20" lengthAdjust="spacing" textLength="105" x="584.5" y="649.0801">MelmacBE</text><rect fill="#E2E2F0" height="60.5625" rx="2.5" ry="2.5" style="stroke:#181818;stroke-width:0.5;" width="121" x="1316" y="70.5781"/><text fill="#000000" font-family="sans-serif" font-size="20" lengthAdjust="spacing" textLength="107" x="1323" y="96.1426">«External»</text><text fill="#000000" font-family="sans-serif" font-size="20" lengthAdjust="spacing" textLength="94" x="1329.5" y="119.4238">Database</text><rect fill="#E2E2F0" height="60.5625" rx="2.5" ry="2.5" style="stroke:#181818;stroke-width:0.5;" width="121" x="1316" y="600.2344"/><text fill="#000000" font-family="sans-serif" font-size="20" lengthAdjust="spacing" textLength="107" x="1323" y="625.7988">«External»</text><text fill="#000000" font-family="sans-serif" font-size="20" lengthAdjust="spacing" textLength="94" x="1329.5" y="649.0801">Database</text><rect fill="#FFFFFF" height="450.0938" style="stroke:#181818;stroke-width:1.0;" width="10" x="53.5" y="142.1406"/><rect fill="#FFFFFF" height="411.8125" style="stroke:#181818;stroke-width:1.0;" width="10" x="632" y="171.4219"/><rect fill="#FFFFFF" height="87.5625" style="stroke:#181818;stroke-width:1.0;" width="10" x="1371.5" y="208.7031"/><rect fill="#FFFFFF" height="87.5625" style="stroke:#181818;stroke-width:1.0;" width="10" x="1371.5" y="333.5469"/><rect fill="#FFFFFF" height="87.5625" style="stroke:#181818;stroke-width:1.0;" width="10" x="1371.5" y="458.3906"/><polygon fill="#000000" points="620,167.4219,630,171.4219,620,175.4219,624,171.4219" style="stroke:#000000;stroke-width:1.0;"/><line style="stroke:#000000;stroke-width:1.0;" x1="63.5" x2="626" y1="171.4219" y2="171.4219"/><text fill="#000000" font-family="sans-serif" font-size="20" lengthAdjust="spacing" textLength="350" x="70.5" y="164.7051">Requests to create a new Test Plan</text><polygon fill="#000000" points="1359.5,204.7031,1369.5,208.7031,1359.5,212.7031,1363.5,208.7031" style="stroke:#000000;stroke-width:1.0;"/><line style="stroke:#000000;stroke-width:1.0;" x1="642" x2="1365.5" y1="208.7031" y2="208.7031"/><text fill="#000000" font-family="sans-serif" font-size="20" lengthAdjust="spacing" textLength="220" x="649" y="201.9863">Asks to save Test Plan</text><line style="stroke:#000000;stroke-width:1.0;stroke-dasharray:2.0,2.0;" x1="1381.5" x2="1423.5" y1="245.9844" y2="245.9844"/><line style="stroke:#000000;stroke-width:1.0;stroke-dasharray:2.0,2.0;" x1="1423.5" x2="1423.5" y1="245.9844" y2="258.9844"/><line style="stroke:#000000;stroke-width:1.0;stroke-dasharray:2.0,2.0;" x1="1382.5" x2="1423.5" y1="258.9844" y2="258.9844"/><polygon fill="#000000" points="1392.5,254.9844,1382.5,258.9844,1392.5,262.9844,1388.5,258.9844" style="stroke:#000000;stroke-width:1.0;"/><text fill="#000000" font-family="sans-serif" font-size="20" lengthAdjust="spacing" textLength="155" x="1388.5" y="239.2676">Saves Test Plan</text><polygon fill="#000000" points="653,292.2656,643,296.2656,653,300.2656,649,296.2656" style="stroke:#000000;stroke-width:1.0;"/><line style="stroke:#000000;stroke-width:1.0;stroke-dasharray:2.0,2.0;" x1="647" x2="1375.5" y1="296.2656" y2="296.2656"/><text fill="#000000" font-family="sans-serif" font-size="20" lengthAdjust="spacing" textLength="266" x="659" y="289.5488">Returns saved Test Plan ID</text><polygon fill="#000000" points="1359.5,329.5469,1369.5,333.5469,1359.5,337.5469,1363.5,333.5469" style="stroke:#000000;stroke-width:1.0;"/><line style="stroke:#000000;stroke-width:1.0;" x1="642" x2="1365.5" y1="333.5469" y2="333.5469"/><text fill="#000000" font-family="sans-serif" font-size="20" lengthAdjust="spacing" textLength="511" x="649" y="326.8301">Asks to find latest Test Plan Version by Test Plan ID</text><line style="stroke:#000000;stroke-width:1.0;stroke-dasharray:2.0,2.0;" x1="1381.5" x2="1423.5" y1="370.8281" y2="370.8281"/><line style="stroke:#000000;stroke-width:1.0;stroke-dasharray:2.0,2.0;" x1="1423.5" x2="1423.5" y1="370.8281" y2="383.8281"/><line style="stroke:#000000;stroke-width:1.0;stroke-dasharray:2.0,2.0;" x1="1382.5" x2="1423.5" y1="383.8281" y2="383.8281"/><polygon fill="#000000" points="1392.5,379.8281,1382.5,383.8281,1392.5,387.8281,1388.5,383.8281" style="stroke:#000000;stroke-width:1.0;"/><text fill="#000000" font-family="sans-serif" font-size="20" lengthAdjust="spacing" textLength="321" x="1388.5" y="364.1113">Finds latest Test Plan Version ID</text><polygon fill="#000000" points="653,417.1094,643,421.1094,653,425.1094,649,421.1094" style="stroke:#000000;stroke-width:1.0;"/><line style="stroke:#000000;stroke-width:1.0;stroke-dasharray:2.0,2.0;" x1="647" x2="1375.5" y1="421.1094" y2="421.1094"/><text fill="#000000" font-family="sans-serif" font-size="20" lengthAdjust="spacing" textLength="345" x="659" y="414.3926">Returns latest Test Plan Version ID</text><polygon fill="#000000" points="1359.5,454.3906,1369.5,458.3906,1359.5,462.3906,1363.5,458.3906" style="stroke:#000000;stroke-width:1.0;"/><line style="stroke:#000000;stroke-width:1.0;" x1="642" x2="1365.5" y1="458.3906" y2="458.3906"/><text fill="#000000" font-family="sans-serif" font-size="20" lengthAdjust="spacing" textLength="301" x="649" y="451.6738">Asks to save Test Plan Version</text><line style="stroke:#000000;stroke-width:1.0;stroke-dasharray:2.0,2.0;" x1="1381.5" x2="1423.5" y1="495.6719" y2="495.6719"/><line style="stroke:#000000;stroke-width:1.0;stroke-dasharray:2.0,2.0;" x1="1423.5" x2="1423.5" y1="495.6719" y2="508.6719"/><line style="stroke:#000000;stroke-width:1.0;stroke-dasharray:2.0,2.0;" x1="1382.5" x2="1423.5" y1="508.6719" y2="508.6719"/><polygon fill="#000000" points="1392.5,504.6719,1382.5,508.6719,1392.5,512.6719,1388.5,508.6719" style="stroke:#000000;stroke-width:1.0;"/><text fill="#000000" font-family="sans-serif" font-size="20" lengthAdjust="spacing" textLength="236" x="1388.5" y="488.9551">Saves Test Plan Version</text><polygon fill="#000000" points="653,541.9531,643,545.9531,653,549.9531,649,545.9531" style="stroke:#000000;stroke-width:1.0;"/><line style="stroke:#000000;stroke-width:1.0;stroke-dasharray:2.0,2.0;" x1="647" x2="1375.5" y1="545.9531" y2="545.9531"/><text fill="#000000" font-family="sans-serif" font-size="20" lengthAdjust="spacing" textLength="347" x="659" y="539.2363">Returns saved Test Plan Version ID</text><polygon fill="#000000" points="74.5,579.2344,64.5,583.2344,74.5,587.2344,70.5,583.2344" style="stroke:#000000;stroke-width:1.0;"/><line style="stroke:#000000;stroke-width:1.0;stroke-dasharray:2.0,2.0;" x1="68.5" x2="636" y1="583.2344" y2="583.2344"/><text fill="#000000" font-family="sans-serif" font-size="20" lengthAdjust="spacing" textLength="300" x="80.5" y="576.5176">Confirms creation of Test Plan</text><!--SRC=[ZL9BZzCm4BxxLuow5pXKMYgULHMfhXq92SIA8avSficac3fsiTrq2-A_xoJPHnQoo_euyxqqd-FEk3q6hAqlTbH2IHKURCgzIslpYs1sBaGooH9ye8Oip60Agq2O2BvGJ71XqGdntPG4LE_J2MggDnIY4F566GgBCS9l0Vma5hjjy0TNhhprOR5eq1xeq-O75IdBu4ozrilyxJWqUDzXSgMbEX_7H0gDAQYJUf7Fj1o3iOJEt-attMuPWZ_sOsaP9_uCi-zvWbiQJmzdMkQlSjbIi4WyKEsH_9u2O0GbnCPVmcInM9zYeff3VIHROm4N52eVQdH5VqRZjf2p7Hrzs4sWysB_P0gpHvTQYHKtWiQnyhFLo-TPzitrMb9FMY-f1RaIMZ_n5rDV9WeERSjHc723aJgEabriqxHjAg5Wch7E73xJpmE7Yf0y57tN28wEWyPlQUmhTKjKSWxBkEj84HiQ0xEXaZ2zHgyP5GUmwrMV81s2YvrGUGU1zqgKD9JxrxioV0RBQ-RS4R_obpJUmUPqN-s1Q3cBn8TLc3WIzZ7u_rBVlzWDyucNkuK_uOAFPchbvy0_hJAXZdttBTXNWve6D2x_2W00]--></g></svg>