<?xml version="1.0" encoding="UTF-8" standalone="no"?><svg xmlns="http://www.w3.org/2000/svg" xmlns:xlink="http://www.w3.org/1999/xlink" contentStyleType="text/css" height="693px" preserveAspectRatio="none" style="width:1317px;height:693px;background:#FFFFFF;" version="1.1" viewBox="0 0 1317 693" width="1317px" zoomAndPan="magnify"><defs/><g><text fill="#000000" font-family="sans-serif" font-size="14" font-weight="bold" lengthAdjust="spacing" textLength="204" x="558.75" y="27.9951">Level 2 - Create Test Plan</text><rect fill="#DDDDDD" height="644.2188" style="stroke:#181818;stroke-width:0.5;" width="733" x="341" y="43.2969"/><text fill="#000000" font-family="sans-serif" font-size="20" font-weight="bold" lengthAdjust="spacing" textLength="586" x="414.5" y="61.8613">«System» Melmac Performance Testing Framework</text><rect fill="#FFFFFF" height="450.0938" style="stroke:#181818;stroke-width:1.0;" width="10" x="53.5" y="142.1406"/><rect fill="#FFFFFF" height="411.8125" style="stroke:#181818;stroke-width:1.0;" width="10" x="432.5" y="171.4219"/><rect fill="#FFFFFF" height="87.5625" style="stroke:#181818;stroke-width:1.0;" width="10" x="972.5" y="208.7031"/><rect fill="#FFFFFF" height="87.5625" style="stroke:#181818;stroke-width:1.0;" width="10" x="972.5" y="333.5469"/><rect fill="#FFFFFF" height="87.5625" style="stroke:#181818;stroke-width:1.0;" width="10" x="972.5" y="458.3906"/><line style="stroke:#181818;stroke-width:0.5;stroke-dasharray:5.0,5.0;" x1="58" x2="58" y1="132.1406" y2="601.2344"/><line style="stroke:#181818;stroke-width:0.5;stroke-dasharray:5.0,5.0;" x1="437" x2="437" y1="132.1406" y2="601.2344"/><line style="stroke:#181818;stroke-width:0.5;stroke-dasharray:5.0,5.0;" x1="977" x2="977" y1="132.1406" y2="601.2344"/><text fill="#000000" font-family="sans-serif" font-size="20" lengthAdjust="spacing" textLength="101" x="5" y="127.4238">Developer</text><ellipse cx="58.5" cy="57.3594" fill="#E2E2F0" rx="8" ry="8" style="stroke:#181818;stroke-width:0.5;"/><path d="M58.5,65.3594 L58.5,92.3594 M45.5,73.3594 L71.5,73.3594 M58.5,92.3594 L45.5,107.3594 M58.5,92.3594 L71.5,107.3594 " fill="none" style="stroke:#181818;stroke-width:0.5;"/><text fill="#000000" font-family="sans-serif" font-size="20" lengthAdjust="spacing" textLength="101" x="5" y="618.7988">Developer</text><ellipse cx="58.5" cy="632.0156" fill="#E2E2F0" rx="8" ry="8" style="stroke:#181818;stroke-width:0.5;"/><path d="M58.5,640.0156 L58.5,667.0156 M45.5,648.0156 L71.5,648.0156 M58.5,667.0156 L45.5,682.0156 M58.5,667.0156 L71.5,682.0156 " fill="none" style="stroke:#181818;stroke-width:0.5;"/><rect fill="#E2E2F0" height="60.5625" rx="2.5" ry="2.5" style="stroke:#181818;stroke-width:0.5;" width="185" x="345" y="70.5781"/><text fill="#000000" font-family="sans-serif" font-size="20" lengthAdjust="spacing" textLength="171" x="352" y="96.1426">«Container (C4)»</text><text fill="#000000" font-family="sans-serif" font-size="20" lengthAdjust="spacing" textLength="105" x="385" y="119.4238">MelmacBE</text><rect fill="#E2E2F0" height="60.5625" rx="2.5" ry="2.5" style="stroke:#181818;stroke-width:0.5;" width="185" x="345" y="600.2344"/><text fill="#000000" font-family="sans-serif" font-size="20" lengthAdjust="spacing" textLength="171" x="352" y="625.7988">«Container (C4)»</text><text fill="#000000" font-family="sans-serif" font-size="20" lengthAdjust="spacing" textLength="105" x="385" y="649.0801">MelmacBE</text><rect fill="#E2E2F0" height="60.5625" rx="2.5" ry="2.5" style="stroke:#181818;stroke-width:0.5;" width="185" x="885" y="70.5781"/><text fill="#000000" font-family="sans-serif" font-size="20" lengthAdjust="spacing" textLength="171" x="892" y="96.1426">«Container (C4)»</text><text fill="#000000" font-family="sans-serif" font-size="20" lengthAdjust="spacing" textLength="94" x="930.5" y="119.4238">Database</text><rect fill="#E2E2F0" height="60.5625" rx="2.5" ry="2.5" style="stroke:#181818;stroke-width:0.5;" width="185" x="885" y="600.2344"/><text fill="#000000" font-family="sans-serif" font-size="20" lengthAdjust="spacing" textLength="171" x="892" y="625.7988">«Container (C4)»</text><text fill="#000000" font-family="sans-serif" font-size="20" lengthAdjust="spacing" textLength="94" x="930.5" y="649.0801">Database</text><rect fill="#FFFFFF" height="450.0938" style="stroke:#181818;stroke-width:1.0;" width="10" x="53.5" y="142.1406"/><rect fill="#FFFFFF" height="411.8125" style="stroke:#181818;stroke-width:1.0;" width="10" x="432.5" y="171.4219"/><rect fill="#FFFFFF" height="87.5625" style="stroke:#181818;stroke-width:1.0;" width="10" x="972.5" y="208.7031"/><rect fill="#FFFFFF" height="87.5625" style="stroke:#181818;stroke-width:1.0;" width="10" x="972.5" y="333.5469"/><rect fill="#FFFFFF" height="87.5625" style="stroke:#181818;stroke-width:1.0;" width="10" x="972.5" y="458.3906"/><polygon fill="#000000" points="420.5,167.4219,430.5,171.4219,420.5,175.4219,424.5,171.4219" style="stroke:#000000;stroke-width:1.0;"/><line style="stroke:#000000;stroke-width:1.0;" x1="63.5" x2="426.5" y1="171.4219" y2="171.4219"/><text fill="#000000" font-family="sans-serif" font-size="20" lengthAdjust="spacing" textLength="350" x="70.5" y="164.7051">Requests to create a new Test Plan</text><polygon fill="#000000" points="960.5,204.7031,970.5,208.7031,960.5,212.7031,964.5,208.7031" style="stroke:#000000;stroke-width:1.0;"/><line style="stroke:#000000;stroke-width:1.0;" x1="442.5" x2="966.5" y1="208.7031" y2="208.7031"/><text fill="#000000" font-family="sans-serif" font-size="20" lengthAdjust="spacing" textLength="220" x="449.5" y="201.9863">Asks to save Test Plan</text><line style="stroke:#000000;stroke-width:1.0;stroke-dasharray:2.0,2.0;" x1="982.5" x2="1024.5" y1="245.9844" y2="245.9844"/><line style="stroke:#000000;stroke-width:1.0;stroke-dasharray:2.0,2.0;" x1="1024.5" x2="1024.5" y1="245.9844" y2="258.9844"/><line style="stroke:#000000;stroke-width:1.0;stroke-dasharray:2.0,2.0;" x1="983.5" x2="1024.5" y1="258.9844" y2="258.9844"/><polygon fill="#000000" points="993.5,254.9844,983.5,258.9844,993.5,262.9844,989.5,258.9844" style="stroke:#000000;stroke-width:1.0;"/><text fill="#000000" font-family="sans-serif" font-size="20" lengthAdjust="spacing" textLength="155" x="989.5" y="239.2676">Saves Test Plan</text><polygon fill="#000000" points="453.5,292.2656,443.5,296.2656,453.5,300.2656,449.5,296.2656" style="stroke:#000000;stroke-width:1.0;"/><line style="stroke:#000000;stroke-width:1.0;stroke-dasharray:2.0,2.0;" x1="447.5" x2="976.5" y1="296.2656" y2="296.2656"/><text fill="#000000" font-family="sans-serif" font-size="20" lengthAdjust="spacing" textLength="266" x="459.5" y="289.5488">Returns saved Test Plan ID</text><polygon fill="#000000" points="960.5,329.5469,970.5,333.5469,960.5,337.5469,964.5,333.5469" style="stroke:#000000;stroke-width:1.0;"/><line style="stroke:#000000;stroke-width:1.0;" x1="442.5" x2="966.5" y1="333.5469" y2="333.5469"/><text fill="#000000" font-family="sans-serif" font-size="20" lengthAdjust="spacing" textLength="511" x="449.5" y="326.8301">Asks to find latest Test Plan Version by Test Plan ID</text><line style="stroke:#000000;stroke-width:1.0;stroke-dasharray:2.0,2.0;" x1="982.5" x2="1024.5" y1="370.8281" y2="370.8281"/><line style="stroke:#000000;stroke-width:1.0;stroke-dasharray:2.0,2.0;" x1="1024.5" x2="1024.5" y1="370.8281" y2="383.8281"/><line style="stroke:#000000;stroke-width:1.0;stroke-dasharray:2.0,2.0;" x1="983.5" x2="1024.5" y1="383.8281" y2="383.8281"/><polygon fill="#000000" points="993.5,379.8281,983.5,383.8281,993.5,387.8281,989.5,383.8281" style="stroke:#000000;stroke-width:1.0;"/><text fill="#000000" font-family="sans-serif" font-size="20" lengthAdjust="spacing" textLength="321" x="989.5" y="364.1113">Finds latest Test Plan Version ID</text><polygon fill="#000000" points="453.5,417.1094,443.5,421.1094,453.5,425.1094,449.5,421.1094" style="stroke:#000000;stroke-width:1.0;"/><line style="stroke:#000000;stroke-width:1.0;stroke-dasharray:2.0,2.0;" x1="447.5" x2="976.5" y1="421.1094" y2="421.1094"/><text fill="#000000" font-family="sans-serif" font-size="20" lengthAdjust="spacing" textLength="345" x="459.5" y="414.3926">Returns latest Test Plan Version ID</text><polygon fill="#000000" points="960.5,454.3906,970.5,458.3906,960.5,462.3906,964.5,458.3906" style="stroke:#000000;stroke-width:1.0;"/><line style="stroke:#000000;stroke-width:1.0;" x1="442.5" x2="966.5" y1="458.3906" y2="458.3906"/><text fill="#000000" font-family="sans-serif" font-size="20" lengthAdjust="spacing" textLength="301" x="449.5" y="451.6738">Asks to save Test Plan Version</text><line style="stroke:#000000;stroke-width:1.0;stroke-dasharray:2.0,2.0;" x1="982.5" x2="1024.5" y1="495.6719" y2="495.6719"/><line style="stroke:#000000;stroke-width:1.0;stroke-dasharray:2.0,2.0;" x1="1024.5" x2="1024.5" y1="495.6719" y2="508.6719"/><line style="stroke:#000000;stroke-width:1.0;stroke-dasharray:2.0,2.0;" x1="983.5" x2="1024.5" y1="508.6719" y2="508.6719"/><polygon fill="#000000" points="993.5,504.6719,983.5,508.6719,993.5,512.6719,989.5,508.6719" style="stroke:#000000;stroke-width:1.0;"/><text fill="#000000" font-family="sans-serif" font-size="20" lengthAdjust="spacing" textLength="236" x="989.5" y="488.9551">Saves Test Plan Version</text><polygon fill="#000000" points="453.5,541.9531,443.5,545.9531,453.5,549.9531,449.5,545.9531" style="stroke:#000000;stroke-width:1.0;"/><line style="stroke:#000000;stroke-width:1.0;stroke-dasharray:2.0,2.0;" x1="447.5" x2="976.5" y1="545.9531" y2="545.9531"/><text fill="#000000" font-family="sans-serif" font-size="20" lengthAdjust="spacing" textLength="347" x="459.5" y="539.2363">Returns saved Test Plan Version ID</text><polygon fill="#000000" points="74.5,579.2344,64.5,583.2344,74.5,587.2344,70.5,583.2344" style="stroke:#000000;stroke-width:1.0;"/><line style="stroke:#000000;stroke-width:1.0;stroke-dasharray:2.0,2.0;" x1="68.5" x2="436.5" y1="583.2344" y2="583.2344"/><text fill="#000000" font-family="sans-serif" font-size="20" lengthAdjust="spacing" textLength="300" x="80.5" y="576.5176">Confirms creation of Test Plan</text><!--SRC=[ZP9BZzCm58Nt_XLNdGqiAWqLpwgALDU9X0HYH14hDevpKqmSEzXEIa7yzxb9vf4HcQ5PskTyz-GUXqhRHdfP6wSgBA30KhOcPix6lVwDiBfaBEfe43vWXmPMi8ITHnaHlc28S6MaPUoxBX2mRk89Qgnpz86nS4i6PMG8y8S1VLogwk1TQukTCyvlDfqqBNxAVw2AIG8NudMwpTxEIxrpWoOJAHUNyvg0ljCA1zIBR9NoEHaXqknT-cQusthlZkCnDwHZVwVP6pgH1vnF3nSfprvblBT85Ub0z4jo3NgG0GHZkVi5YyrcVmeHQmhr4Kqj5LoXBvslfLNZ6hKzG4RZyEXyjO1X5isFMkb6sjWZTjI8r9R8ptOldoV9DpkoUBheP_7qF9EGKUOou60IdA4jW48E-NNNrogOW6L2m3LynfyjfGiG7QYnT0aMZvFgxsmKWAUzKV0rR4Crc8BiS4vCWmM7vOrwJwemaTrSZGbYwsqOGCMz1DuBLk0Kz-_iKjEl6RecpxtnAxrDxIpafuUqHw9b10cFKyWu4_Of-VzIFzpOhVFCpTt9pzZWavbw_1hezPJQrs7ilXUxSbBJn4RbNmC0]--></g></svg>